<svg xmlns="http://www.w3.org/2000/svg" xmlns:xlink="http://www.w3.org/1999/xlink" width="200" zoomAndPan="magnify" viewBox="0 0 150 149.999998" height="200" preserveAspectRatio="xMidYMid meet" version="1.0"><defs><clipPath id="24b302454b"><path d="M 19.3125 0 L 134.8125 0 L 134.8125 150 L 19.3125 150 Z M 19.3125 0 " clip-rule="nonzero"/></clipPath></defs><g clip-path="url(#24b302454b)"><path fill="#ffffff" d="M 67.921875 20.207031 C 67.890625 19.738281 67.707031 19.3125 67.539062 18.878906 C 66.121094 15.175781 64.351562 11.652344 62.074219 8.394531 C 61.480469 7.546875 60.957031 6.65625 60.539062 5.707031 C 60.351562 5.28125 60.195312 4.851562 60.125 4.386719 C 59.945312 3.226562 60.496094 2.429688 61.660156 2.253906 C 62.554688 2.121094 63.421875 2.203125 64.257812 2.621094 C 65.683594 3.339844 66.886719 4.320312 67.871094 5.566406 C 72.0625 10.871094 74.824219 16.8125 75.753906 23.542969 C 76.210938 26.867188 76.203125 30.214844 75.9375 33.558594 C 75.679688 36.824219 75.332031 40.082031 74.609375 43.28125 C 73.5 48.175781 72.339844 53.0625 70.859375 57.859375 C 69.988281 60.691406 68.925781 63.445312 67.484375 66.039062 C 66.929688 67.035156 66.292969 67.984375 65.445312 68.765625 C 65.027344 69.152344 64.84375 69.625 64.78125 70.175781 C 63.894531 77.742188 62.832031 85.28125 61.550781 92.789062 C 60.78125 97.316406 59.742188 101.792969 58.722656 106.269531 C 58.445312 107.476562 58.171875 108.6875 57.851562 110.117188 C 58.269531 109.742188 58.347656 109.410156 58.46875 109.117188 C 60.242188 104.765625 62.101562 100.453125 64.042969 96.171875 C 67.976562 87.5 72.410156 79.105469 77.609375 71.121094 C 79.9375 67.535156 82.328125 63.996094 84.886719 60.574219 C 85.191406 60.167969 85.429688 59.753906 85.4375 59.21875 C 85.492188 55.945312 86.265625 52.804688 87.242188 49.707031 C 89.757812 41.707031 92.980469 33.996094 96.769531 26.519531 C 98.21875 23.660156 99.582031 20.757812 101.171875 17.972656 C 101.679688 17.078125 102.238281 16.207031 102.820312 15.351562 C 104.769531 12.480469 107.460938 10.707031 110.925781 10.40625 C 113.757812 10.160156 116.621094 10.121094 119.433594 10.734375 C 119.953125 10.847656 120.476562 10.988281 120.964844 11.191406 C 122.734375 11.925781 123.511719 13.515625 123.011719 15.359375 C 122.5 17.242188 121.445312 18.859375 120.375 20.457031 C 119.5 21.761719 118.445312 22.925781 117.371094 24.066406 C 113.804688 27.855469 109.964844 31.359375 106.078125 34.8125 C 105.121094 35.664062 104.179688 36.535156 103.230469 37.394531 C 102.863281 37.730469 102.488281 38.058594 102.023438 38.261719 C 101.738281 38.386719 101.464844 38.390625 101.238281 38.144531 C 101.011719 37.902344 101.027344 37.625 101.171875 37.355469 C 101.425781 36.878906 101.78125 36.480469 102.152344 36.097656 C 103.695312 34.511719 105.339844 33.042969 106.964844 31.550781 C 110.507812 28.296875 114.050781 25.046875 117.203125 21.40625 C 118.679688 19.699219 119.871094 17.804688 120.785156 15.738281 C 120.871094 15.542969 120.953125 15.34375 121.011719 15.136719 C 121.339844 13.917969 120.960938 13.234375 119.746094 12.863281 C 118.886719 12.605469 117.996094 12.511719 117.113281 12.457031 C 114.804688 12.304688 112.496094 12.152344 110.191406 12.542969 C 108.015625 12.910156 106.296875 14.039062 104.917969 15.726562 C 103.855469 17.027344 102.984375 18.457031 102.203125 19.9375 C 99.019531 25.949219 95.910156 32 93.320312 38.292969 C 91.464844 42.804688 89.796875 47.390625 88.46875 52.089844 C 88.148438 53.222656 87.921875 54.371094 87.699219 55.527344 C 87.640625 55.824219 87.519531 56.144531 87.738281 56.445312 C 88.101562 56.453125 88.203125 56.140625 88.367188 55.933594 C 92.464844 50.632812 96.890625 45.617188 101.570312 40.824219 C 106.195312 36.082031 110.785156 31.304688 115.582031 26.738281 C 119.035156 23.449219 122.390625 20.050781 126.089844 17.027344 C 126.863281 16.398438 127.667969 15.8125 128.492188 15.25 C 129.242188 14.734375 129.976562 14.792969 130.667969 15.324219 C 131.378906 15.867188 131.992188 16.515625 132.320312 17.378906 C 133.253906 19.84375 134.136719 22.316406 134.46875 24.960938 C 134.917969 28.488281 134.554688 31.917969 133.371094 35.265625 C 132.175781 38.636719 130.25 41.566406 127.957031 44.28125 C 123.164062 49.949219 117.363281 54.394531 111.023438 58.171875 C 106.675781 60.769531 102.152344 63.019531 97.320312 64.597656 C 96.269531 64.941406 95.203125 65.203125 94.113281 65.394531 C 92.457031 65.691406 90.855469 65.472656 89.269531 64.992188 C 87.945312 64.589844 86.9375 63.796875 86.285156 62.570312 C 86.203125 62.414062 86.101562 62.273438 86.011719 62.132812 C 85.542969 62.183594 85.4375 62.578125 85.242188 62.84375 C 81.050781 68.566406 77.207031 74.511719 73.707031 80.683594 C 69.074219 88.839844 65.234375 97.375 61.617188 106.015625 C 59.371094 111.367188 57.183594 116.742188 55.15625 122.179688 C 54.121094 124.953125 53.496094 127.847656 52.640625 130.675781 C 51.425781 134.695312 50.15625 138.699219 48.953125 142.722656 C 48.464844 144.359375 48.101562 146.03125 47.675781 147.683594 C 47.59375 147.992188 47.507812 148.304688 47.394531 148.601562 C 46.980469 149.695312 46.441406 149.996094 45.273438 149.972656 C 44.25 149.953125 43.261719 149.054688 43.6875 147.773438 C 44.238281 146.117188 44.871094 144.496094 45.558594 142.890625 C 48.84375 135.238281 51.351562 127.367188 52.519531 119.085938 C 53.261719 113.804688 53.359375 108.503906 53.082031 103.210938 C 52.78125 97.457031 52.1875 91.71875 51.207031 86.03125 C 51.019531 84.941406 50.773438 83.867188 50.519531 82.792969 C 50.355469 82.089844 50.277344 82.046875 49.578125 82.167969 C 48.855469 82.296875 48.164062 82.210938 47.476562 81.980469 C 45.949219 81.46875 44.476562 80.832031 43.09375 80.019531 C 39.8125 78.089844 36.414062 76.355469 33.191406 74.320312 C 29.472656 71.972656 26.226562 69.097656 23.832031 65.398438 C 21.355469 61.578125 19.867188 57.382812 19.558594 52.792969 C 19.394531 50.367188 19.585938 47.960938 19.8125 45.554688 C 19.851562 45.132812 19.949219 44.707031 20.089844 44.308594 C 20.554688 42.992188 21.558594 42.738281 22.535156 43.722656 C 23.1875 44.378906 23.753906 45.117188 24.351562 45.820312 C 24.828125 46.382812 25.296875 46.949219 25.894531 47.429688 C 25.71875 47.140625 25.542969 46.847656 25.367188 46.554688 C 24.953125 45.875 24.707031 45.132812 24.617188 44.347656 C 24.445312 42.851562 25.503906 41.691406 27.011719 41.746094 C 28.171875 41.785156 29.238281 42.214844 30.269531 42.703125 C 32.855469 43.933594 35.261719 45.472656 37.347656 47.4375 C 41.367188 51.222656 44.734375 55.523438 47.265625 60.453125 C 48.863281 63.5625 50.386719 66.703125 51.210938 70.121094 C 51.960938 73.230469 52.230469 76.371094 51.664062 79.546875 C 51.59375 79.949219 51.636719 80.316406 51.746094 80.699219 C 52.910156 84.714844 53.398438 88.851562 53.875 92.988281 C 54.3125 96.808594 54.664062 100.636719 54.847656 104.472656 C 54.988281 107.316406 55.023438 110.164062 54.792969 113.011719 C 54.738281 113.679688 54.726562 114.355469 54.6875 115.238281 C 55.007812 114.777344 55.03125 114.429688 55.105469 114.105469 C 56.621094 107.589844 58.214844 101.085938 59.421875 94.503906 C 60.230469 90.089844 60.859375 85.648438 61.457031 81.207031 C 61.949219 77.574219 62.367188 73.933594 62.847656 70.300781 C 62.925781 69.714844 62.871094 69.300781 62.359375 68.914062 C 61.519531 68.28125 61.003906 67.371094 60.480469 66.476562 C 59.355469 64.570312 58.515625 62.527344 57.546875 60.542969 C 55.492188 56.355469 53.472656 52.152344 51.417969 47.964844 C 49.359375 43.761719 47.625 39.449219 46.828125 34.804688 C 46.519531 33.011719 46.214844 31.214844 46.1875 29.402344 C 46.15625 27.515625 46.453125 25.648438 46.8125 23.789062 C 47.71875 19.132812 49.128906 14.613281 50.460938 10.070312 C 51.183594 7.609375 51.910156 5.152344 52.886719 2.777344 C 53.105469 2.25 53.304688 1.710938 53.59375 1.226562 C 54.269531 0.105469 55.261719 0.00390625 56.125 0.96875 C 56.550781 1.441406 56.917969 1.972656 57.261719 2.511719 C 58.445312 4.378906 59.691406 6.199219 61.019531 7.964844 C 63.640625 11.457031 65.753906 15.242188 67.445312 19.261719 C 67.582031 19.585938 67.683594 19.933594 67.929688 20.203125 C 67.957031 20.34375 67.960938 20.488281 68.007812 20.625 C 69.121094 24.050781 69.339844 27.597656 69.40625 31.160156 C 69.492188 36.011719 68.917969 40.820312 68.289062 45.617188 C 67.449219 52 66.277344 58.332031 65.472656 64.722656 C 65.445312 64.945312 65.304688 65.199219 65.566406 65.40625 C 65.914062 65.214844 65.996094 64.851562 66.15625 64.546875 C 67.210938 62.523438 68.035156 60.402344 68.734375 58.230469 C 69.953125 54.433594 70.847656 50.546875 71.761719 46.671875 C 73.203125 40.585938 74.019531 34.445312 73.90625 28.171875 C 73.832031 24.140625 73.144531 20.261719 71.753906 16.480469 C 70.378906 12.730469 68.390625 9.34375 65.871094 6.261719 C 65.046875 5.257812 64.039062 4.464844 62.757812 4.113281 C 62.1875 3.957031 62.011719 4.160156 62.207031 4.722656 C 62.5625 5.742188 63.164062 6.628906 63.769531 7.507812 C 65.597656 10.15625 67.042969 13.011719 68.265625 15.976562 C 69.785156 19.667969 71.144531 23.414062 71.710938 27.394531 C 71.890625 28.660156 72.097656 29.925781 72.023438 31.214844 C 72.003906 31.574219 71.972656 31.976562 71.535156 32.0625 C 71.0625 32.160156 70.824219 31.8125 70.652344 31.445312 C 70.390625 30.890625 70.316406 30.285156 70.269531 29.683594 C 70.09375 27.511719 69.675781 25.382812 69.089844 23.289062 C 68.789062 22.234375 68.519531 21.15625 67.921875 20.207031 Z M 92.644531 63.570312 C 93.660156 63.605469 94.675781 63.464844 95.679688 63.179688 C 98.734375 62.308594 101.683594 61.160156 104.53125 59.765625 C 111.0625 56.570312 117.101562 52.632812 122.460938 47.707031 C 124.957031 45.414062 127.234375 42.910156 129.128906 40.085938 C 131.710938 36.234375 133.164062 32.015625 133.027344 27.328125 C 132.972656 25.472656 132.636719 23.648438 132.085938 21.875 C 131.6875 20.585938 131.21875 19.3125 130.742188 18.046875 C 130.164062 16.511719 129.597656 16.332031 128.332031 17.3125 C 127.265625 18.140625 126.222656 19.007812 125.207031 19.898438 C 121.546875 23.121094 118.109375 26.589844 114.570312 29.941406 C 111.363281 32.976562 108.375 36.230469 105.269531 39.371094 C 101.089844 43.601562 97.015625 47.929688 93.230469 52.519531 C 91.441406 54.691406 89.71875 56.914062 87.976562 59.121094 C 87.714844 59.449219 87.386719 59.773438 87.476562 60.253906 C 87.722656 61.585938 88.285156 62.679688 89.675781 63.15625 C 90.636719 63.480469 91.613281 63.605469 92.644531 63.570312 Z M 55.109375 2.839844 C 54.652344 3.242188 54.59375 3.640625 54.449219 4 C 53.679688 5.914062 53.082031 7.890625 52.488281 9.867188 C 51.125 14.398438 49.75 18.925781 48.824219 23.574219 C 48.28125 26.28125 48.089844 29 48.394531 31.742188 C 49.019531 37.296875 50.855469 42.460938 53.339844 47.4375 C 55.726562 52.210938 58.019531 57.027344 60.363281 61.824219 C 60.9375 63.007812 61.523438 64.1875 62.132812 65.351562 C 62.386719 65.839844 62.628906 66.355469 63.089844 66.714844 C 63.390625 66.402344 63.355469 66.066406 63.394531 65.757812 C 63.5625 64.453125 63.707031 63.144531 63.898438 61.839844 C 64.683594 56.421875 65.5 51.007812 66.273438 45.585938 C 66.710938 42.488281 67.066406 39.371094 67.214844 36.25 C 67.367188 32.980469 67.367188 29.699219 67.019531 26.4375 C 66.824219 24.597656 66.566406 22.757812 65.875 21.027344 C 64.191406 16.8125 62.085938 12.828125 59.363281 9.183594 C 58.191406 7.613281 57.105469 5.988281 56.070312 4.324219 C 55.773438 3.84375 55.460938 3.378906 55.109375 2.839844 Z M 21.71875 45.5 C 21.316406 47.511719 21.394531 49.289062 21.355469 51.0625 C 21.257812 55.855469 22.75 60.195312 25.335938 64.144531 C 27.773438 67.867188 31.101562 70.714844 34.914062 72.96875 C 38.101562 74.847656 41.339844 76.644531 44.566406 78.460938 C 45.652344 79.070312 46.777344 79.605469 47.953125 80.03125 C 48.390625 80.191406 48.867188 80.378906 49.269531 80.035156 C 49.722656 79.644531 49.402344 79.175781 49.253906 78.753906 C 49.125 78.386719 48.953125 78.035156 48.78125 77.679688 C 47.820312 75.6875 46.644531 73.816406 45.300781 72.0625 C 42.484375 68.382812 39.375 64.949219 36.101562 61.679688 C 31.585938 57.171875 27.488281 52.296875 23.367188 47.4375 C 22.863281 46.847656 22.359375 46.257812 21.71875 45.5 Z M 49.859375 75.804688 C 50.007812 74 49.613281 71.277344 48.984375 69.265625 C 47.925781 65.882812 46.355469 62.726562 44.605469 59.664062 C 42.296875 55.617188 39.324219 52.070312 35.949219 48.875 C 34.023438 47.050781 31.777344 45.664062 29.414062 44.472656 C 28.777344 44.152344 28.113281 43.882812 27.402344 43.78125 C 26.671875 43.679688 26.476562 43.914062 26.6875 44.617188 C 26.945312 45.484375 27.453125 46.222656 27.972656 46.945312 C 29.941406 49.671875 32.296875 52.054688 34.757812 54.320312 C 37.035156 56.421875 39.195312 58.640625 41.371094 60.84375 C 41.714844 61.195312 42.011719 61.609375 42.277344 62.027344 C 42.480469 62.351562 42.707031 62.753906 42.320312 63.089844 C 41.96875 63.398438 41.582031 63.21875 41.230469 63.027344 C 40.753906 62.769531 40.367188 62.398438 39.988281 62.019531 C 37.441406 59.484375 34.910156 56.929688 32.15625 54.609375 C 31.988281 54.46875 31.863281 54.242188 31.433594 54.203125 C 32.378906 55.246094 33.1875 56.191406 34.050781 57.085938 C 36.792969 59.929688 39.582031 62.730469 42.195312 65.695312 C 44.457031 68.257812 46.792969 70.757812 48.570312 73.703125 C 48.953125 74.34375 49.347656 74.972656 49.859375 75.804688 Z M 49.859375 75.804688 " fill-opacity="1" fill-rule="nonzero"/></g></svg>