<svg xmlns="http://www.w3.org/2000/svg" xmlns:xlink="http://www.w3.org/1999/xlink" width="200" zoomAndPan="magnify" viewBox="0 0 150 149.999998" height="200" preserveAspectRatio="xMidYMid meet" version="1.0"><defs><clipPath id="e7599cb7d3"><path d="M 0.375 0.375 L 150 0.375 L 150 150 L 0.375 150 Z M 0.375 0.375 " clip-rule="nonzero"/></clipPath><clipPath id="cf93e7e06d"><path d="M 75.1875 0.375 C 33.871094 0.375 0.375 33.871094 0.375 75.1875 C 0.375 116.503906 33.871094 150 75.1875 150 C 116.503906 150 150 116.503906 150 75.1875 C 150 33.871094 116.503906 0.375 75.1875 0.375 Z M 75.1875 0.375 " clip-rule="nonzero"/></clipPath><clipPath id="2343b63c2c"><path d="M 13.101562 27.273438 L 137.601562 27.273438 L 137.601562 122.523438 L 13.101562 122.523438 Z M 13.101562 27.273438 " clip-rule="nonzero"/></clipPath></defs><g clip-path="url(#e7599cb7d3)"><g clip-path="url(#cf93e7e06d)"><path fill="#393f47" d="M 0.375 0.375 L 150 0.375 L 150 150 L 0.375 150 Z M 0.375 0.375 " fill-opacity="1" fill-rule="nonzero"/></g></g><g clip-path="url(#2343b63c2c)"><path fill="#ffffff" d="M 79.523438 28.65625 C 80.175781 28.679688 80.78125 28.734375 81.339844 28.816406 C 85.050781 29.355469 86.710938 31.152344 86.316406 34.203125 C 85.789062 35.082031 84.878906 35.871094 83.59375 36.570312 L 83.589844 36.570312 C 83.445312 36.609375 83.304688 36.648438 83.164062 36.691406 L 83.160156 36.691406 C 80.496094 36.695312 76.691406 37.703125 71.746094 39.714844 C 70.496094 39.570312 69.605469 38.859375 69.078125 37.570312 C 68.808594 32.769531 72.289062 29.796875 79.523438 28.65625 Z M 83.523438 37.996094 C 84.515625 38.042969 85.265625 38.28125 85.765625 38.71875 C 89.953125 43.046875 90.566406 47.347656 87.613281 51.625 C 84.996094 55.179688 81.433594 57.699219 76.917969 59.1875 C 73.707031 59.082031 71.730469 58.722656 70.996094 58.113281 C 70.953125 58.078125 70.90625 58.046875 70.859375 58.023438 C 69.035156 57.144531 67.980469 55.667969 67.691406 53.597656 L 67.6875 53.574219 C 67.167969 50.566406 68.675781 47.027344 72.214844 42.96875 C 72.25 42.925781 72.28125 42.882812 72.304688 42.832031 C 72.996094 41.496094 76.734375 39.882812 83.523438 37.996094 Z M 61.800781 58.085938 C 62.1875 58.085938 62.589844 58.101562 63 58.132812 C 63.019531 58.132812 63.035156 58.136719 63.054688 58.136719 C 63.09375 58.136719 63.136719 58.132812 63.175781 58.125 C 63.203125 58.121094 63.238281 58.117188 63.277344 58.117188 C 64.113281 58.117188 67.226562 58.996094 72.617188 60.753906 C 72.640625 60.761719 72.660156 60.765625 72.679688 60.769531 C 73.125 60.871094 73.625 60.921875 74.183594 60.921875 C 74.953125 60.921875 75.832031 60.824219 76.820312 60.636719 C 76.84375 60.632812 76.867188 60.625 76.894531 60.617188 C 76.96875 60.59375 77.046875 60.570312 77.121094 60.546875 C 77.679688 60.5625 78.269531 60.574219 78.890625 60.574219 C 80.039062 60.890625 81.1875 61.5 82.335938 62.40625 C 84.464844 64.183594 85.09375 66.183594 84.230469 68.402344 C 83.15625 70.507812 80.507812 72.472656 76.273438 74.296875 C 71.605469 75.332031 67.78125 76.28125 64.808594 77.140625 C 64.089844 77.167969 63.40625 77.179688 62.753906 77.179688 C 60.855469 77.179688 59.234375 77.074219 57.898438 76.859375 L 57.894531 76.855469 C 54.148438 76.289062 51.789062 74.085938 50.8125 70.246094 C 50.070312 65.519531 52.289062 61.777344 57.472656 59.015625 C 58.664062 58.394531 60.105469 58.085938 61.800781 58.085938 Z M 58.335938 92.703125 L 60.828125 93.398438 C 60.03125 93.410156 59.207031 93.425781 58.355469 93.441406 C 57.792969 93.242188 57.277344 93.027344 56.808594 92.796875 C 57.328125 92.753906 57.835938 92.722656 58.335938 92.703125 Z M 82.726562 76.542969 C 84.222656 76.542969 85.4375 76.753906 86.375 77.171875 C 91.316406 80.621094 93.03125 84.515625 91.519531 88.847656 L 91.515625 88.859375 C 90.640625 91.507812 87.121094 93.527344 80.964844 94.921875 C 79.929688 94.613281 78.925781 94.375 77.957031 94.210938 C 76.164062 93.664062 72.101562 93.382812 65.773438 93.367188 L 65.769531 93.367188 L 58.597656 91.371094 C 58.539062 91.355469 58.476562 91.347656 58.417969 91.347656 C 58.410156 91.347656 58.402344 91.347656 58.394531 91.347656 C 57.292969 91.382812 56.148438 91.476562 54.960938 91.636719 C 54.03125 90.863281 53.488281 89.980469 53.332031 88.988281 C 52.964844 86.449219 54.554688 83.910156 58.097656 81.375 C 58.164062 81.328125 58.222656 81.269531 58.269531 81.199219 C 58.714844 80.519531 60.914062 79.617188 64.867188 78.492188 C 69.402344 78.332031 75.199219 77.683594 82.261719 76.546875 C 82.417969 76.542969 82.574219 76.542969 82.726562 76.542969 Z M 70.953125 94.804688 C 74.113281 94.917969 76.28125 95.144531 77.453125 95.476562 C 77.128906 95.492188 76.800781 95.5 76.460938 95.5 C 75.132812 95.5 73.675781 95.375 72.089844 95.121094 Z M 54.582031 93.054688 C 55.496094 93.707031 56.640625 94.277344 58.019531 94.761719 C 58.09375 94.789062 58.167969 94.800781 58.246094 94.800781 C 58.25 94.800781 58.257812 94.800781 58.261719 94.800781 C 60.847656 94.746094 63.1875 94.71875 65.28125 94.71875 C 65.378906 94.71875 65.480469 94.71875 65.578125 94.71875 L 71.761719 96.4375 C 71.785156 96.445312 71.808594 96.449219 71.835938 96.453125 C 73.503906 96.722656 75.046875 96.855469 76.460938 96.855469 C 77.46875 96.855469 78.414062 96.789062 79.292969 96.652344 L 79.316406 96.648438 C 79.863281 96.542969 80.394531 96.433594 80.910156 96.320312 C 83.488281 97.121094 86.289062 98.386719 89.3125 100.109375 L 89.324219 100.117188 C 96.042969 103.792969 98.160156 108.40625 95.671875 113.960938 C 95.660156 113.972656 95.652344 113.988281 95.644531 114 C 95.632812 114 95.625 114 95.613281 114 C 92.378906 114 83.65625 114.652344 69.441406 115.960938 C 63.207031 115.011719 57.523438 114.074219 52.398438 113.144531 C 49.460938 111.554688 47.027344 109.492188 45.097656 106.964844 L 45.09375 106.964844 C 44.675781 106.203125 44.320312 105.472656 44.027344 104.773438 C 41.972656 99.863281 43.105469 96.496094 47.425781 94.671875 L 47.421875 94.671875 C 49.972656 93.921875 52.359375 93.382812 54.582031 93.054688 Z M 58.53125 115.589844 C 60.144531 115.863281 61.804688 116.132812 63.511719 116.40625 C 62.394531 116.402344 61.445312 116.304688 60.664062 116.121094 L 60.65625 116.117188 C 59.929688 115.960938 59.21875 115.785156 58.53125 115.589844 Z M 94.351562 115.347656 C 92.261719 116.9375 88.667969 117.730469 83.570312 117.730469 C 82.820312 117.730469 82.039062 117.714844 81.222656 117.679688 C 79.136719 117.386719 77.097656 117.097656 75.113281 116.808594 C 84.773438 115.945312 91.1875 115.457031 94.351562 115.347656 Z M 79.484375 27.296875 C 79.449219 27.296875 79.414062 27.300781 79.378906 27.304688 C 71.230469 28.578125 67.351562 32.0625 67.730469 37.761719 C 67.734375 37.832031 67.75 37.898438 67.773438 37.960938 C 68.523438 39.894531 69.863281 40.933594 71.796875 41.082031 C 71.816406 41.082031 71.832031 41.082031 71.847656 41.082031 C 71.9375 41.082031 72.023438 41.066406 72.105469 41.03125 C 72.167969 41.007812 72.230469 40.980469 72.292969 40.957031 C 71.746094 41.359375 71.359375 41.75 71.140625 42.136719 C 67.359375 46.496094 65.761719 50.386719 66.351562 53.804688 C 66.601562 55.554688 67.296875 56.960938 68.445312 58.019531 C 65.65625 57.1875 63.894531 56.769531 63.164062 56.769531 C 63.117188 56.769531 63.074219 56.773438 63.035156 56.777344 C 62.613281 56.746094 62.203125 56.730469 61.804688 56.730469 C 59.886719 56.730469 58.234375 57.089844 56.84375 57.8125 L 56.839844 57.816406 C 51.078125 60.882812 48.621094 65.105469 49.476562 70.480469 C 49.480469 70.5 49.484375 70.519531 49.488281 70.539062 C 50.605469 74.984375 53.339844 77.539062 57.691406 78.199219 C 58.566406 78.335938 59.558594 78.433594 60.660156 78.484375 C 58.820312 79.175781 57.675781 79.792969 57.222656 80.335938 C 53.292969 83.171875 51.546875 86.121094 51.988281 89.179688 L 51.992188 89.1875 C 52.148438 90.1875 52.578125 91.085938 53.28125 91.890625 C 51.304688 92.234375 49.210938 92.730469 47.003906 93.382812 C 46.980469 93.390625 46.960938 93.398438 46.9375 93.40625 C 41.753906 95.578125 40.367188 99.539062 42.777344 105.296875 C 43.09375 106.050781 43.480469 106.839844 43.929688 107.65625 C 43.945312 107.6875 43.964844 107.714844 43.984375 107.742188 C 45.355469 109.546875 46.964844 111.125 48.8125 112.480469 C 43.535156 111.480469 38.914062 110.492188 34.945312 109.515625 C 34.933594 109.511719 34.917969 109.511719 34.902344 109.507812 C 33.601562 109.277344 32.328125 109.164062 31.082031 109.164062 C 30.6875 109.164062 30.296875 109.175781 29.910156 109.195312 L 29.894531 109.199219 C 21.707031 109.863281 16.175781 112.4375 13.296875 116.917969 C 13.09375 117.234375 13.183594 117.652344 13.5 117.855469 C 13.613281 117.929688 13.738281 117.964844 13.863281 117.964844 C 14.089844 117.964844 14.308594 117.851562 14.4375 117.652344 C 17.070312 113.546875 22.257812 111.179688 29.996094 110.550781 C 30.355469 110.527344 30.71875 110.519531 31.082031 110.519531 C 32.242188 110.519531 33.429688 110.625 34.648438 110.839844 C 39.457031 112.019531 45.21875 113.21875 51.941406 114.4375 C 54.417969 115.757812 57.226562 116.757812 60.367188 117.441406 C 61.277344 117.65625 62.378906 117.765625 63.660156 117.765625 C 64.15625 117.765625 64.675781 117.746094 65.222656 117.714844 L 65.25 117.714844 C 66.683594 117.578125 68.066406 117.449219 69.398438 117.328125 L 69.402344 117.328125 C 73.097656 117.890625 76.984375 118.457031 81.066406 119.027344 C 81.089844 119.03125 81.109375 119.03125 81.132812 119.03125 C 81.953125 119.066406 82.746094 119.085938 83.507812 119.085938 C 89.875 119.085938 94.132812 117.855469 96.277344 115.398438 C 96.386719 115.503906 96.527344 115.574219 96.6875 115.585938 C 98.40625 115.742188 99.894531 116.042969 101.148438 116.488281 L 101.144531 116.488281 C 109.9375 120.605469 115.328125 122.664062 117.328125 122.664062 C 117.503906 122.664062 117.65625 122.648438 117.78125 122.617188 L 117.777344 122.617188 C 124.988281 122.492188 131.386719 119.746094 136.96875 114.386719 C 137.238281 114.128906 137.25 113.699219 136.988281 113.429688 C 136.855469 113.289062 136.679688 113.21875 136.5 113.21875 C 136.332031 113.21875 136.164062 113.28125 136.03125 113.410156 C 130.675781 118.546875 124.550781 121.167969 117.65625 121.261719 C 117.566406 121.261719 117.480469 121.28125 117.398438 121.316406 C 117.320312 121.34375 117.214844 121.359375 117.082031 121.359375 C 115.515625 121.359375 110.386719 119.320312 101.6875 115.246094 C 101.667969 115.238281 101.648438 115.230469 101.628906 115.222656 C 100.386719 114.777344 98.945312 114.464844 97.3125 114.285156 L 97.308594 114.285156 C 97.246094 114.226562 97.167969 114.179688 97.074219 114.136719 C 99.644531 107.996094 97.28125 102.929688 89.984375 98.933594 C 87.640625 97.59375 85.417969 96.527344 83.320312 95.722656 C 88.714844 94.21875 91.875 92.074219 92.800781 89.296875 C 94.542969 84.296875 92.640625 79.871094 87.097656 76.023438 C 87.0625 76 87.03125 75.980469 86.992188 75.964844 C 85.871094 75.445312 84.445312 75.1875 82.71875 75.1875 C 82.542969 75.1875 82.363281 75.1875 82.175781 75.195312 C 82.148438 75.195312 82.117188 75.199219 82.089844 75.203125 C 78.605469 75.765625 75.433594 76.207031 72.578125 76.527344 C 73.84375 76.230469 75.195312 75.925781 76.632812 75.605469 C 76.675781 75.597656 76.714844 75.582031 76.753906 75.566406 C 81.347656 73.59375 84.25 71.394531 85.460938 68.972656 C 85.46875 68.953125 85.476562 68.9375 85.484375 68.917969 C 86.601562 66.078125 85.835938 63.554688 83.191406 61.351562 L 83.175781 61.339844 C 82.101562 60.492188 81.011719 59.871094 79.914062 59.480469 C 83.511719 57.855469 86.449219 55.5 88.714844 52.410156 L 88.726562 52.394531 C 92.109375 47.5 91.4375 42.617188 86.710938 37.746094 C 86.699219 37.734375 86.6875 37.71875 86.671875 37.707031 C 86.335938 37.414062 85.925781 37.183594 85.445312 37.015625 C 86.390625 36.339844 87.097656 35.585938 87.5625 34.753906 C 87.601562 34.683594 87.628906 34.605469 87.640625 34.523438 C 88.226562 30.5 86.191406 28.152344 81.535156 27.476562 C 80.910156 27.382812 80.234375 27.324219 79.507812 27.296875 C 79.5 27.296875 79.492188 27.296875 79.484375 27.296875 Z M 79.484375 27.296875 " fill-opacity="1" fill-rule="nonzero"/></g></svg>