<svg xmlns="http://www.w3.org/2000/svg" xmlns:xlink="http://www.w3.org/1999/xlink" width="200" zoomAndPan="magnify" viewBox="0 0 150 149.999998" height="200" preserveAspectRatio="xMidYMid meet" version="1.0"><defs><clipPath id="3a5f6ffe37"><path d="M 0.375 0.375 L 150 0.375 L 150 150 L 0.375 150 Z M 0.375 0.375 " clip-rule="nonzero"/></clipPath><clipPath id="bdda7504f9"><path d="M 75.1875 0.375 C 33.871094 0.375 0.375 33.871094 0.375 75.1875 C 0.375 116.503906 33.871094 150 75.1875 150 C 116.503906 150 150 116.503906 150 75.1875 C 150 33.871094 116.503906 0.375 75.1875 0.375 Z M 75.1875 0.375 " clip-rule="nonzero"/></clipPath><clipPath id="25737116fe"><path d="M 43 95 L 108 95 L 108 118.84375 L 43 118.84375 Z M 43 95 " clip-rule="nonzero"/></clipPath><clipPath id="97c2b7f250"><path d="M 64 31.84375 L 83 31.84375 L 83 40 L 64 40 Z M 64 31.84375 " clip-rule="nonzero"/></clipPath></defs><g clip-path="url(#3a5f6ffe37)"><g clip-path="url(#bdda7504f9)"><path fill="#393f47" d="M 0.375 0.375 L 150 0.375 L 150 150 L 0.375 150 Z M 0.375 0.375 " fill-opacity="1" fill-rule="nonzero"/></g></g><g clip-path="url(#25737116fe)"><path fill="#9e8169" d="M 69.195312 95.191406 L 68.910156 95.199219 C 60.378906 95.539062 53.34375 96.816406 47.8125 99.03125 C 43.972656 100.488281 42.652344 102.476562 43.847656 105 C 44.09375 106.214844 45.5 108.144531 48.066406 110.789062 C 50.363281 112.894531 52.964844 114.535156 55.871094 115.714844 C 58.5625 116.765625 61.675781 117.507812 65.210938 117.945312 C 69.535156 118.535156 73.652344 118.765625 77.5625 118.628906 C 82.074219 118.472656 86.304688 117.9375 90.253906 117.015625 C 94.703125 115.839844 97.792969 114.707031 99.523438 113.617188 C 101.878906 112.363281 103.800781 110.773438 105.292969 108.839844 C 107.113281 106.152344 107.648438 104.117188 106.894531 102.738281 C 106.726562 102.269531 106.472656 101.871094 106.136719 101.546875 C 105.476562 100.941406 104.730469 100.460938 103.902344 100.105469 C 103.304688 99.703125 100.4375 98.960938 95.292969 97.886719 C 85.9375 96.132812 77.238281 95.234375 69.195312 95.191406 " fill-opacity="1" fill-rule="nonzero"/></g><path fill="#637281" d="M 55.542969 80.164062 L 55.449219 80.179688 C 52.070312 80.769531 50.339844 82.09375 50.253906 84.152344 C 50.644531 87.132812 52.601562 89.347656 56.128906 90.796875 C 58.40625 91.707031 60.761719 92.394531 63.195312 92.863281 C 63.910156 93.035156 66.433594 93.476562 70.761719 94.195312 C 72.761719 94.519531 74.765625 94.808594 76.777344 95.054688 C 78.785156 95.304688 80.800781 95.5 82.820312 95.644531 C 85.34375 95.796875 86.859375 95.871094 87.367188 95.863281 C 89.742188 95.933594 91.890625 95.820312 93.816406 95.523438 C 97.921875 94.917969 101.332031 92.933594 104.046875 89.566406 C 106.277344 86.527344 105.925781 84.304688 102.992188 82.90625 C 101.40625 82.3125 99.511719 81.882812 97.308594 81.617188 C 91.097656 80.898438 85.910156 80.433594 81.742188 80.214844 C 77.835938 79.949219 72.367188 79.792969 65.328125 79.75 C 61.242188 79.726562 57.980469 79.863281 55.542969 80.164062 " fill-opacity="1" fill-rule="nonzero"/><path fill="#ba908e" d="M 58.871094 78.089844 L 59.070312 78.128906 C 63.1875 78.9375 69.496094 79.128906 77.996094 78.703125 C 83.066406 78.320312 86.179688 77.988281 87.34375 77.707031 C 88.929688 77.445312 90.453125 76.90625 91.910156 76.085938 C 92.382812 75.75 92.808594 75.339844 93.179688 74.855469 C 93.433594 74.671875 93.875 73.839844 94.503906 72.363281 C 95.152344 70.425781 95.261719 68.5625 94.835938 66.777344 C 94.316406 64.96875 93.546875 63.664062 92.519531 62.863281 C 91.992188 62.433594 91.191406 62.007812 90.121094 61.585938 C 89.894531 61.460938 89.144531 61.261719 87.871094 60.984375 C 86.542969 60.726562 84.714844 60.613281 82.394531 60.640625 L 74.761719 60.730469 L 72.59375 60.804688 C 71.136719 60.863281 69.691406 60.976562 68.246094 61.136719 C 66.804688 61.296875 65.386719 61.53125 63.996094 61.839844 L 61.945312 62.375 C 60.597656 62.777344 59.304688 63.285156 58.074219 63.902344 L 56.28125 64.933594 C 54.785156 65.980469 54.050781 66.570312 54.074219 66.703125 C 53.753906 67.105469 53.496094 67.558594 53.304688 68.074219 C 52.886719 68.835938 52.789062 70.246094 53.011719 72.3125 C 53.644531 75.339844 55.597656 77.265625 58.871094 78.089844 " fill-opacity="1" fill-rule="nonzero"/><path fill="#bed8d4" d="M 59.042969 52.660156 L 58.945312 52.707031 C 56.996094 53.792969 56.269531 55.289062 56.753906 57.203125 C 57.058594 58.253906 57.617188 59.117188 58.417969 59.789062 C 58.742188 60.132812 59.515625 60.449219 60.746094 60.726562 C 61.703125 60.914062 62.832031 60.964844 64.136719 60.882812 C 69.09375 60.480469 72.238281 60.175781 73.566406 59.972656 C 75.421875 59.746094 78.019531 59.335938 81.359375 58.742188 C 82.160156 58.582031 82.945312 58.378906 83.71875 58.128906 C 84.007812 58.046875 84.484375 57.859375 85.144531 57.558594 C 86.992188 56.320312 87.527344 54.929688 86.75 53.390625 C 86.277344 52.632812 85.554688 52.027344 84.574219 51.570312 C 83.597656 51.117188 82.578125 50.804688 81.519531 50.636719 C 79.144531 50.339844 75.28125 50.40625 69.933594 50.832031 C 66.929688 51.121094 64.695312 51.390625 63.222656 51.640625 C 62.0625 51.796875 60.667969 52.136719 59.042969 52.660156 " fill-opacity="1" fill-rule="nonzero"/><path fill="#e0a79a" d="M 84.972656 50.175781 L 84.832031 50.1875 C 83.230469 50.363281 81.703125 50.402344 80.242188 50.304688 C 77.152344 50.128906 74.65625 49.921875 72.753906 49.683594 C 70.558594 49.433594 68.375 49.085938 66.210938 48.644531 C 64.128906 48.226562 62.796875 47.855469 62.222656 47.523438 C 61.542969 47.242188 60.96875 46.722656 60.5 45.964844 C 60.210938 45.3125 60.074219 44.828125 60.089844 44.507812 C 60.0625 44.101562 60.109375 43.714844 60.238281 43.355469 C 60.648438 42 62.058594 41.164062 64.46875 40.851562 C 64.902344 40.804688 65.347656 40.773438 65.796875 40.761719 C 66.378906 40.742188 67.09375 40.75 67.941406 40.785156 C 71.097656 40.9375 73.480469 41.105469 75.089844 41.289062 C 75.773438 41.339844 78.074219 41.628906 81.984375 42.160156 C 83.457031 42.425781 84.472656 42.703125 85.027344 42.992188 C 85.820312 43.28125 86.488281 43.789062 87.035156 44.515625 C 87.570312 45.3125 87.839844 46.183594 87.84375 47.121094 C 87.882812 47.691406 87.664062 48.257812 87.191406 48.816406 C 86.839844 49.195312 86.101562 49.644531 84.972656 50.175781 " fill-opacity="1" fill-rule="nonzero"/><g clip-path="url(#97c2b7f250)"><path fill="#f4d2b8" d="M 80.320312 38.820312 L 80.34375 38.800781 C 81.160156 38.234375 81.710938 37.765625 82 37.390625 C 82.167969 37.160156 82.320312 36.886719 82.453125 36.574219 C 82.746094 35.75 82.886719 35.238281 82.878906 35.042969 C 82.988281 34.304688 82.941406 33.660156 82.730469 33.105469 C 82.625 32.835938 82.464844 32.625 82.253906 32.46875 C 82.046875 32.332031 81.773438 32.226562 81.433594 32.160156 C 80.660156 31.972656 79.875 31.882812 79.078125 31.890625 C 78.425781 31.859375 77.328125 31.976562 75.78125 32.246094 C 75.335938 32.332031 74.894531 32.425781 74.453125 32.523438 C 72.5 32.984375 70.957031 33.332031 69.816406 33.558594 C 69.332031 33.667969 68.847656 33.796875 68.355469 33.941406 C 67.347656 34.226562 66.472656 34.628906 65.726562 35.144531 C 65.363281 35.410156 65.074219 35.710938 64.851562 36.050781 L 64.585938 36.597656 C 64.457031 37.097656 64.417969 37.417969 64.476562 37.554688 C 64.636719 38.429688 65.484375 39.128906 67.015625 39.652344 C 68.6875 39.957031 71 40.023438 73.957031 39.855469 C 75.613281 39.742188 76.917969 39.609375 77.878906 39.449219 C 78.394531 39.363281 78.71875 39.300781 78.855469 39.257812 C 79.164062 39.183594 79.652344 39.035156 80.320312 38.820312 " fill-opacity="1" fill-rule="nonzero"/></g></svg>