<svg xmlns="http://www.w3.org/2000/svg" xmlns:xlink="http://www.w3.org/1999/xlink" width="200" zoomAndPan="magnify" viewBox="0 0 150 149.999998" height="200" preserveAspectRatio="xMidYMid meet" version="1.0"><defs><clipPath id="ecd981a017"><path d="M 0.28125 0 L 149.53125 0 L 149.53125 150 L 0.28125 150 Z M 0.28125 0 " clip-rule="nonzero"/></clipPath></defs><rect x="-15" width="180" fill="#ffffff" y="-15" height="179.999997" fill-opacity="1"/><rect x="-15" width="180" fill="#ffffff" y="-15" height="179.999997" fill-opacity="1"/><g clip-path="url(#ecd981a017)"><path fill="#ffffff" d="M 149.414062 76.324219 C 149.445312 76.78125 149.476562 77.296875 149.4375 77.882812 C 149.398438 78.480469 149.285156 79.015625 149.195312 79.449219 C 149.140625 79.710938 149.089844 79.953125 149.074219 80.121094 L 149.039062 80.523438 C 148.984375 81.125 148.925781 81.742188 148.851562 82.371094 C 148.785156 82.917969 148.675781 83.40625 148.574219 83.839844 C 148.511719 84.117188 148.453125 84.378906 148.417969 84.59375 C 148.40625 84.6875 148.410156 84.941406 148.414062 85.148438 C 148.421875 85.617188 148.433594 86.203125 148.320312 86.863281 C 148.191406 87.609375 148.046875 88.339844 147.898438 89.089844 C 147.796875 89.59375 147.679688 90.070312 147.566406 90.535156 C 147.5 90.789062 147.441406 91.039062 147.382812 91.292969 C 147.253906 91.875 147.105469 92.441406 146.964844 92.988281 L 146.835938 93.484375 C 146.710938 93.972656 146.570312 94.425781 146.429688 94.863281 C 146.351562 95.125 146.265625 95.386719 146.191406 95.652344 L 146.089844 96.003906 C 145.921875 96.59375 145.75 97.203125 145.558594 97.824219 C 145.507812 97.984375 145.460938 98.230469 145.410156 98.496094 C 145.328125 98.929688 145.226562 99.46875 145.03125 100.035156 C 144.84375 100.574219 144.621094 101.039062 144.425781 101.441406 C 144.308594 101.695312 144.191406 101.929688 144.121094 102.117188 C 144.046875 102.320312 143.972656 102.582031 143.890625 102.855469 C 143.765625 103.28125 143.628906 103.765625 143.421875 104.277344 C 143.175781 104.886719 142.863281 105.375 142.617188 105.769531 C 142.496094 105.953125 142.363281 106.167969 142.320312 106.269531 C 142.207031 106.519531 142.109375 106.777344 142.007812 107.03125 C 141.835938 107.457031 141.660156 107.894531 141.441406 108.359375 C 141.347656 108.558594 141.253906 108.765625 141.160156 108.964844 C 140.945312 109.433594 140.71875 109.917969 140.472656 110.40625 C 140.210938 110.921875 139.925781 111.347656 139.675781 111.722656 C 139.523438 111.953125 139.375 112.167969 139.28125 112.34375 C 139.160156 112.5625 139.039062 112.808594 138.910156 113.070312 C 138.71875 113.464844 138.503906 113.910156 138.238281 114.359375 C 138.136719 114.535156 138.027344 114.773438 137.90625 115.027344 C 137.714844 115.433594 137.496094 115.898438 137.191406 116.382812 C 137.074219 116.570312 136.949219 116.808594 136.816406 117.0625 C 136.609375 117.457031 136.375 117.90625 136.066406 118.367188 C 135.679688 118.945312 135.25 119.371094 134.902344 119.710938 C 134.773438 119.839844 134.59375 120.015625 134.542969 120.082031 C 134.453125 120.203125 134.339844 120.417969 134.21875 120.644531 C 134.007812 121.042969 133.742188 121.542969 133.359375 122.039062 C 133.21875 122.226562 133.070312 122.449219 132.90625 122.691406 C 132.660156 123.0625 132.378906 123.480469 132.035156 123.90625 C 131.636719 124.394531 131.214844 124.773438 130.875 125.078125 C 130.683594 125.25 130.503906 125.410156 130.40625 125.519531 C 130.046875 125.9375 129.6875 126.3125 129.339844 126.679688 C 129.179688 126.851562 129.015625 127.023438 128.855469 127.191406 C 128.496094 127.585938 128.132812 127.9375 127.78125 128.277344 C 127.601562 128.453125 127.421875 128.628906 127.242188 128.804688 C 126.867188 129.191406 126.480469 129.515625 126.140625 129.804688 C 125.921875 129.992188 125.71875 130.164062 125.542969 130.328125 C 125.414062 130.449219 125.25 130.644531 125.074219 130.851562 C 124.78125 131.199219 124.414062 131.632812 123.945312 132.042969 C 123.539062 132.398438 123.128906 132.714844 122.761719 132.992188 C 122.546875 133.15625 122.328125 133.320312 122.117188 133.492188 C 121.949219 133.625 121.757812 133.816406 121.550781 134.011719 C 121.21875 134.335938 120.835938 134.699219 120.378906 135.050781 C 119.847656 135.457031 119.320312 135.726562 118.894531 135.941406 C 118.679688 136.050781 118.457031 136.164062 118.355469 136.234375 C 118.164062 136.371094 117.953125 136.542969 117.722656 136.726562 C 117.371094 137.011719 116.96875 137.335938 116.503906 137.644531 C 116.304688 137.777344 116.105469 137.914062 115.90625 138.050781 C 115.480469 138.339844 115.039062 138.636719 114.566406 138.933594 C 114.441406 139.007812 114.246094 139.167969 114.050781 139.328125 C 113.6875 139.625 113.238281 139.992188 112.675781 140.316406 C 112.1875 140.59375 111.714844 140.804688 111.296875 140.988281 C 111.027344 141.105469 110.773438 141.21875 110.570312 141.324219 C 110.070312 141.589844 109.582031 141.820312 109.113281 142.046875 C 108.902344 142.144531 108.691406 142.246094 108.480469 142.347656 C 107.863281 142.652344 107.246094 142.925781 106.648438 143.195312 L 106.371094 143.320312 C 106.117188 143.433594 105.871094 143.554688 105.625 143.675781 C 105.199219 143.886719 104.757812 144.101562 104.265625 144.308594 L 104.167969 144.347656 C 103.5 144.625 102.8125 144.90625 102.105469 145.175781 C 101.460938 145.417969 100.765625 145.664062 99.917969 145.957031 C 99.300781 146.167969 98.726562 146.257812 98.261719 146.335938 C 98.019531 146.375 97.769531 146.414062 97.636719 146.453125 C 97.371094 146.535156 97.109375 146.625 96.847656 146.714844 C 96.402344 146.867188 95.9375 147.027344 95.433594 147.164062 C 95.277344 147.207031 95.039062 147.304688 94.792969 147.410156 C 94.371094 147.582031 93.84375 147.796875 93.238281 147.945312 C 92.570312 148.105469 91.96875 148.132812 91.488281 148.15625 C 91.277344 148.164062 91.015625 148.175781 90.914062 148.199219 C 90.398438 148.304688 89.917969 148.378906 89.449219 148.445312 C 89.179688 148.488281 88.90625 148.527344 88.632812 148.574219 C 88.015625 148.6875 87.417969 148.773438 86.835938 148.855469 L 86.347656 148.929688 C 86.128906 148.960938 85.867188 149.023438 85.585938 149.089844 C 85.140625 149.191406 84.636719 149.308594 84.070312 149.375 C 83.394531 149.457031 82.683594 149.527344 81.765625 149.609375 C 81.597656 149.625 81.347656 149.675781 81.078125 149.734375 C 80.636719 149.824219 80.085938 149.941406 79.464844 149.976562 C 78.925781 150.007812 78.417969 149.992188 77.96875 149.980469 C 77.671875 149.976562 77.390625 149.96875 77.140625 149.972656 C 76.519531 149.992188 75.960938 149.921875 75.511719 149.867188 C 75.246094 149.835938 74.992188 149.804688 74.824219 149.804688 C 74.824219 149.804688 74.820312 149.804688 74.820312 149.804688 C 74.683594 149.804688 74.4375 149.839844 74.195312 149.875 C 73.785156 149.929688 73.289062 150 72.726562 150 C 72.652344 150 72.578125 150 72.5 149.996094 C 72.226562 149.988281 71.949219 149.984375 71.675781 149.984375 C 71.195312 149.980469 70.703125 149.980469 70.175781 149.941406 C 69.386719 149.890625 68.734375 149.667969 68.257812 149.503906 C 68.125 149.460938 67.945312 149.398438 67.863281 149.378906 C 67.734375 149.375 67.496094 149.386719 67.285156 149.394531 C 66.8125 149.417969 66.222656 149.449219 65.554688 149.363281 C 64.945312 149.285156 64.359375 149.1875 63.789062 149.089844 L 63.261719 149.003906 C 62.6875 148.910156 62.183594 148.765625 61.738281 148.640625 C 61.464844 148.5625 61.207031 148.488281 61 148.449219 C 60.851562 148.421875 60.605469 148.40625 60.347656 148.390625 C 59.882812 148.359375 59.308594 148.324219 58.679688 148.179688 C 58.050781 148.03125 57.511719 147.808594 57.082031 147.632812 C 56.855469 147.539062 56.617188 147.441406 56.476562 147.402344 C 56.390625 147.382812 56.128906 147.359375 55.945312 147.34375 C 55.457031 147.300781 54.847656 147.25 54.175781 147.046875 C 53.464844 146.832031 52.890625 146.5 52.472656 146.257812 C 52.332031 146.171875 52.136719 146.058594 52.0625 146.027344 C 51.300781 145.773438 50.546875 145.496094 49.90625 145.257812 L 49.441406 145.085938 C 48.894531 144.886719 48.328125 144.675781 47.753906 144.441406 C 47.652344 144.398438 47.410156 144.34375 47.191406 144.292969 C 46.726562 144.183594 46.152344 144.046875 45.535156 143.773438 C 44.992188 143.535156 44.546875 143.261719 44.152344 143.019531 C 43.914062 142.875 43.6875 142.738281 43.511719 142.65625 C 43.324219 142.5625 43.070312 142.46875 42.808594 142.367188 C 42.382812 142.203125 41.894531 142.019531 41.390625 141.75 C 40.78125 141.433594 40.3125 141.054688 39.933594 140.753906 C 39.785156 140.628906 39.578125 140.464844 39.492188 140.417969 C 39.273438 140.292969 39.023438 140.171875 38.761719 140.039062 C 38.367188 139.839844 37.914062 139.617188 37.460938 139.339844 C 37.355469 139.277344 37.125 139.179688 36.90625 139.089844 C 36.46875 138.90625 35.929688 138.683594 35.378906 138.328125 C 34.917969 138.03125 34.519531 137.71875 34.167969 137.445312 C 33.9375 137.265625 33.71875 137.09375 33.519531 136.957031 C 33.085938 136.660156 32.6875 136.355469 32.300781 136.066406 C 32.089844 135.90625 31.882812 135.746094 31.671875 135.589844 C 31.558594 135.507812 31.332031 135.386719 31.117188 135.269531 C 30.707031 135.050781 30.199219 134.777344 29.695312 134.382812 C 29.273438 134.054688 28.886719 133.726562 28.511719 133.40625 C 28.316406 133.238281 28.121094 133.074219 27.921875 132.910156 C 27.515625 132.574219 27.152344 132.230469 26.828125 131.921875 C 26.625 131.730469 26.421875 131.539062 26.214844 131.355469 C 25.757812 130.953125 25.394531 130.527344 25.101562 130.1875 C 24.929688 129.980469 24.761719 129.785156 24.636719 129.671875 C 24.546875 129.585938 24.335938 129.441406 24.148438 129.3125 C 23.761719 129.050781 23.277344 128.714844 22.808594 128.253906 C 22.640625 128.089844 22.46875 127.925781 22.296875 127.757812 C 21.929688 127.402344 21.546875 127.035156 21.167969 126.632812 C 20.675781 126.117188 20.355469 125.59375 20.097656 125.171875 C 20.003906 125.019531 19.875 124.804688 19.816406 124.738281 C 19.632812 124.539062 19.441406 124.335938 19.25 124.140625 C 18.941406 123.820312 18.589844 123.457031 18.25 123.058594 C 17.886719 122.628906 17.554688 122.207031 17.234375 121.796875 C 17.09375 121.621094 16.957031 121.441406 16.816406 121.261719 C 16.683594 121.097656 16.5 120.902344 16.300781 120.695312 C 15.988281 120.367188 15.632812 119.992188 15.289062 119.53125 C 14.972656 119.113281 14.707031 118.707031 14.449219 118.316406 C 14.296875 118.085938 14.148438 117.855469 13.988281 117.628906 C 13.910156 117.519531 13.738281 117.332031 13.570312 117.15625 C 13.25 116.816406 12.855469 116.394531 12.5 115.855469 C 12.132812 115.300781 11.789062 114.742188 11.453125 114.203125 L 11.167969 113.738281 C 10.808594 113.152344 10.433594 112.546875 10.070312 111.917969 C 9.785156 111.425781 9.578125 110.949219 9.394531 110.527344 C 9.28125 110.265625 9.171875 110.019531 9.074219 109.828125 C 8.777344 109.277344 8.589844 108.738281 8.4375 108.3125 C 8.351562 108.0625 8.265625 107.828125 8.199219 107.6875 C 8.15625 107.605469 8.003906 107.394531 7.886719 107.242188 C 7.601562 106.847656 7.242188 106.359375 6.949219 105.722656 C 6.6875 105.152344 6.535156 104.605469 6.410156 104.167969 C 6.335938 103.910156 6.273438 103.671875 6.207031 103.523438 C 6 103.03125 5.828125 102.550781 5.664062 102.089844 C 5.574219 101.847656 5.488281 101.605469 5.394531 101.363281 C 5.308594 101.132812 5.199219 100.882812 5.078125 100.613281 C 4.898438 100.199219 4.695312 99.734375 4.515625 99.226562 C 4.335938 98.695312 4.21875 98.199219 4.121094 97.757812 C 4.058594 97.480469 4 97.21875 3.933594 97.015625 C 3.910156 96.953125 3.804688 96.75 3.726562 96.605469 C 3.5 96.1875 3.191406 95.613281 3 94.910156 C 2.863281 94.40625 2.757812 93.925781 2.65625 93.460938 C 2.601562 93.199219 2.546875 92.941406 2.484375 92.683594 C 2.351562 92.136719 2.289062 91.632812 2.230469 91.1875 C 2.195312 90.90625 2.164062 90.640625 2.117188 90.433594 C 2.074219 90.214844 1.996094 89.953125 1.917969 89.679688 C 1.796875 89.25 1.660156 88.765625 1.5625 88.222656 C 1.519531 87.980469 1.457031 87.714844 1.390625 87.425781 C 1.292969 86.996094 1.183594 86.511719 1.105469 85.988281 C 1.066406 85.726562 1.023438 85.464844 0.976562 85.203125 C 0.898438 84.734375 0.816406 84.25 0.757812 83.734375 C 0.671875 83.007812 0.742188 82.363281 0.796875 81.890625 C 0.816406 81.726562 0.84375 81.503906 0.839844 81.421875 C 0.820312 81.191406 0.792969 80.945312 0.769531 80.699219 C 0.71875 80.214844 0.664062 79.710938 0.636719 79.179688 C 0.625 78.972656 0.585938 78.714844 0.542969 78.433594 C 0.476562 77.988281 0.402344 77.484375 0.382812 76.914062 C 0.363281 76.390625 0.367188 75.886719 0.375 75.398438 C 0.378906 75.148438 0.382812 74.890625 0.378906 74.640625 C 0.375 74.113281 0.414062 73.625 0.445312 73.1875 C 0.46875 72.894531 0.492188 72.617188 0.496094 72.371094 C 0.507812 71.828125 0.566406 71.332031 0.621094 70.898438 C 0.65625 70.609375 0.691406 70.339844 0.699219 70.113281 C 0.707031 69.929688 0.695312 69.671875 0.679688 69.398438 C 0.65625 68.941406 0.632812 68.425781 0.679688 67.839844 C 0.726562 67.238281 0.847656 66.699219 0.945312 66.273438 C 1.003906 66.015625 1.058594 65.769531 1.078125 65.601562 C 1.09375 65.425781 1.09375 65.171875 1.09375 64.902344 C 1.09375 64.464844 1.09375 63.921875 1.171875 63.328125 C 1.203125 63.105469 1.222656 62.835938 1.238281 62.546875 C 1.265625 62.105469 1.296875 61.601562 1.390625 61.0625 C 1.484375 60.472656 1.648438 59.949219 1.777344 59.527344 C 1.859375 59.269531 1.933594 59.027344 1.96875 58.855469 C 2.070312 58.328125 2.210938 57.847656 2.332031 57.429688 C 2.40625 57.164062 2.480469 56.917969 2.53125 56.699219 C 2.539062 56.617188 2.535156 56.4375 2.53125 56.304688 C 2.523438 55.808594 2.511719 55.121094 2.707031 54.359375 C 2.878906 53.691406 3.140625 53.152344 3.351562 52.71875 C 3.433594 52.550781 3.546875 52.320312 3.574219 52.234375 C 3.726562 51.691406 3.921875 51.222656 4.097656 50.804688 C 4.207031 50.546875 4.308594 50.300781 4.371094 50.101562 C 4.429688 49.910156 4.488281 49.65625 4.550781 49.386719 C 4.648438 48.941406 4.761719 48.441406 4.953125 47.898438 C 5.230469 47.121094 5.488281 46.421875 5.746094 45.761719 C 5.777344 45.683594 5.824219 45.4375 5.859375 45.261719 C 5.949219 44.78125 6.070312 44.183594 6.347656 43.539062 C 6.628906 42.878906 7.003906 42.359375 7.28125 41.976562 C 7.382812 41.835938 7.519531 41.640625 7.558594 41.570312 C 7.933594 40.769531 8.25 40.113281 8.554688 39.515625 C 8.660156 39.308594 8.769531 39.0625 8.882812 38.800781 C 9.0625 38.390625 9.269531 37.925781 9.535156 37.449219 C 9.648438 37.242188 9.765625 37 9.890625 36.742188 C 10.085938 36.335938 10.304688 35.875 10.589844 35.40625 C 10.960938 34.78125 11.375 34.128906 11.808594 33.457031 C 12.148438 32.933594 12.523438 32.511719 12.824219 32.175781 C 13 31.980469 13.164062 31.792969 13.261719 31.660156 C 13.402344 31.460938 13.535156 31.257812 13.675781 31.058594 C 13.957031 30.644531 14.246094 30.214844 14.582031 29.777344 C 14.695312 29.632812 14.832031 29.410156 14.976562 29.171875 C 15.226562 28.765625 15.511719 28.300781 15.902344 27.828125 C 16.25 27.40625 16.601562 27.03125 16.941406 26.667969 C 17.121094 26.476562 17.300781 26.28125 17.472656 26.085938 L 17.730469 25.796875 C 18.148438 25.324219 18.585938 24.835938 19.046875 24.347656 C 19.582031 23.789062 20.160156 23.429688 20.589844 23.164062 C 20.71875 23.082031 20.890625 22.976562 20.957031 22.925781 C 21.101562 22.78125 21.273438 22.582031 21.449219 22.375 C 21.75 22.023438 22.09375 21.625 22.527344 21.230469 C 22.6875 21.085938 22.871094 20.886719 23.066406 20.675781 C 23.378906 20.335938 23.738281 19.953125 24.175781 19.578125 C 24.59375 19.21875 25.015625 18.921875 25.386719 18.660156 C 25.625 18.488281 25.859375 18.328125 26.039062 18.179688 C 26.609375 17.722656 27.210938 17.253906 27.875 16.753906 C 28.511719 16.277344 29.15625 15.820312 29.757812 15.394531 C 30.1875 15.085938 30.621094 14.824219 31.003906 14.59375 C 31.246094 14.449219 31.484375 14.308594 31.71875 14.152344 C 31.789062 14.101562 31.96875 13.925781 32.105469 13.796875 C 32.460938 13.453125 32.90625 13.023438 33.511719 12.648438 C 34.121094 12.269531 34.707031 12.0625 35.175781 11.898438 C 35.347656 11.839844 35.585938 11.753906 35.660156 11.714844 C 36.109375 11.453125 36.546875 11.226562 36.972656 11.007812 C 37.214844 10.882812 37.457031 10.757812 37.695312 10.625 C 37.820312 10.5625 38.027344 10.40625 38.222656 10.261719 C 38.597656 9.984375 39.0625 9.640625 39.636719 9.347656 C 40.113281 9.105469 40.578125 8.917969 40.988281 8.75 C 41.269531 8.636719 41.53125 8.527344 41.757812 8.417969 C 42.238281 8.191406 42.707031 8.015625 43.121094 7.855469 C 43.390625 7.75 43.648438 7.65625 43.875 7.554688 C 43.945312 7.511719 44.113281 7.390625 44.230469 7.300781 C 44.628906 7.007812 45.175781 6.601562 45.886719 6.3125 C 46.476562 6.066406 47.035156 5.9375 47.484375 5.835938 C 47.730469 5.78125 47.980469 5.722656 48.117188 5.671875 C 48.382812 5.570312 48.644531 5.460938 48.90625 5.351562 C 49.335938 5.171875 49.773438 4.984375 50.265625 4.8125 C 50.78125 4.632812 51.269531 4.515625 51.699219 4.40625 C 51.992188 4.335938 52.265625 4.269531 52.492188 4.191406 C 53.007812 4.027344 53.5 3.921875 53.933594 3.820312 C 54.222656 3.753906 54.5 3.695312 54.734375 3.625 C 54.957031 3.558594 55.222656 3.464844 55.5 3.363281 C 55.921875 3.210938 56.394531 3.035156 56.925781 2.894531 C 57.167969 2.832031 57.410156 2.765625 57.65625 2.699219 C 58.136719 2.566406 58.636719 2.429688 59.160156 2.308594 C 59.347656 2.265625 59.605469 2.175781 59.871094 2.085938 C 60.308594 1.9375 60.808594 1.765625 61.386719 1.648438 C 62.085938 1.507812 62.703125 1.515625 63.199219 1.519531 C 63.378906 1.523438 63.632812 1.527344 63.71875 1.511719 C 63.773438 1.496094 63.984375 1.414062 64.140625 1.351562 C 64.589844 1.167969 65.207031 0.917969 65.949219 0.808594 C 66.761719 0.691406 67.460938 0.789062 67.976562 0.859375 C 68.078125 0.871094 68.207031 0.890625 68.296875 0.898438 C 68.378906 0.871094 68.5 0.820312 68.597656 0.785156 C 69.078125 0.59375 69.746094 0.332031 70.5625 0.261719 C 71.242188 0.199219 71.839844 0.261719 72.320312 0.3125 C 72.527344 0.332031 72.792969 0.363281 72.898438 0.355469 C 73.429688 0.324219 73.9375 0.328125 74.386719 0.335938 C 74.683594 0.339844 74.960938 0.34375 75.214844 0.335938 C 75.738281 0.320312 76.234375 0.339844 76.675781 0.355469 C 76.933594 0.363281 77.191406 0.375 77.453125 0.375 C 77.535156 0.363281 77.707031 0.320312 77.835938 0.289062 C 78.324219 0.167969 79 0.00390625 79.789062 0.0234375 C 80.558594 0.046875 81.207031 0.234375 81.679688 0.371094 C 81.816406 0.410156 82.007812 0.46875 82.085938 0.480469 C 82.339844 0.496094 82.589844 0.503906 82.84375 0.515625 C 83.324219 0.535156 83.816406 0.554688 84.339844 0.601562 C 84.519531 0.617188 84.777344 0.613281 85.050781 0.609375 C 85.492188 0.601562 86.039062 0.589844 86.632812 0.664062 C 87.171875 0.730469 87.664062 0.832031 88.09375 0.921875 C 88.378906 0.980469 88.648438 1.039062 88.886719 1.074219 C 89 1.089844 89.246094 1.089844 89.46875 1.089844 C 89.941406 1.085938 90.535156 1.082031 91.191406 1.203125 C 91.710938 1.296875 92.191406 1.414062 92.65625 1.527344 C 92.914062 1.589844 93.171875 1.652344 93.429688 1.707031 C 94.109375 1.855469 94.898438 2.023438 95.667969 2.214844 C 96.320312 2.378906 96.855469 2.625 97.289062 2.824219 C 97.488281 2.917969 97.714844 3.019531 97.820312 3.050781 C 98.054688 3.117188 98.324219 3.179688 98.609375 3.242188 C 99.039062 3.339844 99.53125 3.453125 100.042969 3.613281 C 100.542969 3.773438 101 3.949219 101.4375 4.121094 C 101.6875 4.21875 101.9375 4.316406 102.191406 4.40625 C 102.695312 4.582031 103.15625 4.785156 103.5625 4.960938 C 103.8125 5.070312 104.058594 5.175781 104.3125 5.277344 C 104.414062 5.316406 104.65625 5.367188 104.871094 5.414062 C 105.335938 5.515625 105.910156 5.640625 106.53125 5.902344 C 107.304688 6.234375 108.058594 6.582031 108.628906 6.84375 C 109.296875 7.15625 109.8125 7.5625 110.1875 7.859375 C 110.316406 7.960938 110.496094 8.101562 110.5625 8.140625 C 110.621094 8.167969 110.851562 8.234375 111.023438 8.28125 C 111.472656 8.410156 112.089844 8.589844 112.71875 8.933594 C 112.945312 9.054688 113.171875 9.171875 113.394531 9.292969 C 113.832031 9.519531 114.28125 9.753906 114.742188 10.027344 C 114.941406 10.144531 115.140625 10.257812 115.34375 10.375 C 115.789062 10.632812 116.253906 10.898438 116.726562 11.195312 C 117.378906 11.609375 117.839844 12.109375 118.179688 12.472656 C 118.273438 12.578125 118.40625 12.71875 118.46875 12.769531 C 118.613281 12.867188 118.828125 12.980469 119.050781 13.101562 C 119.445312 13.3125 119.933594 13.574219 120.421875 13.929688 C 120.855469 14.242188 121.238281 14.570312 121.578125 14.863281 C 121.785156 15.035156 121.988281 15.214844 122.203125 15.382812 C 122.378906 15.519531 122.601562 15.671875 122.839844 15.832031 C 123.210938 16.085938 123.636719 16.371094 124.0625 16.726562 C 124.265625 16.898438 124.476562 17.0625 124.6875 17.230469 C 125.058594 17.523438 125.445312 17.824219 125.84375 18.175781 C 126.246094 18.535156 126.59375 18.902344 126.902344 19.226562 C 127.101562 19.4375 127.292969 19.636719 127.464844 19.804688 C 127.632812 19.964844 127.84375 20.136719 128.0625 20.324219 C 128.40625 20.613281 128.796875 20.9375 129.183594 21.332031 C 129.554688 21.710938 129.882812 22.082031 130.199219 22.441406 C 130.371094 22.640625 130.550781 22.839844 130.726562 23.035156 C 130.890625 23.210938 131.085938 23.40625 131.292969 23.609375 C 131.613281 23.921875 131.976562 24.277344 132.332031 24.683594 C 132.679688 25.089844 132.980469 25.496094 133.246094 25.859375 C 133.417969 26.089844 133.582031 26.3125 133.738281 26.503906 C 133.878906 26.683594 134.0625 26.878906 134.257812 27.09375 C 134.566406 27.421875 134.914062 27.800781 135.246094 28.242188 C 135.601562 28.710938 135.859375 29.167969 136.089844 29.566406 C 136.226562 29.808594 136.355469 30.035156 136.46875 30.195312 C 136.609375 30.394531 136.777344 30.613281 136.957031 30.839844 C 137.234375 31.191406 137.546875 31.589844 137.839844 32.039062 C 138.132812 32.480469 138.371094 32.90625 138.605469 33.316406 C 138.742188 33.550781 138.871094 33.789062 139.011719 34.019531 C 139.101562 34.167969 139.257812 34.371094 139.425781 34.582031 C 139.695312 34.9375 140.039062 35.382812 140.339844 35.910156 C 140.617188 36.402344 140.820312 36.875 141 37.292969 C 141.117188 37.554688 141.222656 37.804688 141.320312 37.996094 C 141.710938 38.742188 142.074219 39.484375 142.347656 40.050781 C 142.59375 40.5625 142.765625 41.042969 142.917969 41.46875 C 143.015625 41.738281 143.105469 41.992188 143.191406 42.191406 C 143.417969 42.695312 143.609375 43.179688 143.792969 43.652344 C 143.878906 43.871094 143.964844 44.09375 144.054688 44.3125 C 144.089844 44.390625 144.222656 44.601562 144.320312 44.757812 C 144.582031 45.171875 144.910156 45.691406 145.152344 46.351562 C 145.425781 47.089844 145.484375 47.777344 145.527344 48.277344 C 145.539062 48.410156 145.554688 48.585938 145.570312 48.671875 C 145.613281 48.777344 145.71875 48.976562 145.804688 49.140625 C 146.027344 49.566406 146.304688 50.09375 146.5 50.746094 C 146.761719 51.628906 146.957031 52.308594 147.125 52.953125 C 147.273438 53.507812 147.398438 54.054688 147.511719 54.582031 C 147.558594 54.785156 147.601562 54.988281 147.652344 55.1875 C 147.785156 55.765625 147.835938 56.285156 147.878906 56.746094 C 147.90625 57.019531 147.929688 57.277344 147.964844 57.460938 C 148.015625 57.699219 148.082031 57.964844 148.152344 58.25 C 148.261719 58.675781 148.386719 59.167969 148.472656 59.695312 C 148.558594 60.214844 148.605469 60.714844 148.648438 61.15625 C 148.675781 61.425781 148.699219 61.699219 148.734375 61.972656 C 148.804688 62.511719 148.855469 63.035156 148.902344 63.539062 C 148.921875 63.777344 148.945312 64.011719 148.972656 64.246094 C 149 64.515625 149.039062 64.785156 149.078125 65.058594 C 149.140625 65.496094 149.214844 65.988281 149.253906 66.519531 C 149.269531 66.722656 149.308594 66.984375 149.355469 67.261719 C 149.425781 67.710938 149.507812 68.222656 149.535156 68.792969 C 149.570312 69.613281 149.59375 70.359375 149.601562 71.082031 C 149.609375 71.789062 149.488281 72.386719 149.386719 72.867188 C 149.351562 73.039062 149.304688 73.269531 149.300781 73.351562 C 149.296875 73.558594 149.316406 73.828125 149.335938 74.113281 C 149.363281 74.554688 149.398438 75.054688 149.375 75.609375 C 149.382812 75.792969 149.398438 76.054688 149.414062 76.324219 Z M 149.414062 76.324219 " fill-opacity="1" fill-rule="nonzero"/></g><path fill="#333333" d="M 143.476562 71.15625 C 143.46875 70.5 143.445312 69.816406 143.417969 69.0625 C 143.40625 68.84375 143.359375 68.546875 143.308594 68.238281 C 143.25 67.863281 143.179688 67.433594 143.144531 66.964844 C 143.121094 66.65625 143.074219 66.304688 143.019531 65.9375 C 142.972656 65.601562 142.921875 65.253906 142.882812 64.878906 C 142.855469 64.621094 142.832031 64.363281 142.808594 64.105469 C 142.765625 63.644531 142.722656 63.207031 142.667969 62.789062 C 142.617188 62.417969 142.582031 62.070312 142.550781 61.730469 C 142.515625 61.359375 142.484375 61.003906 142.433594 60.703125 C 142.386719 60.429688 142.304688 60.105469 142.214844 59.761719 C 142.132812 59.429688 142.035156 59.050781 141.957031 58.652344 C 141.859375 58.167969 141.816406 57.71875 141.777344 57.324219 C 141.75 57.027344 141.726562 56.746094 141.683594 56.566406 C 141.632812 56.351562 141.582031 56.136719 141.535156 55.921875 C 141.425781 55.429688 141.320312 54.964844 141.203125 54.519531 C 141.050781 53.9375 140.871094 53.3125 140.625 52.5 C 140.601562 52.410156 140.472656 52.167969 140.382812 51.992188 C 140.183594 51.613281 139.933594 51.144531 139.746094 50.578125 C 139.515625 49.898438 139.464844 49.265625 139.425781 48.804688 C 139.414062 48.6875 139.398438 48.53125 139.386719 48.441406 C 139.339844 48.347656 139.226562 48.171875 139.140625 48.039062 C 138.90625 47.667969 138.613281 47.203125 138.378906 46.625 C 138.277344 46.386719 138.183594 46.144531 138.089844 45.898438 C 137.921875 45.472656 137.757812 45.0625 137.589844 44.683594 C 137.40625 44.269531 137.265625 43.871094 137.140625 43.519531 C 137.035156 43.214844 136.929688 42.925781 136.832031 42.722656 C 136.582031 42.199219 136.242188 41.511719 135.894531 40.847656 C 135.679688 40.445312 135.515625 40.058594 135.367188 39.714844 C 135.238281 39.414062 135.121094 39.132812 135.007812 38.933594 C 134.925781 38.785156 134.753906 38.5625 134.574219 38.332031 C 134.328125 38.015625 134.050781 37.65625 133.785156 37.21875 C 133.609375 36.933594 133.445312 36.648438 133.28125 36.355469 C 133.085938 36.015625 132.902344 35.691406 132.71875 35.410156 C 132.566406 35.175781 132.355469 34.90625 132.132812 34.621094 C 131.925781 34.355469 131.6875 34.054688 131.460938 33.730469 C 131.183594 33.339844 130.964844 32.953125 130.769531 32.617188 C 130.617188 32.351562 130.472656 32.097656 130.355469 31.941406 C 130.203125 31.742188 129.988281 31.503906 129.757812 31.257812 C 129.515625 30.996094 129.238281 30.699219 128.96875 30.363281 C 128.726562 30.066406 128.519531 29.78125 128.3125 29.503906 C 128.09375 29.207031 127.886719 28.925781 127.691406 28.699219 C 127.507812 28.484375 127.265625 28.25 127.011719 28.003906 C 126.769531 27.765625 126.492188 27.496094 126.222656 27.199219 C 126.007812 26.96875 125.796875 26.730469 125.589844 26.492188 C 125.320312 26.183594 125.0625 25.894531 124.816406 25.640625 C 124.636719 25.457031 124.390625 25.25 124.128906 25.035156 C 123.855469 24.808594 123.546875 24.550781 123.238281 24.257812 C 122.949219 23.980469 122.683594 23.703125 122.449219 23.457031 C 122.203125 23.199219 121.972656 22.953125 121.761719 22.765625 C 121.511719 22.539062 121.214844 22.304688 120.898438 22.0625 C 120.640625 21.855469 120.382812 21.65625 120.132812 21.445312 C 119.941406 21.285156 119.679688 21.109375 119.402344 20.921875 C 119.105469 20.71875 118.765625 20.492188 118.425781 20.226562 C 118.125 19.992188 117.855469 19.761719 117.597656 19.542969 C 117.316406 19.300781 117.046875 19.074219 116.804688 18.894531 C 116.664062 18.792969 116.421875 18.664062 116.164062 18.527344 C 115.808594 18.339844 115.410156 18.125 114.992188 17.839844 C 114.414062 17.449219 113.992188 16.996094 113.683594 16.660156 C 113.585938 16.558594 113.460938 16.425781 113.398438 16.363281 C 113.050781 16.144531 112.675781 15.929688 112.28125 15.703125 C 112.0625 15.574219 111.839844 15.449219 111.625 15.324219 C 111.296875 15.128906 110.933594 14.941406 110.550781 14.738281 C 110.289062 14.605469 110.03125 14.46875 109.777344 14.328125 C 109.71875 14.300781 109.488281 14.234375 109.320312 14.1875 C 108.894531 14.0625 108.355469 13.910156 107.785156 13.621094 C 107.199219 13.324219 106.75 12.96875 106.390625 12.6875 C 106.265625 12.589844 106.09375 12.453125 106.023438 12.410156 C 105.496094 12.164062 104.8125 11.847656 104.128906 11.558594 C 104.039062 11.519531 103.765625 11.460938 103.570312 11.417969 C 103.15625 11.328125 102.640625 11.21875 102.085938 11 C 101.738281 10.867188 101.421875 10.730469 101.113281 10.59375 C 100.769531 10.445312 100.445312 10.304688 100.148438 10.199219 C 99.839844 10.085938 99.527344 9.96875 99.21875 9.847656 C 98.851562 9.707031 98.503906 9.570312 98.183594 9.46875 C 97.914062 9.386719 97.589844 9.308594 97.242188 9.230469 C 96.910156 9.15625 96.535156 9.070312 96.144531 8.960938 C 95.582031 8.804688 95.105469 8.585938 94.722656 8.40625 C 94.53125 8.320312 94.277344 8.203125 94.179688 8.179688 C 93.496094 8.007812 92.792969 7.855469 92.128906 7.710938 C 91.824219 7.644531 91.519531 7.570312 91.210938 7.5 C 90.808594 7.402344 90.433594 7.308594 90.078125 7.246094 C 89.984375 7.230469 89.703125 7.230469 89.503906 7.230469 C 89.074219 7.234375 88.546875 7.238281 87.964844 7.148438 C 87.5625 7.085938 87.175781 7.007812 86.839844 6.9375 C 86.496094 6.867188 86.167969 6.796875 85.898438 6.761719 C 85.722656 6.742188 85.445312 6.75 85.152344 6.75 C 84.75 6.757812 84.296875 6.765625 83.789062 6.722656 C 83.417969 6.6875 83.015625 6.671875 82.589844 6.65625 C 82.292969 6.644531 81.996094 6.632812 81.691406 6.613281 C 81 6.570312 80.40625 6.402344 79.96875 6.273438 C 79.859375 6.242188 79.71875 6.203125 79.621094 6.179688 C 79.535156 6.195312 79.40625 6.230469 79.308594 6.253906 C 78.851562 6.367188 78.226562 6.519531 77.5 6.519531 C 77.5 6.519531 77.5 6.519531 77.496094 6.519531 C 77.148438 6.519531 76.800781 6.507812 76.453125 6.496094 C 76.074219 6.480469 75.714844 6.46875 75.394531 6.480469 C 75.007812 6.492188 74.644531 6.484375 74.296875 6.480469 C 73.921875 6.472656 73.566406 6.46875 73.257812 6.488281 C 72.65625 6.523438 72.121094 6.46875 71.691406 6.425781 C 71.519531 6.40625 71.292969 6.382812 71.167969 6.382812 C 71.082031 6.410156 70.949219 6.464844 70.84375 6.503906 C 70.390625 6.683594 69.773438 6.929688 69.015625 7.015625 C 68.269531 7.105469 67.617188 7.011719 67.136719 6.949219 C 67.035156 6.933594 66.898438 6.917969 66.808594 6.90625 C 66.710938 6.941406 66.558594 7.003906 66.441406 7.050781 C 66.023438 7.21875 65.453125 7.449219 64.777344 7.570312 C 64.144531 7.679688 63.582031 7.675781 63.128906 7.667969 C 62.941406 7.667969 62.691406 7.664062 62.601562 7.679688 C 62.421875 7.714844 62.152344 7.808594 61.859375 7.910156 C 61.480469 8.042969 61.042969 8.1875 60.550781 8.300781 C 60.144531 8.398438 59.722656 8.511719 59.273438 8.636719 C 59.011719 8.707031 58.742188 8.777344 58.476562 8.851562 C 58.230469 8.914062 57.929688 9.023438 57.617188 9.140625 C 57.265625 9.269531 56.871094 9.414062 56.441406 9.539062 C 56.027344 9.65625 55.625 9.75 55.273438 9.824219 C 54.933594 9.902344 54.613281 9.972656 54.359375 10.054688 C 53.9375 10.1875 53.535156 10.289062 53.175781 10.375 C 52.84375 10.457031 52.527344 10.535156 52.28125 10.621094 C 51.972656 10.730469 51.636719 10.871094 51.285156 11.019531 C 50.953125 11.15625 50.625 11.296875 50.289062 11.421875 C 49.761719 11.621094 49.261719 11.738281 48.859375 11.828125 C 48.625 11.882812 48.378906 11.941406 48.238281 11.992188 C 48.164062 12.035156 48.007812 12.152344 47.890625 12.242188 C 47.523438 12.511719 47.019531 12.886719 46.375 13.171875 C 45.996094 13.339844 45.625 13.480469 45.300781 13.605469 C 44.964844 13.734375 44.644531 13.855469 44.386719 13.976562 C 44.007812 14.15625 43.636719 14.308594 43.3125 14.441406 C 42.980469 14.578125 42.667969 14.707031 42.414062 14.835938 C 42.296875 14.894531 42.074219 15.0625 41.871094 15.210938 C 41.539062 15.457031 41.125 15.765625 40.625 16.035156 C 40.347656 16.183594 40.066406 16.332031 39.785156 16.476562 C 39.414062 16.671875 39.058594 16.855469 38.734375 17.039062 C 38.171875 17.367188 37.640625 17.550781 37.210938 17.707031 C 37.039062 17.765625 36.804688 17.847656 36.730469 17.886719 C 36.675781 17.925781 36.492188 18.105469 36.363281 18.234375 C 36.039062 18.546875 35.632812 18.933594 35.101562 19.289062 C 34.78125 19.503906 34.476562 19.6875 34.179688 19.863281 C 33.855469 20.058594 33.546875 20.246094 33.292969 20.425781 C 32.734375 20.820312 32.132812 21.246094 31.5625 21.675781 C 30.949219 22.136719 30.394531 22.566406 29.878906 22.984375 C 29.542969 23.253906 29.207031 23.488281 28.914062 23.695312 C 28.628906 23.894531 28.363281 24.085938 28.160156 24.257812 C 27.988281 24.402344 27.777344 24.632812 27.554688 24.867188 C 27.296875 25.148438 27.007812 25.460938 26.660156 25.773438 C 26.5 25.921875 26.300781 26.152344 26.09375 26.394531 C 25.847656 26.6875 25.5625 27.011719 25.226562 27.34375 C 24.726562 27.832031 24.195312 28.160156 23.8125 28.398438 C 23.6875 28.476562 23.519531 28.578125 23.453125 28.632812 C 23.078125 29.023438 22.707031 29.445312 22.320312 29.886719 L 22.058594 30.179688 C 21.851562 30.410156 21.636719 30.640625 21.425781 30.871094 C 21.140625 31.183594 20.863281 31.472656 20.632812 31.753906 C 20.511719 31.902344 20.359375 32.148438 20.199219 32.410156 C 19.992188 32.746094 19.753906 33.132812 19.453125 33.523438 C 19.21875 33.828125 18.988281 34.167969 18.742188 34.53125 C 18.585938 34.761719 18.429688 34.992188 18.269531 35.21875 C 17.976562 35.636719 17.671875 35.976562 17.40625 36.277344 C 17.222656 36.480469 17.035156 36.695312 16.949219 36.828125 C 16.554688 37.433594 16.183594 38.027344 15.847656 38.585938 C 15.707031 38.816406 15.566406 39.109375 15.417969 39.425781 C 15.265625 39.734375 15.097656 40.085938 14.902344 40.445312 C 14.773438 40.675781 14.640625 40.976562 14.503906 41.292969 C 14.363281 41.609375 14.207031 41.964844 14.023438 42.328125 C 13.75 42.863281 13.460938 43.457031 13.117188 44.195312 C 12.847656 44.773438 12.523438 45.222656 12.261719 45.585938 C 12.160156 45.726562 12.019531 45.921875 11.984375 45.996094 C 11.964844 46.050781 11.917969 46.292969 11.878906 46.46875 C 11.796875 46.902344 11.6875 47.4375 11.464844 48.019531 C 11.230469 48.621094 10.992188 49.257812 10.738281 49.976562 C 10.667969 50.167969 10.605469 50.453125 10.539062 50.753906 C 10.457031 51.125 10.363281 51.546875 10.214844 52 C 10.074219 52.441406 9.914062 52.835938 9.769531 53.179688 C 9.648438 53.46875 9.535156 53.746094 9.476562 53.957031 C 9.304688 54.546875 9.066406 55.035156 8.878906 55.425781 C 8.804688 55.570312 8.714844 55.761719 8.675781 55.867188 C 8.671875 55.957031 8.675781 56.113281 8.675781 56.234375 C 8.679688 56.695312 8.691406 57.328125 8.535156 58.03125 C 8.441406 58.441406 8.328125 58.828125 8.230469 59.167969 C 8.132812 59.488281 8.046875 59.800781 7.996094 60.054688 C 7.898438 60.554688 7.761719 60.992188 7.640625 61.375 C 7.554688 61.652344 7.472656 61.917969 7.449219 62.085938 C 7.410156 62.324219 7.386719 62.636719 7.367188 62.964844 C 7.34375 63.328125 7.316406 63.742188 7.257812 64.179688 C 7.234375 64.355469 7.234375 64.628906 7.238281 64.917969 C 7.238281 65.320312 7.238281 65.777344 7.183594 66.285156 C 7.125 66.800781 7.023438 67.253906 6.933594 67.652344 C 6.871094 67.925781 6.8125 68.1875 6.800781 68.351562 C 6.785156 68.539062 6.800781 68.816406 6.816406 69.113281 C 6.835938 69.511719 6.855469 69.957031 6.832031 70.457031 C 6.808594 70.898438 6.761719 71.304688 6.714844 71.664062 C 6.675781 71.992188 6.636719 72.300781 6.632812 72.542969 C 6.621094 72.953125 6.59375 73.339844 6.566406 73.683594 C 6.539062 74.035156 6.515625 74.363281 6.515625 74.644531 C 6.515625 74.925781 6.515625 75.207031 6.511719 75.488281 C 6.507812 75.933594 6.503906 76.351562 6.515625 76.746094 C 6.519531 76.957031 6.566406 77.246094 6.609375 77.554688 C 6.667969 77.933594 6.730469 78.363281 6.761719 78.835938 C 6.785156 79.242188 6.828125 79.660156 6.875 80.109375 C 6.902344 80.382812 6.929688 80.652344 6.953125 80.921875 C 7.011719 81.582031 6.945312 82.152344 6.894531 82.613281 C 6.878906 82.769531 6.855469 82.980469 6.855469 83.066406 C 6.894531 83.425781 6.960938 83.804688 7.03125 84.210938 C 7.082031 84.515625 7.132812 84.816406 7.175781 85.121094 C 7.21875 85.398438 7.292969 85.726562 7.375 86.074219 C 7.453125 86.402344 7.539062 86.78125 7.609375 87.175781 C 7.652344 87.414062 7.734375 87.714844 7.824219 88.03125 C 7.925781 88.378906 8.035156 88.777344 8.125 89.207031 C 8.21875 89.65625 8.273438 90.078125 8.316406 90.445312 C 8.355469 90.761719 8.394531 91.0625 8.445312 91.277344 C 8.519531 91.582031 8.585938 91.890625 8.652344 92.195312 C 8.742188 92.597656 8.820312 92.976562 8.914062 93.316406 C 8.933594 93.367188 9.042969 93.570312 9.125 93.714844 C 9.339844 94.113281 9.605469 94.609375 9.800781 95.230469 C 9.929688 95.664062 10.023438 96.066406 10.105469 96.425781 C 10.175781 96.742188 10.242188 97.035156 10.316406 97.253906 C 10.414062 97.527344 10.550781 97.839844 10.695312 98.171875 C 10.835938 98.496094 10.984375 98.832031 11.128906 99.203125 C 11.234375 99.476562 11.332031 99.753906 11.433594 100.03125 C 11.582031 100.441406 11.71875 100.824219 11.867188 101.179688 C 12.074219 101.671875 12.210938 102.148438 12.316406 102.527344 C 12.390625 102.789062 12.464844 103.058594 12.527344 103.199219 C 12.566406 103.273438 12.71875 103.480469 12.835938 103.636719 C 13.09375 103.992188 13.417969 104.433594 13.691406 104.984375 C 13.933594 105.464844 14.09375 105.933594 14.226562 106.304688 C 14.316406 106.558594 14.40625 106.820312 14.476562 106.957031 C 14.699219 107.367188 14.871094 107.761719 15.019531 108.109375 C 15.148438 108.40625 15.269531 108.6875 15.382812 108.878906 C 15.695312 109.421875 16.027344 109.964844 16.382812 110.535156 L 16.671875 111.003906 C 16.992188 111.527344 17.292969 112.019531 17.609375 112.492188 C 17.679688 112.597656 17.871094 112.800781 18.039062 112.976562 C 18.320312 113.277344 18.671875 113.652344 18.996094 114.113281 C 19.191406 114.398438 19.386719 114.683594 19.574219 114.972656 C 19.785156 115.296875 19.988281 115.605469 20.1875 115.871094 C 20.316406 116.042969 20.523438 116.261719 20.742188 116.492188 C 21.007812 116.769531 21.308594 117.085938 21.601562 117.457031 C 21.753906 117.648438 21.90625 117.839844 22.054688 118.03125 C 22.355469 118.410156 22.636719 118.769531 22.925781 119.109375 C 23.132812 119.355469 23.386719 119.617188 23.652344 119.890625 C 23.894531 120.144531 24.140625 120.394531 24.375 120.652344 C 24.800781 121.128906 25.09375 121.609375 25.328125 121.992188 C 25.417969 122.144531 25.550781 122.359375 25.605469 122.421875 C 25.894531 122.722656 26.214844 123.035156 26.558594 123.367188 C 26.742188 123.546875 26.929688 123.726562 27.113281 123.90625 C 27.191406 123.984375 27.421875 124.140625 27.605469 124.269531 C 27.953125 124.503906 28.386719 124.800781 28.808594 125.199219 C 29.191406 125.554688 29.496094 125.910156 29.761719 126.222656 C 29.953125 126.441406 30.128906 126.648438 30.253906 126.761719 C 30.523438 126.996094 30.78125 127.242188 31.039062 127.484375 C 31.316406 127.746094 31.582031 127.992188 31.824219 128.195312 C 32.046875 128.378906 32.265625 128.5625 32.484375 128.753906 C 32.824219 129.039062 33.140625 129.3125 33.453125 129.554688 C 33.558594 129.636719 33.804688 129.769531 34.019531 129.886719 C 34.378906 130.082031 34.828125 130.324219 35.28125 130.652344 C 35.523438 130.832031 35.761719 131.011719 36 131.195312 C 36.347656 131.453125 36.671875 131.699219 36.984375 131.917969 C 37.335938 132.15625 37.65625 132.40625 37.9375 132.625 C 38.210938 132.835938 38.46875 133.039062 38.6875 133.183594 C 38.785156 133.246094 39.046875 133.351562 39.257812 133.441406 C 39.644531 133.601562 40.121094 133.800781 40.613281 134.097656 C 40.867188 134.246094 41.171875 134.398438 41.492188 134.5625 C 41.8125 134.722656 42.140625 134.886719 42.488281 135.082031 C 43.015625 135.378906 43.4375 135.71875 43.777344 135.988281 C 43.929688 136.113281 44.136719 136.28125 44.21875 136.324219 C 44.410156 136.425781 44.691406 136.53125 44.988281 136.648438 C 45.34375 136.78125 45.75 136.9375 46.171875 137.140625 C 46.613281 137.355469 46.996094 137.585938 47.332031 137.789062 C 47.59375 137.949219 47.839844 138.101562 48.023438 138.183594 C 48.109375 138.222656 48.386719 138.289062 48.585938 138.332031 C 49 138.429688 49.515625 138.550781 50.066406 138.777344 C 50.542969 138.972656 51.035156 139.152344 51.558594 139.347656 L 52.039062 139.527344 C 52.628906 139.746094 53.328125 140.003906 54.023438 140.238281 C 54.65625 140.449219 55.152344 140.742188 55.550781 140.972656 C 55.6875 141.050781 55.867188 141.15625 55.949219 141.195312 C 56.039062 141.210938 56.277344 141.234375 56.453125 141.246094 C 56.894531 141.285156 57.4375 141.332031 58.042969 141.492188 C 58.578125 141.632812 59.046875 141.828125 59.421875 141.984375 C 59.652344 142.078125 59.917969 142.1875 60.046875 142.214844 C 60.183594 142.246094 60.457031 142.265625 60.722656 142.28125 C 61.128906 142.304688 61.632812 142.339844 62.171875 142.445312 C 62.632812 142.535156 63.050781 142.65625 63.417969 142.757812 C 63.726562 142.847656 64.015625 142.929688 64.234375 142.964844 L 64.785156 143.054688 C 65.324219 143.144531 65.832031 143.230469 66.335938 143.296875 C 66.441406 143.308594 66.722656 143.296875 66.945312 143.285156 C 67.367188 143.261719 67.890625 143.234375 68.472656 143.289062 C 69.1875 143.359375 69.785156 143.5625 70.226562 143.714844 C 70.355469 143.757812 70.53125 143.816406 70.613281 143.839844 C 70.949219 143.859375 71.320312 143.863281 71.710938 143.867188 C 72.039062 143.871094 72.371094 143.871094 72.699219 143.882812 C 72.824219 143.886719 73.09375 143.851562 73.339844 143.816406 C 73.75 143.761719 74.265625 143.6875 74.835938 143.691406 C 75.363281 143.695312 75.832031 143.753906 76.242188 143.800781 C 76.53125 143.835938 76.800781 143.863281 76.964844 143.863281 C 77.371094 143.851562 77.761719 143.863281 78.109375 143.871094 C 78.472656 143.882812 78.816406 143.890625 79.101562 143.871094 C 79.265625 143.863281 79.535156 143.804688 79.820312 143.75 C 80.226562 143.664062 80.691406 143.570312 81.21875 143.519531 C 82.074219 143.445312 82.726562 143.378906 83.339844 143.308594 C 83.570312 143.28125 83.871094 143.210938 84.183594 143.136719 C 84.554688 143.054688 84.96875 142.953125 85.429688 142.886719 L 85.9375 142.808594 C 86.492188 142.730469 87.019531 142.652344 87.53125 142.558594 C 87.863281 142.5 88.199219 142.449219 88.535156 142.398438 C 88.925781 142.34375 89.296875 142.285156 89.632812 142.214844 C 90.226562 142.085938 90.769531 142.0625 91.203125 142.046875 C 91.40625 142.035156 91.683594 142.023438 91.777344 142.003906 C 91.929688 141.96875 92.191406 141.859375 92.445312 141.753906 C 92.832031 141.59375 93.273438 141.414062 93.792969 141.273438 C 94.117188 141.183594 94.472656 141.058594 94.847656 140.933594 C 95.171875 140.820312 95.492188 140.710938 95.820312 140.613281 C 96.363281 140.445312 96.867188 140.363281 97.277344 140.296875 C 97.519531 140.257812 97.796875 140.210938 97.914062 140.171875 C 98.703125 139.902344 99.34375 139.671875 99.929688 139.453125 C 100.542969 139.21875 101.15625 138.96875 101.808594 138.699219 L 101.90625 138.65625 C 102.214844 138.53125 102.550781 138.367188 102.902344 138.191406 C 103.210938 138.039062 103.519531 137.886719 103.835938 137.746094 L 104.121094 137.617188 C 104.699219 137.359375 105.246094 137.113281 105.773438 136.855469 C 106 136.742188 106.230469 136.632812 106.457031 136.523438 C 106.894531 136.316406 107.304688 136.121094 107.6875 135.917969 C 108.078125 135.710938 108.457031 135.542969 108.792969 135.394531 C 109.105469 135.253906 109.398438 135.125 109.617188 135 C 109.730469 134.933594 109.953125 134.753906 110.148438 134.59375 C 110.460938 134.335938 110.859375 134.011719 111.332031 133.722656 C 111.6875 133.503906 112.054688 133.253906 112.441406 132.992188 C 112.660156 132.84375 112.882812 132.695312 113.105469 132.546875 C 113.324219 132.402344 113.578125 132.195312 113.847656 131.976562 C 114.125 131.75 114.4375 131.5 114.785156 131.25 C 115.257812 130.914062 115.722656 130.679688 116.097656 130.488281 C 116.300781 130.386719 116.554688 130.257812 116.640625 130.1875 C 116.824219 130.050781 117.046875 129.835938 117.28125 129.605469 C 117.550781 129.347656 117.859375 129.050781 118.214844 128.761719 C 118.480469 128.542969 118.757812 128.332031 119.035156 128.121094 C 119.34375 127.886719 119.636719 127.664062 119.878906 127.449219 C 120.007812 127.335938 120.1875 127.125 120.378906 126.902344 C 120.640625 126.59375 120.9375 126.242188 121.3125 125.886719 C 121.601562 125.613281 121.894531 125.367188 122.148438 125.148438 C 122.414062 124.921875 122.667969 124.707031 122.863281 124.511719 C 123.070312 124.304688 123.273438 124.101562 123.480469 123.902344 C 123.789062 123.601562 124.078125 123.320312 124.335938 123.042969 C 124.515625 122.851562 124.695312 122.664062 124.875 122.472656 C 125.1875 122.140625 125.484375 121.828125 125.753906 121.519531 C 126.109375 121.113281 126.480469 120.78125 126.777344 120.519531 C 126.96875 120.34375 127.171875 120.164062 127.257812 120.058594 C 127.421875 119.863281 127.597656 119.59375 127.785156 119.308594 C 127.980469 119.015625 128.203125 118.683594 128.457031 118.347656 C 128.542969 118.234375 128.671875 117.996094 128.792969 117.769531 C 128.980469 117.421875 129.214844 116.984375 129.527344 116.546875 C 129.882812 116.042969 130.273438 115.664062 130.582031 115.355469 C 130.714844 115.226562 130.894531 115.050781 130.945312 114.980469 C 131.070312 114.789062 131.214844 114.515625 131.367188 114.230469 C 131.539062 113.90625 131.730469 113.539062 131.96875 113.160156 C 132.078125 112.984375 132.203125 112.71875 132.335938 112.4375 C 132.5 112.09375 132.679688 111.703125 132.921875 111.296875 C 133.070312 111.039062 133.222656 110.730469 133.378906 110.40625 C 133.535156 110.097656 133.6875 109.773438 133.871094 109.4375 C 134.101562 109.015625 134.34375 108.652344 134.554688 108.335938 C 134.726562 108.082031 134.886719 107.839844 134.980469 107.660156 C 135.179688 107.265625 135.367188 106.855469 135.574219 106.414062 C 135.671875 106.199219 135.773438 105.984375 135.875 105.769531 C 136.015625 105.476562 136.148438 105.140625 136.289062 104.785156 C 136.414062 104.464844 136.542969 104.148438 136.683594 103.835938 C 136.917969 103.300781 137.199219 102.863281 137.421875 102.503906 C 137.535156 102.332031 137.683594 102.089844 137.722656 101.996094 C 137.808594 101.785156 137.894531 101.492188 137.980469 101.183594 C 138.082031 100.828125 138.199219 100.417969 138.359375 99.992188 C 138.527344 99.542969 138.71875 99.148438 138.886719 98.796875 C 139.019531 98.519531 139.144531 98.261719 139.210938 98.066406 C 139.265625 97.914062 139.3125 97.652344 139.367188 97.371094 C 139.441406 96.96875 139.527344 96.515625 139.683594 96.015625 C 139.851562 95.480469 140.007812 94.9375 140.167969 94.359375 L 140.269531 94 C 140.359375 93.679688 140.457031 93.363281 140.558594 93.046875 C 140.675781 92.671875 140.785156 92.320312 140.871094 91.988281 L 141 91.46875 C 141.140625 90.941406 141.265625 90.445312 141.378906 89.953125 C 141.445312 89.667969 141.515625 89.382812 141.582031 89.101562 C 141.6875 88.679688 141.785156 88.285156 141.859375 87.90625 C 142 87.203125 142.136719 86.511719 142.253906 85.839844 C 142.265625 85.75 142.261719 85.480469 142.257812 85.285156 C 142.25 84.855469 142.242188 84.320312 142.328125 83.726562 C 142.394531 83.273438 142.488281 82.859375 142.574219 82.492188 C 142.644531 82.183594 142.710938 81.890625 142.738281 81.664062 C 142.804688 81.117188 142.855469 80.566406 142.90625 79.980469 L 142.945312 79.574219 C 142.992188 79.054688 143.089844 78.601562 143.171875 78.199219 C 143.234375 77.921875 143.289062 77.660156 143.300781 77.496094 C 143.3125 77.316406 143.292969 77.035156 143.273438 76.742188 C 143.25 76.34375 143.222656 75.890625 143.238281 75.386719 C 143.25 75.160156 143.226562 74.863281 143.207031 74.550781 C 143.183594 74.175781 143.152344 73.753906 143.160156 73.289062 C 143.167969 72.644531 143.277344 72.097656 143.371094 71.660156 C 143.421875 71.472656 143.46875 71.246094 143.476562 71.15625 Z M 90.269531 54.257812 C 90.308594 54.0625 90.339844 53.875 90.367188 53.683594 C 90.472656 53.039062 90.605469 52.238281 90.957031 51.402344 C 91.3125 50.566406 91.753906 49.527344 92.496094 48.605469 C 93.421875 47.453125 94.585938 46.789062 95.382812 46.390625 C 95.535156 46.3125 95.679688 46.234375 95.828125 46.15625 C 96.570312 45.765625 97.410156 45.320312 98.457031 45.164062 C 100.046875 44.929688 101.40625 45.230469 102.265625 45.527344 C 103.585938 45.980469 104.4375 46.855469 105.0625 47.496094 C 105.132812 47.566406 105.199219 47.632812 105.265625 47.703125 C 106.082031 48.519531 106.621094 49.449219 107.085938 50.335938 C 107.125 50.414062 107.253906 50.601562 107.351562 50.738281 C 107.71875 51.261719 108.222656 51.984375 108.496094 52.957031 C 108.726562 53.792969 108.757812 54.570312 108.785156 55.199219 C 108.792969 55.425781 108.804688 55.640625 108.820312 55.808594 C 108.910156 56.710938 108.78125 57.511719 108.6875 58.09375 C 108.652344 58.308594 108.621094 58.507812 108.609375 58.648438 C 108.597656 58.800781 108.597656 59.011719 108.597656 59.234375 C 108.601562 59.875 108.609375 60.75 108.300781 61.675781 C 107.988281 62.601562 107.617188 63.585938 106.996094 64.464844 C 106.269531 65.496094 105.363281 66.117188 104.699219 66.570312 L 104.585938 66.648438 C 103.609375 67.320312 102.613281 67.785156 101.609375 68.027344 C 100.84375 68.210938 100.082031 68.304688 99.347656 68.304688 C 99.019531 68.304688 98.695312 68.289062 98.378906 68.25 L 98.199219 68.230469 C 97.398438 68.140625 96.304688 68.019531 95.230469 67.5 C 94.148438 66.972656 93.53125 66.144531 93.121094 65.597656 C 93.042969 65.488281 92.929688 65.34375 92.886719 65.292969 C 92.828125 65.234375 92.714844 65.136719 92.59375 65.03125 C 92.097656 64.605469 91.34375 63.957031 90.832031 62.917969 C 90.382812 62 90.296875 61.109375 90.234375 60.457031 C 90.214844 60.265625 90.199219 60.085938 90.175781 59.949219 C 90.027344 59.078125 89.886719 58.136719 89.914062 57.074219 C 89.941406 55.980469 90.121094 54.992188 90.269531 54.257812 Z M 40.929688 57.070312 C 40.953125 56.191406 41.15625 55.433594 41.324219 54.828125 C 41.382812 54.609375 41.4375 54.402344 41.46875 54.242188 L 41.519531 54.007812 C 41.675781 53.214844 41.859375 52.320312 42.246094 51.410156 L 42.3125 51.253906 C 42.667969 50.417969 43.066406 49.476562 43.769531 48.597656 C 44.59375 47.578125 45.570312 46.765625 46.59375 46.25 C 47.761719 45.664062 48.902344 45.441406 49.761719 45.3125 C 51.082031 45.117188 52.382812 45.21875 53.523438 45.609375 C 54.945312 46.097656 55.910156 47.0625 56.550781 47.703125 C 57.371094 48.519531 57.871094 49.421875 58.351562 50.34375 C 58.726562 51.058594 59.191406 51.949219 59.492188 53.039062 C 59.746094 53.9375 59.824219 54.78125 59.894531 55.523438 L 59.925781 55.828125 C 59.945312 56.027344 59.976562 56.226562 60.003906 56.425781 C 60.09375 57.046875 60.203125 57.816406 60.136719 58.671875 L 60.113281 58.949219 C 60.050781 59.785156 59.976562 60.738281 59.652344 61.703125 C 59.273438 62.835938 58.664062 63.695312 58.222656 64.320312 L 58.171875 64.394531 C 57.449219 65.414062 56.570312 66.015625 55.925781 66.457031 L 55.792969 66.550781 C 55.085938 67.035156 54.113281 67.636719 52.863281 67.9375 C 52.039062 68.132812 51.273438 68.234375 50.542969 68.234375 C 50.242188 68.234375 49.949219 68.214844 49.660156 68.183594 C 49.53125 68.167969 49.398438 68.160156 49.261719 68.144531 C 48.527344 68.085938 47.527344 68.003906 46.503906 67.507812 C 45.441406 66.992188 44.683594 66.230469 44.078125 65.617188 L 43.964844 65.503906 C 43.195312 64.730469 42.792969 63.871094 42.472656 63.183594 C 42.417969 63.066406 42.359375 62.945312 42.304688 62.828125 C 41.960938 62.132812 41.542969 61.179688 41.339844 59.972656 C 41.3125 59.792969 41.269531 59.609375 41.226562 59.425781 C 41.082031 58.785156 40.90625 57.992188 40.929688 57.070312 Z M 125.339844 100.09375 C 124.878906 100.34375 124.378906 100.457031 123.886719 100.457031 C 122.804688 100.457031 121.757812 99.886719 121.199219 98.875 C 121.144531 98.796875 120.988281 98.625 120.871094 98.5 C 120.566406 98.167969 120.1875 97.753906 119.839844 97.214844 C 119.550781 96.761719 119.339844 96.3125 119.167969 95.949219 C 119.054688 95.707031 118.925781 95.433594 118.84375 95.316406 C 118.753906 95.195312 118.667969 95.074219 118.585938 94.953125 C 118.523438 95.023438 118.46875 95.09375 118.417969 95.15625 C 118.3125 95.285156 118.183594 95.496094 118.042969 95.726562 C 117.796875 96.125 117.488281 96.621094 117.070312 97.109375 C 116.59375 97.65625 116.09375 98.035156 115.691406 98.339844 C 115.539062 98.453125 115.335938 98.605469 115.273438 98.667969 C 115.109375 98.84375 114.933594 99.050781 114.75 99.277344 C 114.453125 99.632812 114.117188 100.039062 113.714844 100.4375 C 113.320312 100.832031 112.929688 101.171875 112.550781 101.503906 C 112.359375 101.675781 112.164062 101.847656 111.96875 102.023438 C 111.539062 102.421875 111.109375 102.734375 110.730469 103.007812 C 110.496094 103.175781 110.28125 103.335938 110.113281 103.476562 L 109.839844 103.710938 C 109.347656 104.128906 108.84375 104.554688 108.304688 104.980469 C 108.269531 105.011719 108.132812 105.183594 108.03125 105.304688 C 107.707031 105.691406 107.269531 106.226562 106.636719 106.6875 C 106.023438 107.128906 105.367188 107.582031 104.695312 108.03125 C 104.125 108.414062 103.566406 108.648438 103.117188 108.835938 C 102.90625 108.921875 102.667969 109.023438 102.566406 109.089844 L 102.488281 109.132812 C 101.863281 109.515625 101.214844 109.910156 100.535156 110.289062 C 100.40625 110.363281 100.207031 110.511719 99.996094 110.664062 C 99.617188 110.949219 99.140625 111.296875 98.554688 111.59375 C 98.027344 111.863281 97.523438 112.046875 97.078125 112.210938 C 96.8125 112.308594 96.558594 112.402344 96.363281 112.492188 C 95.71875 112.785156 95.085938 113.042969 94.476562 113.289062 L 94.179688 113.410156 C 93.960938 113.5 93.738281 113.59375 93.519531 113.6875 C 93.03125 113.894531 92.53125 114.105469 91.984375 114.300781 L 91.6875 114.410156 C 91.0625 114.632812 90.417969 114.863281 89.746094 115.074219 C 89.023438 115.300781 88.308594 115.496094 87.460938 115.71875 C 87.265625 115.769531 87.015625 115.859375 86.753906 115.957031 C 86.296875 116.117188 85.78125 116.304688 85.1875 116.433594 C 84.523438 116.578125 83.917969 116.597656 83.429688 116.613281 C 83.1875 116.621094 82.9375 116.628906 82.804688 116.652344 C 82.214844 116.753906 81.65625 116.816406 81.113281 116.878906 C 80.890625 116.902344 80.667969 116.929688 80.445312 116.957031 C 80.1875 116.988281 79.929688 117.03125 79.671875 117.074219 C 79.199219 117.152344 78.664062 117.242188 78.089844 117.289062 C 77.273438 117.351562 76.464844 117.378906 75.707031 117.402344 C 75.132812 117.421875 74.527344 117.433594 73.90625 117.433594 C 73.710938 117.433594 73.515625 117.433594 73.320312 117.429688 C 72.742188 117.417969 72.195312 117.359375 71.714844 117.308594 C 71.457031 117.28125 71.199219 117.253906 70.941406 117.238281 L 70.875 117.234375 C 70.132812 117.183594 69.359375 117.132812 68.570312 117.042969 C 68.351562 117.019531 68.085938 117.007812 67.808594 116.992188 C 67.328125 116.96875 66.785156 116.945312 66.191406 116.847656 C 65.9375 116.804688 65.675781 116.773438 65.417969 116.738281 C 64.9375 116.679688 64.394531 116.609375 63.832031 116.492188 C 63.105469 116.335938 62.324219 116.152344 61.507812 115.9375 C 60.707031 115.730469 60.089844 115.359375 59.640625 115.089844 C 59.53125 115.023438 59.386719 114.941406 59.308594 114.898438 C 59.226562 114.882812 59.035156 114.863281 58.886719 114.851562 C 58.390625 114.804688 57.707031 114.738281 56.972656 114.476562 C 56.359375 114.257812 55.550781 113.960938 54.75 113.632812 C 54.21875 113.414062 53.730469 113.167969 53.300781 112.949219 C 53.070312 112.832031 52.835938 112.714844 52.601562 112.605469 C 52.382812 112.503906 52.164062 112.40625 51.945312 112.308594 C 51.460938 112.097656 50.960938 111.875 50.445312 111.605469 C 49.792969 111.261719 49.308594 110.851562 48.921875 110.523438 C 48.777344 110.402344 48.585938 110.238281 48.511719 110.195312 C 48.34375 110.097656 48.109375 109.988281 47.863281 109.875 C 47.421875 109.671875 46.921875 109.4375 46.402344 109.101562 C 46.234375 108.992188 46 108.871094 45.753906 108.738281 C 45.328125 108.507812 44.839844 108.253906 44.34375 107.898438 C 43.84375 107.539062 43.441406 107.164062 43.082031 106.835938 C 42.878906 106.648438 42.691406 106.464844 42.53125 106.34375 C 42.421875 106.257812 42.203125 106.128906 41.992188 106 C 41.574219 105.753906 41.054688 105.445312 40.542969 105.007812 C 39.976562 104.515625 39.582031 103.976562 39.296875 103.582031 C 39.1875 103.433594 39.042969 103.234375 38.980469 103.171875 C 38.875 103.074219 38.679688 102.933594 38.472656 102.78125 C 38.082031 102.496094 37.597656 102.136719 37.128906 101.652344 C 36.710938 101.214844 36.339844 100.777344 35.988281 100.355469 C 35.84375 100.1875 35.703125 100.015625 35.558594 99.851562 C 35.058594 99.273438 34.605469 98.691406 34.167969 98.132812 L 34.054688 97.992188 C 33.511719 97.292969 33.058594 96.703125 32.617188 96.078125 C 32.578125 96.019531 32.542969 95.964844 32.507812 95.910156 C 32.175781 96.214844 31.855469 96.460938 31.570312 96.675781 C 31.359375 96.839844 31.117188 97.023438 31.027344 97.125 C 30.921875 97.242188 30.757812 97.496094 30.601562 97.742188 C 30.410156 98.042969 30.191406 98.390625 29.917969 98.746094 C 29.710938 99.011719 29.503906 99.261719 29.320312 99.484375 C 29.074219 99.773438 28.84375 100.046875 28.703125 100.273438 C 28.113281 101.183594 27.125 101.679688 26.117188 101.679688 C 25.550781 101.679688 24.972656 101.519531 24.460938 101.191406 C 23.035156 100.273438 22.625 98.375 23.542969 96.949219 C 23.898438 96.398438 24.28125 95.941406 24.621094 95.535156 C 24.769531 95.363281 24.914062 95.1875 25.054688 95.007812 C 25.15625 94.878906 25.28125 94.675781 25.417969 94.464844 C 25.683594 94.039062 26.019531 93.511719 26.480469 93.003906 C 26.953125 92.484375 27.449219 92.105469 27.851562 91.800781 C 28.050781 91.648438 28.234375 91.507812 28.351562 91.402344 C 29.011719 90.78125 29.613281 90.253906 30.191406 89.792969 C 30.753906 89.34375 31.316406 89.054688 31.769531 88.824219 C 31.980469 88.714844 32.179688 88.613281 32.292969 88.539062 C 32.4375 88.441406 32.621094 88.292969 32.816406 88.136719 C 33.199219 87.828125 33.679688 87.449219 34.269531 87.113281 L 34.585938 86.933594 C 35.160156 86.609375 35.753906 86.273438 36.425781 85.960938 C 37.230469 85.589844 38.027344 85.292969 38.699219 85.046875 C 40.289062 84.46875 42.050781 85.289062 42.628906 86.882812 C 43.207031 88.476562 42.382812 90.238281 40.792969 90.8125 C 40.238281 91.015625 39.589844 91.257812 38.988281 91.53125 C 38.558594 91.730469 38.101562 91.992188 37.617188 92.265625 L 37.511719 92.324219 C 37.554688 92.414062 37.601562 92.496094 37.632812 92.542969 C 38.003906 93.070312 38.402344 93.585938 38.886719 94.207031 L 39 94.351562 C 39.410156 94.878906 39.800781 95.375 40.195312 95.832031 C 40.355469 96.019531 40.515625 96.207031 40.675781 96.398438 C 40.984375 96.761719 41.277344 97.113281 41.566406 97.414062 C 41.65625 97.507812 41.890625 97.679688 42.09375 97.828125 C 42.414062 98.0625 42.8125 98.351562 43.203125 98.726562 C 43.660156 99.160156 43.984375 99.605469 44.246094 99.96875 C 44.355469 100.113281 44.5 100.316406 44.5625 100.375 C 44.644531 100.445312 44.890625 100.589844 45.109375 100.71875 C 45.453125 100.921875 45.886719 101.175781 46.3125 101.511719 C 46.679688 101.800781 46.992188 102.085938 47.265625 102.34375 C 47.5 102.566406 47.726562 102.773438 47.898438 102.898438 C 48.070312 103.019531 48.339844 103.164062 48.625 103.316406 C 48.957031 103.496094 49.335938 103.691406 49.722656 103.941406 C 49.890625 104.050781 50.160156 104.175781 50.445312 104.308594 C 50.792969 104.472656 51.183594 104.652344 51.59375 104.890625 C 52.132812 105.207031 52.550781 105.5625 52.886719 105.847656 C 53.03125 105.96875 53.222656 106.128906 53.296875 106.175781 C 53.625 106.351562 54.015625 106.519531 54.429688 106.703125 C 54.683594 106.816406 54.941406 106.929688 55.191406 107.046875 C 55.484375 107.183594 55.769531 107.328125 56.058594 107.472656 C 56.425781 107.65625 56.773438 107.832031 57.085938 107.960938 C 57.757812 108.238281 58.441406 108.488281 59.023438 108.699219 C 59.113281 108.714844 59.320312 108.738281 59.476562 108.753906 C 59.9375 108.796875 60.511719 108.851562 61.148438 109.050781 C 61.839844 109.265625 62.394531 109.59375 62.796875 109.832031 C 62.902344 109.898438 63.050781 109.984375 63.125 110.023438 C 63.828125 110.207031 64.488281 110.363281 65.101562 110.492188 C 65.417969 110.558594 65.792969 110.605469 66.195312 110.65625 C 66.523438 110.699219 66.855469 110.742188 67.183594 110.792969 C 67.421875 110.832031 67.746094 110.847656 68.089844 110.863281 C 68.445312 110.878906 68.847656 110.898438 69.277344 110.949219 C 69.925781 111.023438 70.585938 111.066406 71.292969 111.117188 L 71.359375 111.117188 C 71.695312 111.140625 72.03125 111.175781 72.363281 111.210938 C 72.753906 111.253906 73.125 111.292969 73.441406 111.296875 C 74.121094 111.3125 74.816406 111.292969 75.527344 111.273438 C 76.242188 111.25 76.9375 111.226562 77.621094 111.171875 C 77.925781 111.148438 78.285156 111.089844 78.664062 111.027344 C 78.988281 110.972656 79.328125 110.914062 79.695312 110.871094 C 79.941406 110.839844 80.1875 110.8125 80.4375 110.78125 C 80.910156 110.730469 81.363281 110.679688 81.777344 110.609375 C 82.324219 110.515625 82.832031 110.496094 83.238281 110.484375 C 83.476562 110.476562 83.769531 110.46875 83.882812 110.445312 C 84.089844 110.398438 84.378906 110.292969 84.683594 110.1875 C 85.042969 110.058594 85.445312 109.914062 85.898438 109.796875 C 86.667969 109.59375 87.304688 109.417969 87.925781 109.226562 C 88.472656 109.054688 89.027344 108.855469 89.617188 108.648438 L 89.921875 108.535156 C 90.304688 108.402344 90.703125 108.230469 91.128906 108.050781 C 91.378906 107.945312 91.625 107.839844 91.878906 107.738281 L 92.175781 107.617188 C 92.757812 107.382812 93.300781 107.160156 93.824219 106.921875 C 94.230469 106.738281 94.625 106.59375 94.972656 106.464844 C 95.289062 106.351562 95.585938 106.242188 95.792969 106.136719 C 95.917969 106.074219 96.152344 105.898438 96.359375 105.75 C 96.683594 105.511719 97.085938 105.214844 97.558594 104.949219 C 98.132812 104.632812 98.699219 104.28125 99.296875 103.917969 L 99.375 103.871094 C 99.871094 103.566406 100.351562 103.367188 100.738281 103.199219 C 100.9375 103.117188 101.210938 103.003906 101.296875 102.941406 C 101.894531 102.542969 102.472656 102.144531 103.011719 101.753906 C 103.074219 101.691406 103.199219 101.539062 103.296875 101.421875 C 103.585938 101.074219 103.976562 100.597656 104.519531 100.167969 C 104.960938 99.820312 105.398438 99.449219 105.859375 99.054688 L 106.144531 98.816406 C 106.484375 98.523438 106.824219 98.277344 107.121094 98.0625 C 107.390625 97.867188 107.644531 97.679688 107.820312 97.523438 C 108.042969 97.316406 108.273438 97.113281 108.507812 96.910156 C 108.828125 96.628906 109.128906 96.363281 109.390625 96.105469 C 109.589844 95.910156 109.804688 95.648438 110.035156 95.371094 C 110.253906 95.109375 110.507812 94.808594 110.785156 94.507812 C 111.210938 94.050781 111.65625 93.714844 112.007812 93.453125 C 112.160156 93.339844 112.367188 93.183594 112.425781 93.121094 C 112.523438 93.011719 112.671875 92.769531 112.820312 92.53125 C 113.039062 92.175781 113.285156 91.777344 113.609375 91.363281 C 113.875 91.03125 114.140625 90.734375 114.378906 90.472656 C 114.386719 90.464844 114.398438 90.453125 114.40625 90.445312 C 114.164062 90.25 113.878906 90.046875 113.574219 89.832031 C 113.351562 89.675781 113.132812 89.519531 112.914062 89.359375 C 111.632812 88.410156 110.109375 88.101562 109.71875 86.285156 C 109.34375 84.542969 110.769531 82.769531 112.5 82.601562 C 113.96875 82.460938 115.445312 83.601562 116.566406 84.429688 C 116.742188 84.5625 116.925781 84.691406 117.109375 84.816406 C 117.582031 85.152344 118.121094 85.53125 118.648438 85.996094 C 119.148438 86.4375 119.558594 86.894531 119.921875 87.304688 C 120.089844 87.488281 120.253906 87.675781 120.425781 87.851562 C 120.570312 88 120.769531 88.175781 120.984375 88.359375 C 121.386719 88.707031 121.839844 89.101562 122.277344 89.613281 C 122.703125 90.113281 123.035156 90.613281 123.332031 91.054688 C 123.484375 91.285156 123.628906 91.503906 123.761719 91.679688 C 124.214844 92.289062 124.496094 92.886719 124.722656 93.371094 C 124.824219 93.585938 124.925781 93.804688 124.992188 93.914062 C 125.058594 94.019531 125.238281 94.210938 125.394531 94.382812 C 125.761719 94.785156 126.21875 95.28125 126.582031 95.960938 C 127.386719 97.429688 126.828125 99.292969 125.339844 100.09375 Z M 125.339844 100.09375 " fill-opacity="1" fill-rule="nonzero"/></svg>