<svg xmlns="http://www.w3.org/2000/svg" xmlns:xlink="http://www.w3.org/1999/xlink" width="200" zoomAndPan="magnify" viewBox="0 0 150 149.999998" height="200" preserveAspectRatio="xMidYMid meet" version="1.0"><defs><clipPath id="c1b017f2e3"><path d="M 8 7 L 145 7 L 145 143.28125 L 8 143.28125 Z M 8 7 " clip-rule="nonzero"/></clipPath></defs><path fill="#ffffff" d="M 0.816406 73.894531 C 1.269531 71.929688 1.269531 69.9375 0.816406 68.003906 C 0.03125 69.847656 0 72.050781 0.816406 73.894531 Z M 0.816406 73.894531 " fill-opacity="1" fill-rule="nonzero"/><g clip-path="url(#c1b017f2e3)"><path fill="#ffffff" d="M 137.347656 105.242188 C 146.707031 88.449219 147.464844 69.425781 139.519531 51.636719 C 121.339844 10.988281 94.160156 6.820312 75.285156 7.242188 C 57.226562 7.636719 41.253906 14.402344 29.113281 26.78125 C 18.121094 37.957031 10.871094 53.269531 8.667969 69.878906 C 7.429688 79.269531 8.484375 89.476562 11.71875 99.414062 C 15.128906 109.859375 20.777344 119.191406 28.054688 126.472656 C 36.027344 134.445312 49.285156 143.171875 68.976562 143.171875 C 71.996094 143.171875 75.195312 142.960938 78.546875 142.507812 C 91.683594 140.726562 103.613281 136.4375 114.003906 129.730469 C 123.90625 123.332031 132 114.84375 137.347656 105.242188 Z M 77.640625 135.742188 C 55.355469 138.730469 41.011719 129.730469 32.886719 121.609375 C 20.113281 108.863281 13.105469 88.417969 15.433594 70.785156 C 17.425781 55.625 24.039062 41.703125 33.972656 31.585938 C 44.875 20.5 59.222656 14.429688 75.4375 14.097656 C 82.746094 13.949219 93.738281 14.402344 104.582031 20.199219 C 116.265625 26.449219 125.929688 37.988281 133.269531 54.445312 C 140.304688 70.210938 139.640625 87.089844 131.367188 101.949219 C 121.339844 119.917969 101.257812 132.570312 77.640625 135.742188 Z M 77.640625 135.742188 " fill-opacity="1" fill-rule="nonzero"/></g><path fill="#ffffff" d="M 91.988281 68.730469 C 98.359375 64.621094 96.09375 50.066406 91.988281 49.582031 C 88.695312 49.191406 86.792969 51.425781 86.519531 56.410156 C 86.339844 59.789062 84.738281 73.378906 91.988281 68.730469 Z M 91.988281 68.730469 " fill-opacity="1" fill-rule="nonzero"/><path fill="#ffffff" d="M 63.691406 68.609375 C 69.640625 63.929688 65.984375 49.644531 61.878906 49.554688 C 58.554688 49.492188 56.867188 51.878906 57.078125 56.890625 C 57.226562 60.242188 56.925781 73.925781 63.691406 68.609375 Z M 63.691406 68.609375 " fill-opacity="1" fill-rule="nonzero"/><path fill="#ffffff" d="M 117.71875 82.167969 C 114.0625 80.808594 109.050781 80.808594 109.503906 82.621094 C 109.957031 84.433594 112.703125 84.886719 112.703125 84.886719 C 112.703125 84.886719 110.5 97.691406 91.113281 103.820312 C 71.421875 110.042969 61.394531 105.90625 55.324219 102.222656 C 47.109375 97.207031 38.925781 86.277344 38.925781 86.277344 C 38.925781 86.277344 43.941406 83.527344 43.035156 81.261719 C 42.128906 78.996094 37.566406 80.808594 34.820312 83.074219 C 32.070312 85.339844 30.257812 86.730469 30.257812 88.539062 C 30.257812 90.351562 34.636719 88.539062 34.636719 88.539062 C 34.636719 88.539062 39.351562 103.125 55.746094 109.953125 C 72.144531 116.777344 87.183594 113.605469 96.304688 109.046875 C 105.425781 104.484375 114.515625 97.660156 117.265625 87.632812 C 117.265625 87.632812 121.371094 89.898438 122.277344 87.632812 C 123.183594 85.371094 121.371094 83.558594 117.71875 82.167969 Z M 117.71875 82.167969 " fill-opacity="1" fill-rule="nonzero"/><path fill="#ffffff" d="M 149.273438 87.332031 C 148.128906 90.203125 147.886719 93.402344 148.609375 96.421875 C 149.789062 93.554688 150 90.351562 149.273438 87.332031 Z M 149.273438 87.332031 " fill-opacity="1" fill-rule="nonzero"/><path fill="#ffffff" d="M 105.003906 140.03125 C 115.148438 138.914062 124.753906 133.898438 132.121094 126.894531 C 139.519531 119.828125 144.503906 110.34375 146.527344 100.378906 C 144.351562 106.328125 141.695312 111.976562 138.101562 117.109375 C 130.28125 128.402344 118.261719 136.585938 105.003906 140.03125 Z M 105.003906 140.03125 " fill-opacity="1" fill-rule="nonzero"/><path fill="#ffffff" d="M 45.722656 8.84375 C 27.542969 14.128906 13.378906 29.5 6.433594 46.773438 C 4.105469 52.601562 2.445312 58.671875 1.570312 64.804688 C 4.800781 52.875 9.632812 41.339844 17.121094 31.492188 C 24.550781 21.738281 34.335938 13.554688 45.722656 8.84375 Z M 45.722656 8.84375 " fill-opacity="1" fill-rule="nonzero"/></svg>