<svg xmlns="http://www.w3.org/2000/svg" xmlns:xlink="http://www.w3.org/1999/xlink" width="200" zoomAndPan="magnify" viewBox="0 0 150 149.999998" height="200" preserveAspectRatio="xMidYMid meet" version="1.0"><path fill="#ffffff" d="M 77.691406 28.933594 C 76.875 29.167969 76.050781 29.382812 75.234375 29.621094 C 75.394531 28.085938 74.894531 26.351562 74.851562 24.832031 C 74.84375 24.492188 74.84375 24.152344 74.84375 23.8125 C 75.253906 24.289062 75.730469 24.71875 76.179688 25.164062 C 75.972656 25.335938 75.824219 25.574219 75.878906 25.882812 C 76.121094 27.230469 76.359375 28.429688 77.691406 28.933594 Z M 142.589844 37.824219 C 140.113281 42.425781 137.191406 46.636719 135.070312 51.441406 C 130.828125 61.054688 128.726562 71.421875 124.03125 80.808594 C 116.691406 70.773438 97.457031 48.558594 95.683594 48.800781 C 79.691406 50.984375 66.917969 59.46875 55.457031 70.375 C 45.914062 79.449219 43.566406 91.753906 41.21875 104.046875 C 36.4375 99.785156 31.597656 95.351562 26.484375 91.371094 C 26.3125 91.066406 26.027344 90.875 25.71875 90.785156 C 18.933594 85.601562 11.621094 81.289062 3.195312 79.476562 C 3.109375 79.167969 2.929688 78.9375 2.71875 78.800781 C 6.238281 74.394531 9.367188 69.75 13.390625 65.6875 C 19.734375 59.257812 27.394531 54.183594 35.128906 49.601562 C 49.578125 41.039062 65.695312 35 82.074219 31.414062 C 83.066406 31.195312 83.40625 30.386719 83.300781 29.605469 C 84.222656 29.316406 84.828125 28.222656 83.921875 27.390625 C 79.535156 23.359375 76.367188 18.757812 73.476562 13.746094 C 93.683594 13.015625 113.933594 21.003906 132.964844 26.6875 C 138.609375 28.367188 147.128906 29.394531 142.589844 37.824219 Z M 143.550781 46.097656 C 143.347656 48.699219 142.800781 51.382812 142.359375 54.074219 C 142.414062 53.195312 142.496094 52.324219 142.546875 51.449219 C 142.597656 50.597656 142 50.164062 141.347656 50.125 C 142.039062 48.671875 142.832031 47.261719 143.617188 45.847656 C 143.597656 45.929688 143.554688 46 143.550781 46.097656 Z M 138.972656 60.632812 C 138.863281 61.730469 138.691406 62.871094 138.585938 64.011719 C 138.574219 63.964844 138.574219 63.910156 138.566406 63.863281 C 138.4375 62.011719 138.207031 60.183594 137.882812 58.375 C 138.398438 56.988281 138.953125 55.609375 139.519531 54.230469 C 139.339844 56.367188 139.171875 58.5 138.972656 60.632812 Z M 135.34375 79.402344 C 134.5 81.957031 133.675781 84.519531 132.84375 87.070312 C 132.851562 86.382812 132.84375 85.6875 132.851562 84.988281 C 132.867188 83.1875 132.78125 81.382812 132.628906 79.574219 C 132.789062 79.902344 132.925781 80.246094 133.195312 80.480469 C 133.558594 80.796875 134.035156 80.808594 134.394531 80.480469 C 136.007812 79.03125 135.183594 75.921875 135.007812 73.988281 C 134.820312 71.988281 134.6875 69.964844 134.445312 67.96875 C 134.957031 66.503906 135.464844 65.042969 135.980469 63.578125 C 136 64.113281 136.054688 64.644531 136.066406 65.179688 C 136.136719 67.871094 135.675781 70.773438 136.785156 73.261719 C 136.867188 73.445312 137.039062 73.542969 137.226562 73.59375 C 136.578125 75.589844 135.945312 77.558594 135.34375 79.402344 Z M 130.136719 94.976562 C 129.796875 95.902344 129.414062 96.800781 128.996094 97.683594 C 128.828125 96.03125 128.601562 94.386719 128.507812 92.875 C 128.289062 89.335938 128.574219 85.886719 128.671875 82.402344 C 129.183594 81.375 129.632812 80.324219 130.09375 79.28125 C 130.105469 80.675781 130.121094 82.074219 130.132812 83.480469 C 130.140625 86.5625 129.316406 89.816406 130.042969 92.804688 C 130.132812 93.144531 130.402344 93.324219 130.695312 93.34375 C 130.5 93.886719 130.332031 94.4375 130.136719 94.976562 Z M 124.9375 105.429688 C 124.777344 104.277344 124.558594 103.128906 124.257812 101.980469 C 124.195312 99.964844 124.015625 97.949219 123.933594 95.980469 C 123.8125 93.160156 123.695312 90.328125 123.511719 87.496094 C 124.289062 87.796875 125.230469 87.628906 125.902344 87.132812 C 125.890625 88.226562 125.894531 89.289062 125.902344 90.242188 C 125.9375 94.070312 125.691406 98.671875 126.453125 102.5625 C 125.9375 103.515625 125.421875 104.460938 124.9375 105.429688 Z M 114.664062 83.375 C 114.597656 83.761719 114.519531 84.167969 114.445312 84.574219 C 114.144531 84.226562 113.867188 83.839844 113.5625 83.503906 C 113.742188 79.9375 113.734375 76.351562 113.570312 72.773438 C 114.253906 73.90625 114.917969 75.042969 115.59375 76.1875 C 115.414062 78.597656 115.085938 80.984375 114.664062 83.375 Z M 110.769531 80.625 C 110.527344 80.386719 110.292969 80.125 110.042969 79.890625 C 110.488281 78.617188 110.148438 76.566406 110.203125 75.359375 C 110.332031 72.601562 110.082031 69.796875 109.804688 67.023438 C 110.535156 68.015625 111.21875 69.070312 111.894531 70.125 C 111.515625 73.601562 111.023438 77.113281 110.769531 80.625 Z M 107.304688 72.375 C 107.277344 72.074219 107.234375 71.769531 107.21875 71.496094 C 107.097656 68.765625 106.914062 66.035156 106.75 63.308594 C 106.804688 63.347656 106.871094 63.394531 106.929688 63.433594 C 107.265625 63.78125 107.519531 64.210938 107.84375 64.578125 C 107.625 67.175781 107.46875 69.773438 107.304688 72.375 Z M 104.617188 70.386719 C 104.621094 71.707031 104.3125 73.601562 104.429688 75.261719 C 103.894531 74.882812 103.363281 74.5 102.828125 74.15625 C 102.859375 72.726562 102.421875 70.835938 102.386719 70.402344 C 102.234375 68.230469 102.152344 66.035156 102.167969 63.855469 C 102.179688 63.214844 101.992188 61.0625 102.207031 59.625 C 103.027344 60.4375 103.878906 61.207031 104.773438 61.917969 C 104.683594 64.738281 104.597656 67.5625 104.617188 70.386719 Z M 101.246094 61.683594 C 100.757812 63.589844 100.605469 65.589844 100.4375 67.542969 C 100.382812 68.203125 100.1875 69.742188 100.144531 71.3125 C 99.988281 69.585938 99.605469 67.808594 99.511719 66.488281 C 99.324219 63.730469 99.402344 60.789062 99.222656 57.917969 C 100.226562 58.335938 101.113281 58.886719 102 59.433594 L 102.117188 59.539062 C 101.800781 60.320312 101.382812 61.144531 101.246094 61.683594 Z M 93.527344 54.109375 C 94.140625 53.976562 94.753906 53.832031 95.363281 53.730469 C 94.949219 55.777344 94.90625 57.96875 94.988281 60.152344 C 94.613281 57.972656 94.101562 55.917969 93.527344 54.109375 Z M 95.839844 75.382812 C 94.9375 76.132812 94.125 76.976562 93.257812 77.757812 C 94.476562 75.6875 95.152344 73.199219 95.441406 70.527344 C 95.515625 72.183594 95.734375 73.839844 96.480469 75.042969 C 96.265625 75.109375 96.046875 75.21875 95.839844 75.382812 Z M 88.773438 81.886719 C 90.605469 73.792969 92.183594 62.703125 88.800781 55.296875 C 89.640625 55.050781 90.488281 54.824219 91.328125 54.609375 C 91.992188 58.621094 92.328125 62.59375 92.300781 66.667969 C 92.277344 70.402344 91.195312 74.167969 91.503906 77.875 C 91.554688 78.355469 91.921875 78.621094 92.316406 78.628906 C 91.140625 79.71875 89.910156 80.757812 88.773438 81.886719 Z M 87.339844 68.679688 C 87.046875 73.777344 85.875 78.800781 85.652344 83.898438 L 85.660156 83.898438 C 85.65625 84.230469 85.773438 84.511719 85.980469 84.71875 C 83.242188 87.636719 80.632812 90.675781 78.167969 93.832031 C 77.933594 88.628906 76.984375 83.476562 76.960938 78.210938 C 76.925781 72.292969 77.46875 66.402344 77.207031 60.480469 C 77.195312 60.25 77.085938 60.101562 76.972656 59.957031 C 78.746094 59.039062 80.578125 58.230469 82.425781 57.472656 C 81.898438 66.742188 80.121094 77.285156 82.21875 86.105469 C 82.390625 86.832031 83.492188 86.816406 83.667969 86.105469 C 84.734375 81.785156 84.433594 77.171875 84.539062 72.738281 C 84.660156 67.355469 84.765625 61.988281 84.6875 56.605469 C 85.433594 56.332031 86.199219 56.128906 86.953125 55.886719 C 87.207031 60.175781 87.589844 64.3125 87.339844 68.679688 Z M 72.925781 100.949219 C 73.253906 88.777344 72.742188 75.992188 72.152344 63.828125 C 72.128906 63.390625 71.761719 63.238281 71.441406 63.3125 C 72.714844 62.496094 73.945312 61.625 75.253906 60.894531 C 74.5 71.433594 71.746094 85.953125 76.765625 95.71875 C 75.464844 97.441406 74.15625 99.171875 72.925781 100.949219 Z M 68.628906 107.335938 C 68.046875 108.253906 67.460938 109.230469 66.890625 110.222656 C 66.914062 110.144531 66.957031 110.082031 66.953125 109.996094 C 66.59375 104.042969 63.871094 97.828125 63.214844 91.710938 C 62.445312 84.589844 62.460938 77.4375 62.265625 70.292969 C 64.976562 67.75 68.003906 65.546875 71.144531 63.507812 C 71.074219 63.59375 71 63.679688 70.992188 63.828125 C 70.230469 75.855469 67.734375 90.5 71.589844 102.140625 C 71.644531 102.3125 71.753906 102.433594 71.878906 102.507812 C 70.785156 104.113281 69.65625 105.695312 68.628906 107.335938 Z M 64.738281 114.089844 C 64.613281 112.375 64.433594 110.644531 64.210938 108.890625 C 64.644531 109.515625 65.132812 110.066406 65.695312 110.511719 C 65.996094 110.753906 66.445312 110.734375 66.722656 110.507812 C 66.054688 111.664062 65.394531 112.863281 64.738281 114.089844 Z M 60.636719 90.457031 C 59.414062 85.648438 58.003906 80.917969 56.527344 76.425781 C 56.628906 76.296875 56.703125 76.164062 56.820312 76.03125 C 57.996094 74.585938 59.253906 73.1875 60.582031 71.84375 C 59.996094 78.019531 60.171875 84.28125 60.636719 90.457031 Z M 60.371094 123.265625 C 59.125 118.0625 57.472656 112.894531 56.84375 107.453125 C 56.109375 101.210938 55.929688 94.132812 53.058594 88.445312 C 52.945312 88.210938 52.554688 88.320312 52.566406 88.582031 C 52.945312 96.066406 53.933594 103.671875 54.734375 111.148438 C 52.363281 103.148438 48.285156 95.460938 50.820312 86.761719 C 50.851562 86.652344 50.796875 86.582031 50.789062 86.492188 C 51.945312 83.628906 53.371094 80.855469 55.222656 78.210938 C 57.4375 90.59375 58.890625 104.226562 63.589844 115.515625 C 63.636719 115.644531 63.742188 115.734375 63.851562 115.804688 C 62.625 118.214844 61.4375 120.714844 60.371094 123.265625 Z M 57.234375 131.964844 C 53.980469 122.070312 47.816406 113.03125 46.429688 102.679688 C 47.035156 99.550781 47.679688 96.464844 48.488281 93.449219 C 48.503906 95.144531 48.707031 96.847656 48.960938 98.542969 C 48.796875 98.605469 48.667969 98.722656 48.652344 98.953125 C 48.351562 106.144531 50.050781 115.953125 55.160156 121.386719 C 55.445312 121.695312 55.90625 121.476562 55.980469 121.117188 C 56.503906 123.636719 57.273438 126.0625 58.59375 127.945312 C 58.121094 129.285156 57.613281 130.628906 57.234375 131.964844 Z M 52.167969 143.835938 C 50.882812 139.246094 49.210938 134.757812 47.78125 130.203125 C 49.300781 133.371094 50.765625 136.542969 51.839844 139.90625 C 52.269531 141.269531 52.320312 142.625 52.414062 143.960938 C 52.328125 143.921875 52.253906 143.875 52.167969 143.835938 Z M 45.332031 139.535156 C 43.402344 127.433594 39.527344 116.339844 35.113281 105.046875 C 36.375 106.175781 37.640625 107.296875 38.902344 108.417969 C 41.464844 118.957031 43.089844 131.261719 47.855469 141.1875 C 47.015625 140.636719 46.164062 140.109375 45.332031 139.535156 Z M 38.429688 134.710938 C 38.355469 134.65625 38.265625 134.585938 38.1875 134.535156 C 38.417969 134.207031 38.503906 133.789062 38.304688 133.324219 C 36.242188 127.5 34.800781 121.660156 33.386719 115.644531 C 32.007812 109.8125 29.507812 104.410156 27.941406 98.703125 C 29.039062 99.636719 30.105469 100.609375 31.1875 101.570312 C 31.1875 101.695312 31.175781 101.820312 31.21875 101.964844 C 33.242188 109.496094 37.332031 116.261719 38.714844 123.976562 C 39.484375 128.25 39.8125 132.785156 41.367188 136.78125 C 40.394531 136.089844 39.410156 135.394531 38.429688 134.710938 Z M 24.945312 125.359375 C 25.316406 125.0625 25.53125 124.59375 25.34375 124.023438 C 23.53125 118.289062 22.207031 112.441406 20.425781 106.710938 C 18.570312 100.710938 16.359375 95.117188 15.171875 89.023438 C 16.699219 89.976562 18.136719 91.0625 19.589844 92.117188 C 21.996094 97.140625 24.195312 111.03125 24.710938 113.085938 C 25.371094 115.703125 26.867188 128.058594 30.753906 128.054688 C 31.09375 128.054688 31.472656 127.871094 31.621094 127.554688 C 32.574219 125.644531 30.550781 122.535156 29.988281 120.667969 C 28.527344 115.839844 27.402344 110.90625 26.089844 106.039062 C 25.496094 103.796875 24.664062 98.738281 23.074219 94.679688 C 23.554688 95.0625 24.023438 95.46875 24.503906 95.859375 C 25.355469 102.128906 27.585938 108 29.421875 114.132812 C 31.144531 119.917969 31.761719 125.875 33.96875 131.433594 C 31.21875 129.378906 28.136719 127.140625 24.945312 125.359375 Z M 20.328125 123.199219 C 17.027344 110.804688 13.167969 98.597656 9.765625 86.226562 C 11.011719 86.816406 12.210938 87.402344 13.34375 88 C 13.261719 93.910156 15.230469 99.519531 16.996094 105.167969 C 18.957031 111.457031 19.296875 118.210938 22.40625 124.070312 C 21.714844 123.746094 21.015625 123.449219 20.328125 123.199219 Z M 15.460938 122.152344 C 15.132812 108.953125 8.363281 96.101562 4.394531 83.445312 C 5.558594 84.15625 6.816406 84.800781 8.09375 85.421875 C 8.777344 92.785156 11.808594 99.941406 13.964844 106.941406 C 15.414062 111.671875 15.425781 117.503906 17.082031 122.378906 C 16.542969 122.300781 15.996094 122.164062 15.460938 122.152344 Z M 69.820312 16.765625 C 70.914062 18.59375 72.101562 20.355469 73.378906 22.027344 C 73.304688 22.964844 73.238281 23.894531 73.203125 24.832031 C 73.160156 26.394531 72.96875 28.582031 73.785156 30.050781 C 73.550781 30.121094 73.3125 30.195312 73.070312 30.265625 C 72.515625 25.671875 70.609375 21.289062 69.820312 16.765625 Z M 146.472656 26.441406 C 142.066406 23.566406 136.714844 22.636719 131.722656 21.152344 C 124.195312 18.910156 116.699219 16.570312 109.121094 14.460938 C 96.410156 10.917969 82.824219 7.683594 69.566406 9.277344 C 69.019531 9.339844 68.566406 9.582031 68.164062 9.890625 C 67.640625 9.957031 67.136719 10.25 66.941406 10.789062 C 64.5 17.441406 69.386719 24.554688 69.949219 31.152344 C 57.304688 35.089844 45.113281 40.402344 33.625 47.027344 C 21.367188 54.085938 3.882812 65.808594 0.132812 80.410156 C 0.0390625 80.75 0.332031 81.050781 0.636719 81.078125 C 0 95.578125 9.726562 109.570312 11.179688 124.042969 C 11.40625 126.269531 14.050781 126.730469 15.097656 125.324219 C 23.460938 129.996094 31.285156 135.214844 39.15625 140.773438 C 42.433594 143.09375 52.320312 152.621094 56.417969 148.371094 C 56.628906 148.160156 56.703125 147.878906 56.742188 147.589844 C 58.125 145.6875 65.386719 120.371094 70.101562 112.019531 C 77.523438 98.894531 87.519531 88.222656 98.148438 77.6875 C 98.59375 77.253906 98.6875 76.769531 98.601562 76.324219 C 98.851562 76.25 99.035156 76.042969 99.226562 75.867188 C 100.210938 79.253906 105.800781 82.390625 107.9375 84.621094 C 115.070312 92.019531 118.269531 100.265625 121.078125 109.882812 C 121.679688 111.945312 124.460938 111.726562 125.046875 109.933594 C 130.640625 105.925781 133.007812 96.929688 135.183594 90.8125 C 138.082031 82.699219 140.828125 74.855469 144.070312 67.085938 C 144.816406 67.058594 146.277344 62.925781 146.515625 61.539062 C 147.089844 60.277344 147.625 59.015625 148.234375 57.75 C 148.632812 56.941406 148.292969 48.917969 148.699219 45.378906 C 149.070312 42.125 149.40625 38.871094 149.578125 35.597656 C 149.601562 35.070312 149.492188 34.621094 149.351562 34.199219 C 149.984375 31.25 149.496094 28.417969 146.472656 26.441406 " fill-opacity="1" fill-rule="nonzero"/></svg>