<svg xmlns="http://www.w3.org/2000/svg" xmlns:xlink="http://www.w3.org/1999/xlink" width="200" zoomAndPan="magnify" viewBox="0 0 150 80.999996" height="108" preserveAspectRatio="xMidYMid meet" version="1.0"><defs><clipPath id="0f6d85efbf"><path d="M 0 0.59375 L 150 0.59375 L 150 80.09375 L 0 80.09375 Z M 0 0.59375 " clip-rule="nonzero"/></clipPath><clipPath id="46daa540ba"><path d="M 0 0.59375 L 150 0.59375 L 150 81 L 0 81 Z M 0 0.59375 " clip-rule="nonzero"/></clipPath><clipPath id="4584070faa"><path d="M 1.777344 1 L 148.027344 1 L 148.027344 80 L 1.777344 80 Z M 1.777344 1 " clip-rule="nonzero"/></clipPath></defs><g clip-path="url(#0f6d85efbf)"><path fill="#ffffff" d="M 144.605469 73.070312 C 143.125 71.113281 141.265625 69.417969 139.535156 67.699219 C 139.023438 67.238281 138.507812 66.777344 138.003906 66.316406 C 136.691406 64.582031 135.070312 63.234375 133.554688 61.710938 C 132.945312 61.046875 132.324219 60.378906 131.710938 59.714844 C 129.964844 58.421875 128.210938 57.121094 126.492188 55.878906 C 125.714844 55.320312 124.773438 54.929688 124.1875 54.1875 C 123.523438 54.1875 122.859375 54.1875 122.195312 54.1875 C 121.769531 53.921875 121.015625 52.226562 120.664062 51.730469 C 119.617188 50.242188 118.332031 48.761719 117.285156 47.285156 C 116.691406 46.441406 116.3125 45.539062 115.59375 44.828125 C 114.75 44.253906 113.371094 44.925781 112.21875 44.519531 C 110.632812 43.136719 109.046875 41.753906 107.457031 40.371094 C 106.589844 38.804688 107.191406 36.3125 106.226562 34.84375 C 106.050781 33.761719 105.171875 33.601562 104.535156 33 C 103.257812 31.792969 101.9375 30.367188 100.539062 29.3125 C 100.007812 28.914062 99.015625 28.496094 98.695312 27.929688 C 98.589844 27.417969 98.492188 26.902344 98.386719 26.398438 C 97.464844 25.53125 96.542969 24.660156 95.621094 23.785156 C 94.957031 22.816406 94.699219 21.71875 94.085938 20.707031 C 93.164062 19.210938 92.058594 17.625 91.171875 16.101562 C 90.3125 14.621094 89.957031 11.6875 89.019531 10.421875 C 88.496094 9.710938 87.28125 9.117188 86.5625 8.578125 C 84.445312 6.992188 82.683594 4.792969 80.574219 3.207031 C 79.554688 2.4375 78.214844 1.664062 77.5 0.59375 C 76.453125 1.089844 75.71875 2.453125 75.042969 3.359375 C 73.6875 5.167969 71.976562 6.742188 70.597656 8.578125 C 69.773438 9.667969 68.503906 10.554688 67.679688 11.652344 C 67.121094 12.386719 66.554688 13.550781 65.835938 14.105469 C 64.898438 14.832031 63.613281 14.964844 62.613281 15.640625 C 62.140625 15.960938 61.726562 16.492188 61.230469 16.871094 C 58.773438 18.722656 57.066406 21.753906 54.476562 23.472656 C 54.476562 24.546875 54.476562 25.625 54.476562 26.699219 C 53.40625 29.261719 52.324219 31.820312 51.25 34.371094 C 50.515625 34.523438 49.230469 34.59375 48.636719 34.984375 C 47.238281 35.160156 46.695312 36.953125 46.023438 37.898438 C 44.960938 39.414062 43.570312 40.851562 42.488281 42.347656 C 42.203125 42.738281 42.070312 43.421875 41.71875 43.730469 C 40.945312 43.988281 40.183594 44.246094 39.414062 44.5 C 38.640625 44.359375 38.21875 43.675781 37.878906 43.117188 C 36.800781 43.074219 34.699219 43.023438 33.882812 42.507812 C 32.402344 42.570312 32.367188 43.347656 31.730469 44.199219 C 30.535156 45.804688 28.496094 47.308594 27.582031 49.109375 C 27.328125 50.339844 27.070312 51.5625 26.8125 52.796875 C 26.464844 53.273438 25.605469 53.65625 25.121094 54.027344 C 23.765625 55.046875 22.640625 56.542969 21.28125 57.5625 C 20.75 57.960938 19.988281 58.273438 19.589844 58.792969 C 17.480469 61.566406 15.328125 64.316406 13.300781 67.089844 C 12.554688 68.097656 11.863281 69.367188 11.03125 70.402344 L 0.0429688 80.398438 L 14.175781 78.609375 C 59.171875 78.609375 104.1875 78.609375 149.1875 78.609375 C 149.445312 78.609375 149.699219 78.609375 149.957031 78.609375 C 149.371094 76.90625 145.773438 74.621094 144.605469 73.070312 Z M 110.824219 45.894531 C 110.824219 45.945312 110.824219 46 110.824219 46.042969 C 109.773438 45.820312 107.175781 45.636719 106.378906 45.121094 C 105.667969 44.9375 102.46875 39.761719 102.230469 38.832031 C 105.09375 41.1875 107.964844 43.542969 110.824219 45.894531 Z M 103.914062 34.53125 C 103.914062 34.585938 103.914062 34.640625 103.914062 34.683594 C 103.265625 34.53125 102.53125 34.285156 102.070312 33.914062 C 101.21875 34 101.414062 34.230469 101 34.683594 C 100.945312 34.734375 100.894531 34.789062 100.847656 34.832031 C 100.511719 34.117188 100.085938 32.820312 99.464844 32.378906 C 98.347656 31.589844 96.160156 31.085938 95.46875 29.925781 C 95.113281 29.320312 94.964844 28.648438 94.699219 28.082031 C 98.882812 28.746094 100.554688 32.867188 103.914062 34.53125 Z M 101 41.90625 C 101 42.011719 101 42.109375 101 42.214844 C 99.839844 41.460938 96.71875 38.582031 96.242188 37.304688 C 95.914062 36.429688 95.929688 35.347656 95.78125 34.542969 C 96.710938 35.195312 97.117188 36.515625 97.773438 37.457031 C 98.421875 38.371094 99.316406 39.265625 99.925781 40.222656 C 100.324219 40.851562 100.441406 41.445312 101 41.90625 Z M 97.3125 50.039062 C 97.976562 50.542969 98.6875 50.871094 99.15625 51.574219 C 98.277344 51.183594 95.273438 50.449219 94.707031 49.878906 C 94.484375 49.660156 92.820312 46.433594 92.714844 46.042969 C 94.460938 47.097656 95.726562 48.84375 97.3125 50.039062 Z M 83.648438 8.125 C 84.800781 8.996094 86.539062 10.011719 87.335938 11.199219 C 88.292969 12.628906 88.476562 14.664062 89.179688 16.269531 C 90.257812 18.757812 92.011719 20.949219 93.175781 23.484375 C 92.429688 22.96875 91.515625 21.789062 91.019531 21.027344 C 90.488281 21.214844 90.367188 21.515625 89.949219 21.796875 C 89.894531 21.851562 89.84375 21.90625 89.796875 21.949219 C 89.796875 21.894531 89.796875 21.84375 89.796875 21.796875 C 89.1875 21.523438 88.175781 20.46875 87.957031 19.804688 C 87.414062 19.75 87.34375 19.824219 86.722656 19.957031 C 85.988281 18.832031 83.738281 15.753906 82.726562 15.046875 C 82.726562 14.941406 82.726562 14.84375 82.726562 14.738281 C 82.675781 14.738281 82.621094 14.738281 82.578125 14.738281 C 82.636719 16.003906 83.339844 21.824219 83.808594 22.570312 C 84.207031 23.570312 85.695312 23.996094 86.421875 24.722656 C 86.511719 24.847656 84.828125 28.90625 84.429688 29.332031 C 84.515625 30.207031 85.21875 30.945312 85.8125 31.324219 C 85.8125 31.429688 85.8125 31.527344 85.8125 31.636719 C 83.507812 29.695312 81.203125 27.746094 78.898438 25.804688 C 79.164062 25.058594 80.238281 24.332031 80.894531 23.960938 C 81.203125 20.886719 81.503906 17.820312 81.8125 14.746094 C 81.085938 12.078125 80.050781 8.984375 79.050781 6.300781 C 78.675781 5.289062 78.121094 4.113281 77.976562 2.925781 C 80.085938 4.289062 81.644531 6.609375 83.648438 8.125 Z M 64.453125 71.847656 C 63.996094 72.589844 63.871094 73.453125 63.222656 74 C 63.222656 74.105469 63.222656 74.203125 63.222656 74.3125 C 63.171875 74.3125 63.117188 74.3125 63.074219 74.3125 C 64.808594 69.144531 66.554688 63.96875 68.292969 58.804688 C 68.292969 58.695312 68.292969 58.601562 68.292969 58.492188 C 66.953125 59.175781 65.820312 60.1875 64.605469 60.949219 C 63.019531 61.949219 61.140625 62.730469 59.847656 64.023438 C 59.792969 64.023438 59.742188 64.023438 59.695312 64.023438 C 60.050781 62.90625 60.777344 61.160156 61.539062 60.335938 C 61.539062 60.285156 61.539062 60.230469 61.539062 60.1875 C 60.449219 60.550781 59.660156 61.445312 58.773438 62.027344 C 56.800781 63.339844 54.859375 64.589844 52.945312 65.867188 C 51.6875 66.707031 49.886719 67.308594 48.949219 68.480469 C 48.894531 68.480469 48.839844 68.480469 48.796875 68.480469 C 50.011719 66.644531 52.261719 64.890625 54.015625 63.570312 C 55.601562 61.984375 57.1875 60.398438 58.773438 58.8125 C 59.8125 58.023438 60.539062 56.960938 61.539062 56.199219 C 62.78125 55.257812 64.304688 54.0625 65.226562 52.820312 C 67.398438 49.90625 69.710938 47.117188 71.828125 44.226562 C 72.765625 42.949219 73.601562 41.125 74.902344 40.230469 C 74.902344 40.125 74.902344 40.027344 74.902344 39.921875 C 74.035156 39.566406 73.164062 39.203125 72.289062 38.847656 C 71.722656 39.699219 70.863281 40.152344 70.136719 40.839844 C 68.398438 42.578125 66.652344 44.324219 64.914062 46.0625 C 63.425781 47.1875 61.503906 48.648438 60.46875 50.207031 C 60.414062 50.207031 60.359375 50.207031 60.316406 50.207031 C 60.308594 49.117188 60.441406 44.296875 60.777344 43.757812 C 60.777344 43.445312 60.777344 43.144531 60.777344 42.835938 C 60.722656 42.835938 60.671875 42.835938 60.628906 42.835938 C 59.695312 44.625 57.960938 45.882812 56.789062 47.441406 C 56.167969 48.265625 55.628906 49.304688 54.796875 49.898438 C 54.789062 51.023438 54.664062 56.269531 55.105469 56.960938 C 55.105469 57.011719 55.105469 57.066406 55.105469 57.109375 C 53.722656 57.109375 52.339844 57.109375 50.960938 57.109375 C 50.605469 57.464844 50.242188 57.828125 49.886719 58.183594 C 48 59.59375 46.351562 61.257812 44.515625 62.632812 C 40.980469 65.28125 37.878906 68.453125 34.378906 71.078125 C 32.660156 72.359375 30.25 73.789062 29.011719 75.523438 C 28.957031 75.523438 28.902344 75.523438 28.859375 75.523438 C 29.640625 74.042969 31.109375 72.980469 32.085938 71.6875 C 34.824219 68.035156 38.136719 64.855469 40.839844 61.25 C 42.097656 59.574219 43.605469 58.121094 44.835938 56.492188 C 45.535156 55.550781 46.164062 54.390625 47.140625 53.726562 C 47.140625 53.621094 47.140625 53.523438 47.140625 53.414062 C 45.128906 54.089844 42.167969 56.925781 40.386719 58.175781 C 35.425781 61.648438 30.550781 65.175781 25.652344 68.613281 C 23.402344 70.199219 21.238281 71.804688 19.050781 73.371094 C 18.21875 73.964844 17.1875 74.390625 16.59375 75.214844 C 16.542969 75.214844 16.488281 75.214844 16.445312 75.214844 C 18.429688 72.183594 21.621094 69.976562 23.816406 67.078125 C 24.382812 66.566406 24.941406 66.050781 25.507812 65.546875 C 26.9375 63.660156 28.867188 62.179688 30.269531 60.328125 C 31.039062 59.308594 31.871094 58.03125 32.882812 57.253906 C 32.882812 57.199219 32.882812 57.144531 32.882812 57.101562 C 30.046875 57.925781 27.601562 60.441406 25.359375 62.011719 C 22.390625 64.101562 19.632812 66.351562 16.761719 68.460938 C 15.257812 69.570312 13.589844 70.507812 12.316406 71.839844 C 12.261719 71.839844 12.207031 71.839844 12.164062 71.839844 C 12.980469 70.492188 14.175781 69.394531 15.078125 68.152344 C 17.011719 65.519531 18.828125 62.949219 20.761719 60.320312 C 21.203125 59.707031 22.019531 59.421875 22.453125 58.785156 C 22.558594 58.785156 22.65625 58.785156 22.761719 58.785156 C 22.503906 59.558594 22.25 60.320312 21.992188 61.089844 C 21.992188 61.144531 21.992188 61.195312 21.992188 61.242188 C 22.984375 60.886719 23.515625 59.832031 24.296875 59.246094 C 25.847656 58.078125 27.980469 56.722656 29.054688 55.097656 C 29.109375 55.097656 29.160156 55.097656 29.203125 55.097656 C 28.9375 56.019531 27.28125 58.707031 26.589844 59.246094 C 26.589844 59.351562 26.589844 59.449219 26.589844 59.558594 C 30.117188 57.5625 33.652344 55.558594 37.1875 53.566406 C 37.1875 52.882812 37.1875 51.589844 36.878906 51.113281 C 36.878906 50.855469 36.878906 50.597656 36.878906 50.339844 C 35.976562 50.8125 35.195312 51.855469 34.265625 52.183594 C 33.164062 52.566406 32.015625 52.09375 31.191406 52.644531 C 31.136719 52.644531 31.082031 52.644531 31.039062 52.644531 C 31.3125 51.863281 32.085938 51.394531 32.570312 50.800781 C 32.625 50.75 32.679688 50.695312 32.722656 50.652344 C 32.667969 50.652344 32.617188 50.652344 32.570312 50.652344 C 32.394531 50.21875 32.554688 50.359375 32.113281 50.191406 C 31.917969 50.085938 30.90625 50.519531 30.578125 50.800781 C 30.523438 50.800781 30.472656 50.800781 30.429688 50.800781 C 30.429688 47.195312 32.484375 46.558594 33.804688 44.351562 C 35.914062 44.359375 37.730469 44.910156 38.253906 46.503906 C 44.667969 46.027344 45.652344 40.078125 49.152344 36.675781 C 50.003906 36.09375 51.339844 36.542969 52.378906 36.066406 C 52.785156 35.65625 53.191406 35.25 53.609375 34.832031 C 55.203125 33.65625 56.65625 32.300781 58.214844 31.148438 C 59.03125 30.542969 60.398438 29.976562 60.980469 29.152344 C 62.363281 27.195312 63.074219 24.085938 64.667969 22.402344 C 64.667969 22.296875 64.667969 22.199219 64.667969 22.089844 C 63.390625 22.71875 62.203125 23.472656 60.980469 24.246094 C 60.707031 24.414062 60.378906 24.898438 60.058594 25.015625 C 59.511719 25.210938 58.527344 24.953125 58.367188 25.015625 C 57.738281 25.261719 57.296875 26.140625 56.984375 26.707031 C 56.683594 26.265625 56.808594 25.335938 56.523438 24.863281 C 56.585938 23.144531 58.367188 22.410156 59.289062 21.488281 C 60.671875 20.105469 62.054688 18.722656 63.4375 17.339844 C 64.375 16.667969 65.527344 16.472656 66.511719 15.808594 C 67.28125 14.886719 68.042969 13.964844 68.816406 13.042969 C 68.816406 12.992188 68.816406 12.9375 68.816406 12.894531 C 68.867188 12.894531 68.921875 12.894531 68.964844 12.894531 C 68.914062 14.167969 68.859375 15.453125 68.816406 16.730469 C 69.585938 14.628906 70.347656 12.53125 71.117188 10.4375 C 71.632812 9.925781 72.148438 9.410156 72.652344 8.90625 C 73.589844 7.648438 74.476562 6.488281 75.417969 5.21875 C 75.949219 4.511719 76.800781 4.003906 77.109375 3.066406 C 77.214844 3.066406 77.3125 3.066406 77.417969 3.066406 C 77.527344 5.21875 77.621094 7.363281 77.730469 9.515625 C 77.269531 11.03125 76.207031 12.679688 75.574219 14.125 C 75.140625 15.136719 75.035156 16.296875 74.34375 17.039062 C 74.34375 17.148438 74.34375 17.242188 74.34375 17.351562 C 75.425781 16.632812 78.082031 13.585938 78.792969 12.441406 C 78.847656 12.441406 78.898438 12.441406 78.941406 12.441406 C 78.605469 16.445312 76.878906 18.164062 75.257812 20.734375 C 74.40625 22.082031 73.804688 23.386719 72.953125 24.722656 C 72.28125 25.785156 71.199219 26.804688 70.800781 28.097656 C 70.082031 28.109375 69.238281 28.089844 68.804688 27.789062 C 67.183594 27.894531 65.679688 30.996094 64.507812 31.9375 C 64.152344 32.105469 63.726562 31.8125 63.4375 31.476562 C 61.789062 33.175781 61.496094 36.164062 59.898438 37.925781 C 59.898438 38.03125 59.898438 38.128906 59.898438 38.238281 C 61.203125 37.375 62.214844 36.082031 63.4375 35.160156 C 64.304688 34.507812 65.421875 33.894531 66.050781 33.007812 C 66.101562 33.007812 66.15625 33.007812 66.199219 33.007812 C 65.492188 34.46875 64.417969 35.675781 63.585938 37.003906 C 63.097656 37.785156 62.894531 38.742188 62.203125 39.308594 C 62.203125 39.414062 62.203125 39.511719 62.203125 39.617188 C 62.832031 39.203125 63.132812 38.6875 63.585938 38.085938 C 64.613281 37.058594 65.632812 36.039062 66.660156 35.011719 C 67.769531 35.242188 68.390625 36.324219 69.277344 36.855469 C 69.277344 36.90625 69.277344 36.960938 69.277344 37.003906 C 70.808594 35.109375 72.351562 33.222656 73.882812 31.324219 C 74.0625 31.199219 76.921875 32.882812 77.257812 33.320312 C 77.367188 33.320312 77.464844 33.320312 77.570312 33.320312 C 77.054688 32.238281 76.515625 30.792969 75.726562 29.941406 C 75.976562 28.523438 77.164062 27.992188 77.570312 26.71875 C 79.164062 27.480469 80.105469 29.4375 81.566406 30.402344 C 81.40625 31.644531 80.929688 35.339844 80.335938 36.234375 C 80.335938 36.339844 80.335938 36.4375 80.335938 36.542969 C 80.386719 36.542969 80.441406 36.542969 80.484375 36.542969 C 81.078125 35.320312 81.851562 33.644531 82.789062 32.707031 C 82.84375 32.652344 82.894531 32.601562 82.941406 32.554688 C 84.472656 35.710938 86.210938 38.964844 88.007812 41.921875 C 89.019531 43.589844 89.488281 45.75 90.773438 47.140625 C 90.773438 47.25 90.773438 47.347656 90.773438 47.453125 C 90.003906 47.042969 89.238281 46.636719 88.46875 46.21875 C 87.035156 49.144531 85.085938 51.8125 83.402344 54.515625 C 82.320312 56.261719 81.582031 58.457031 80.175781 59.882812 C 80.175781 59.9375 80.175781 59.992188 80.175781 60.035156 C 80.121094 60.035156 80.070312 60.035156 80.023438 60.035156 C 80.636719 56.757812 81.257812 53.488281 81.867188 50.207031 C 82.160156 49.019531 81.902344 47.460938 82.480469 46.523438 C 82.480469 46.210938 82.480469 45.910156 82.480469 45.601562 C 81.363281 46.351562 80.699219 47.761719 79.863281 48.824219 C 79.351562 49.480469 77.898438 49.25 77.410156 49.898438 C 76.355469 51.28125 75.867188 53.015625 74.957031 54.503906 C 72.511719 58.492188 70.054688 62.667969 67.582031 66.636719 C 66.449219 68.363281 65.492188 70.164062 64.453125 71.847656 Z M 107.601562 70.15625 C 105.855469 69.410156 103.054688 67.664062 101 67.539062 C 100.9375 68.109375 100.8125 68.84375 100.539062 69.234375 C 100.441406 69.402344 98.429688 67.851562 98.082031 67.539062 C 96.710938 66.328125 95.273438 65.273438 93.785156 64.164062 C 93.226562 63.75 92.722656 62.949219 92.09375 62.632812 C 91.375 62.523438 90.65625 62.429688 89.941406 62.320312 C 89.1875 63.765625 87.9375 64.882812 87.023438 66.160156 C 84.738281 69.332031 82.160156 72.359375 80.113281 75.675781 C 80.058594 75.675781 80.007812 75.675781 79.960938 75.675781 C 81.238281 73.042969 82.347656 70.082031 83.496094 67.382812 C 84.011719 66.167969 84.214844 64.492188 85.03125 63.542969 C 85.03125 63.4375 85.03125 63.339844 85.03125 63.234375 C 83.171875 64.199219 81.894531 66.007812 80.273438 67.230469 C 77.597656 69.242188 74.734375 71.414062 72.4375 73.832031 C 72.386719 73.832031 72.332031 73.832031 72.289062 73.832031 C 74.957031 69.367188 78.234375 65.15625 81.195312 60.9375 C 83.089844 58.226562 84.535156 55.25 86.5625 52.644531 C 87.601562 51.324219 90.25 51.34375 91.472656 50.191406 C 93.5625 50.449219 97.207031 53.671875 99.304688 54.640625 C 99.617188 55.941406 100.777344 59.875 101.460938 60.78125 C 101.921875 61.585938 103.753906 61.496094 104.535156 62.011719 C 105.863281 62.71875 105.800781 65.261719 106.988281 66.160156 C 110.082031 68.480469 113.652344 70.554688 116.816406 72.761719 C 118.109375 73.664062 119.988281 74.300781 120.964844 75.523438 C 116.621094 73.496094 112.066406 72.070312 107.601562 70.15625 Z M 133.246094 76.144531 C 132.164062 75.789062 131.234375 75 130.328125 74.453125 C 128.230469 73.175781 126.050781 72.148438 124.039062 70.917969 C 121.273438 69.234375 118.429688 67.789062 115.746094 66.160156 C 114.679688 65.503906 113.511719 65.203125 112.519531 64.464844 C 111.871094 63.988281 111.472656 62.976562 110.984375 62.3125 C 109.886719 60.824219 108.40625 59.496094 107.300781 58.015625 C 106.589844 57.058594 105.96875 55.773438 104.996094 55.097656 C 104.996094 55.046875 104.996094 54.992188 104.996094 54.949219 C 106.101562 55.136719 111.988281 57.421875 112.667969 58.023438 C 113.394531 57.289062 114.265625 55.25 114.511719 54.1875 C 115.621094 54.363281 118.863281 55.683594 119.582031 56.339844 C 119.6875 56.339844 119.785156 56.339844 119.890625 56.339844 C 119.4375 54.761719 118.226562 53.488281 117.4375 52.191406 C 116.65625 50.917969 116.222656 49.632812 115.441406 48.355469 C 115.054688 47.726562 114.503906 47.273438 114.371094 46.363281 C 115.328125 47.097656 115.816406 48.425781 116.523438 49.4375 C 118.058594 51.625 119.882812 53.71875 121.28125 56.039062 C 126.039062 56.074219 126.980469 59.804688 130.339844 60.949219 C 130.125 61.542969 129.726562 61.710938 129.417969 62.179688 C 128.175781 61.992188 123.824219 60.230469 122.964844 59.566406 C 122.496094 59.839844 122.363281 60.867188 122.355469 61.558594 C 121.308594 61.277344 119.714844 60.566406 118.980469 59.867188 C 118.925781 59.867188 118.871094 59.867188 118.828125 59.867188 C 119.191406 60.886719 120.226562 61.523438 120.820312 62.320312 C 121.9375 63.808594 123.152344 65.855469 124.660156 66.929688 C 124.660156 66.984375 124.660156 67.035156 124.660156 67.078125 C 123.789062 67.1875 122.921875 67.285156 122.042969 67.390625 C 122.867188 68.570312 124.5625 69.3125 125.730469 70.15625 C 128.210938 71.945312 130.472656 74.59375 133.253906 75.984375 C 133.246094 76.039062 133.246094 76.09375 133.246094 76.144531 Z M 133.246094 76.144531 " fill-opacity="1" fill-rule="evenodd"/></g><g clip-path="url(#46daa540ba)"><path fill="#ffffff" d="M 146.75 65.40625 C 144.332031 63.714844 141.9375 61.765625 139.53125 60.074219 C 138.742188 59.519531 137.691406 59.175781 137.023438 58.503906 C 136.023438 57.507812 135.652344 55.5625 134.511719 54.738281 C 133.046875 54.058594 131.585938 53.378906 130.121094 52.699219 C 129.539062 52.039062 129.234375 51.214844 128.707031 50.5 C 128.128906 49.703125 127.203125 48.976562 126.667969 48.144531 C 126.289062 47.554688 126.324219 46.769531 125.726562 46.414062 C 123.898438 45.328125 121.652344 45.109375 119.921875 43.90625 C 119.050781 43.308594 119.1875 41.777344 118.191406 41.234375 C 116.226562 40.164062 113.890625 39.832031 112.070312 38.5625 C 110.1875 35.945312 108.300781 33.328125 106.417969 30.71875 C 106.417969 29.777344 106.417969 28.835938 106.417969 27.894531 C 104.589844 26.425781 102.757812 24.96875 100.929688 23.5 C 100.378906 22.765625 99.472656 21.714844 99.199219 20.828125 C 98.964844 20.03125 99.226562 19.515625 98.882812 18.945312 C 98.113281 17.675781 96.988281 16.5 96.210938 15.175781 C 94.199219 15.105469 91.71875 14.480469 90.875 13.140625 C 90.648438 13.464844 90.632812 14.089844 90.40625 14.398438 C 91.527344 16.046875 92.824219 15.015625 94.328125 15.8125 C 94.625 15.964844 94.734375 16.507812 94.953125 16.753906 C 94.699219 17.695312 93.820312 18.382812 93.386719 19.261719 C 92.480469 19.109375 91.175781 18.394531 90.40625 19.109375 C 89.210938 18.855469 89.246094 17.886719 88.523438 17.222656 C 87.941406 16.699219 86.957031 16.761719 86.484375 16.128906 C 85.941406 15.402344 85.75 14.351562 84.917969 13.925781 C 84.65625 13.792969 84.429688 13.855469 84.128906 14.082031 C 82.355469 13.972656 80.363281 12.152344 79.582031 10.9375 C 78.421875 11.273438 78.703125 12.742188 77.546875 13.140625 C 77.617188 13.753906 77.71875 14.734375 78.015625 15.175781 C 78.015625 15.285156 78.015625 15.386719 78.015625 15.496094 C 79.273438 15.429688 80.214844 15.332031 80.523438 16.28125 C 80.679688 16.644531 80.5625 16.652344 80.207031 16.90625 C 80.640625 18.230469 81.992188 18.273438 82.5625 19.261719 C 82.671875 19.941406 82.769531 20.621094 82.878906 21.300781 C 83.613281 21.824219 84.347656 22.351562 85.082031 22.867188 C 85.289062 22.867188 85.496094 22.867188 85.707031 22.867188 C 85.34375 20.929688 84.972656 19 84.609375 17.0625 C 84.609375 17.007812 84.609375 16.953125 84.609375 16.90625 C 86.085938 17.1875 85.851562 18.472656 86.808594 19.109375 C 87.335938 19.164062 87.859375 19.21875 88.378906 19.261719 C 88.496094 19.324219 91.582031 23.699219 91.828125 24.125 C 91.882812 24.125 91.9375 24.125 91.980469 24.125 C 91.820312 22.957031 91.25 21.273438 90.570312 20.511719 C 90.570312 20.402344 90.570312 20.304688 90.570312 20.195312 C 92.425781 20.621094 92.90625 21.753906 94.019531 22.867188 C 94.417969 23.265625 94.941406 23.492188 95.277344 23.960938 C 95.386719 23.960938 95.488281 23.960938 95.59375 23.960938 C 95.46875 23.335938 95.316406 22.523438 94.96875 22.078125 C 94.96875 21.871094 94.96875 21.664062 94.96875 21.453125 C 96.328125 22.351562 96.964844 24.097656 98.113281 25.222656 C 98.113281 25.277344 98.113281 25.332031 98.113281 25.375 C 98.167969 25.375 98.222656 25.375 98.265625 25.375 C 98.195312 24.40625 97.832031 22.894531 97.324219 22.234375 C 97.324219 22.078125 97.324219 21.914062 97.324219 21.761719 C 97.378906 21.761719 97.433594 21.761719 97.480469 21.761719 C 97.90625 22.9375 98.910156 23.273438 99.832031 23.960938 C 100.832031 24.957031 101.816406 25.945312 102.8125 26.941406 C 103.554688 27.503906 104.6875 28.191406 105.167969 28.980469 C 105.511719 29.542969 105.160156 30.753906 105.484375 31.335938 C 105.875 32.023438 106.625 32.703125 107.050781 33.371094 C 107.976562 34.847656 108.636719 36.296875 109.5625 37.765625 C 110.800781 39.730469 112.875 40.90625 114.109375 42.78125 C 114.542969 42.519531 114.460938 41.90625 114.425781 41.214844 C 115.265625 41.613281 116.570312 42.003906 117.25 42.628906 C 117.558594 43.007812 117.703125 43.707031 117.722656 44.359375 C 119.125 45.019531 124.214844 47.320312 124.941406 48.28125 C 126.089844 49.8125 127.304688 51.324219 128.390625 52.828125 C 128.796875 53.386719 129.070312 54.175781 129.648438 54.558594 C 130.582031 55.164062 131.804688 55.082031 132.792969 55.652344 C 134.523438 58.007812 136.242188 60.363281 137.972656 62.71875 C 135.988281 61.449219 134.496094 59.328125 132.484375 58.171875 C 131.488281 57.960938 130.5 57.753906 129.503906 57.546875 C 127.050781 55.089844 124.585938 52.628906 122.132812 50.171875 C 121.191406 49.484375 119.550781 49.738281 118.519531 49.078125 C 118.183594 48.859375 117.984375 48.152344 117.730469 47.820312 C 117.113281 46.996094 116.128906 46.515625 115.53125 45.617188 C 114.777344 45.589844 114.144531 45.546875 113.800781 45.933594 C 112.777344 45.691406 111.664062 43.527344 110.347656 44.367188 C 109.5625 43.960938 109.734375 42.726562 109.253906 42.011719 C 108.890625 41.652344 108.519531 41.28125 108.15625 40.917969 C 105.921875 40.945312 104.246094 40.273438 103.292969 39.035156 C 103.183594 39.035156 103.085938 39.035156 102.976562 39.035156 C 103.828125 40.472656 105.097656 43.308594 106.746094 43.898438 C 106.5625 44.023438 106.480469 44.023438 106.121094 44.050781 C 106.121094 44.203125 106.121094 44.367188 106.121094 44.523438 C 108.527344 46.105469 110.558594 48.234375 112.867188 49.855469 C 114.28125 50.851562 116.199219 51.660156 117.257812 53 C 111.925781 50.328125 106.589844 47.664062 101.257812 44.992188 C 101.148438 44.992188 101.046875 44.992188 100.9375 44.992188 C 101.574219 45.824219 102.605469 46.25 103.449219 46.875 C 106.554688 49.160156 110.015625 51.378906 113.335938 53.46875 C 114.632812 54.285156 116.472656 54.820312 117.421875 55.980469 C 115.339844 54.964844 113.101562 53.914062 110.992188 53 C 110.050781 52.589844 109.035156 52.519531 108.320312 51.902344 C 108.210938 51.902344 108.113281 51.902344 108.003906 51.902344 C 109.859375 54.847656 113.519531 57.519531 116.316406 59.59375 C 117.085938 60.164062 117.738281 61.058594 118.519531 61.628906 C 119.785156 62.5625 121.550781 63.488281 122.441406 64.773438 C 115.410156 60.542969 108.835938 55.488281 102.035156 50.960938 C 99.886719 49.53125 97.722656 48.0625 95.605469 46.722656 C 94.617188 46.097656 93.339844 45.726562 92.625 44.839844 C 92.515625 44.839844 92.417969 44.839844 92.308594 44.839844 C 92.949219 45.808594 94.046875 46.496094 94.980469 47.195312 C 95.558594 47.820312 96.128906 48.453125 96.710938 49.078125 C 98.410156 50.363281 99.753906 52.058594 101.417969 53.316406 C 102.8125 54.367188 104.679688 55.632812 105.65625 57.082031 C 102.625 55.089844 99.886719 52.617188 96.871094 50.492188 C 96.039062 49.902344 95.261719 48.960938 94.363281 48.453125 C 93.105469 48.136719 91.855469 47.828125 90.597656 47.511719 C 89.5625 47.074219 88.765625 46.222656 87.925781 45.625 C 86.039062 44.277344 84.128906 43.246094 82.273438 41.859375 C 81.332031 41.152344 81.386719 39.257812 80.390625 38.5625 C 79.664062 38.054688 78.386719 38.011719 77.878906 37.304688 C 77.371094 36.605469 77.308594 35.457031 76.621094 34.949219 C 76.03125 34.515625 75.316406 34.433594 74.890625 33.851562 C 74.484375 33.292969 73.558594 31.617188 74.101562 31.179688 C 74.066406 28.707031 73.886719 27.8125 74.890625 26.316406 C 75 26.316406 75.101562 26.316406 75.207031 26.316406 C 75.40625 26.699219 75.84375 26.960938 75.996094 27.257812 C 76.050781 27.839844 76.105469 28.410156 76.148438 28.988281 C 76.347656 29.371094 76.792969 29.042969 77.09375 29.304688 C 77.144531 29.570312 77.199219 29.832031 77.246094 30.09375 C 77.652344 30.753906 78.714844 31.460938 79.445312 31.824219 C 79.367188 32.160156 79.300781 32.394531 79.128906 32.613281 C 79.273438 33.726562 80.804688 34.367188 81.640625 34.8125 C 81.8125 35.773438 81.792969 37.09375 82.261719 37.792969 C 82.5 38.128906 83.015625 38.171875 83.359375 38.417969 C 84.863281 39.476562 87.089844 40.898438 88.378906 42.183594 C 88.484375 42.183594 88.585938 42.183594 88.695312 42.183594 C 88.214844 40.679688 85.660156 37.09375 84.148438 36.695312 C 84.164062 35.988281 84.285156 34.785156 83.992188 34.34375 C 83.632812 33.609375 82.726562 33.679688 82.261719 33.082031 C 81.648438 32.285156 81.347656 31.316406 80.535156 30.726562 C 79.882812 30.257812 78.941406 30.128906 78.496094 29.46875 C 78.1875 29.027344 78.214844 28.4375 77.871094 28.054688 C 77.871094 28.003906 77.871094 27.949219 77.871094 27.902344 C 78.621094 27.957031 79.835938 28.082031 80.226562 28.527344 C 80.480469 28.816406 80.507812 29.441406 80.851562 29.625 C 81.113281 29.625 81.375 29.625 81.640625 29.625 C 82.074219 29.777344 83.25 30.511719 83.523438 30.882812 C 83.929688 31.445312 83.9375 32.160156 84.308594 32.765625 C 85.054688 33.996094 86.105469 35.265625 87.289062 36.0625 C 87.289062 36.949219 87.289062 37.835938 87.289062 38.734375 C 87.472656 39.113281 88.351562 39.414062 88.703125 39.675781 C 89.789062 40.492188 90.75 41.6875 91.847656 42.503906 C 92.625 43.082031 93.59375 43.480469 94.199219 44.230469 C 94.308594 44.230469 94.410156 44.230469 94.519531 44.230469 C 92.949219 42.554688 91.375 40.882812 89.808594 39.214844 C 89.390625 38.851562 88.976562 38.480469 88.550781 38.117188 C 88.222656 37.394531 88.730469 36.378906 88.394531 35.765625 C 87.660156 35.085938 86.929688 34.40625 86.195312 33.726562 C 85.289062 32.484375 83.632812 28.664062 82.425781 28.074219 C 81.957031 28.074219 81.484375 28.074219 81.015625 28.074219 C 80.75 27.964844 80.40625 27.414062 80.070312 27.285156 C 79.519531 27.078125 78.785156 27.25 78.34375 26.96875 C 75.054688 26.914062 73.894531 19.441406 75.988281 17.242188 C 75.871094 16.4375 75.417969 15.613281 74.890625 15.203125 C 74.992188 14.378906 75.351562 14.179688 75.515625 13.636719 C 75.714844 12.996094 75.246094 12.542969 75.199219 12.226562 C 75.101562 11.410156 75.851562 10.765625 75.199219 10.023438 C 75.507812 9.226562 76.386719 9.261719 76.765625 8.609375 C 76.964844 8.257812 76.867188 7.941406 77.082031 7.667969 C 76.957031 6.898438 76.53125 6.445312 75.988281 6.101562 C 76.015625 5.667969 76.25 2.976562 76.457031 2.652344 C 76.457031 2.542969 76.457031 2.445312 76.457031 2.335938 C 77.652344 2.589844 78.667969 4.074219 79.4375 4.84375 C 80.378906 5.777344 81.492188 6.917969 82.582031 7.667969 C 82.980469 7.949219 83.632812 7.96875 83.992188 8.292969 C 84.382812 8.648438 84.507812 9.21875 84.933594 9.554688 C 84.472656 9.824219 83.957031 9.472656 83.523438 9.707031 C 83.414062 9.707031 83.3125 9.707031 83.207031 9.707031 C 83.949219 10.632812 85.695312 10.558594 86.820312 11.121094 C 87.101562 11.265625 87.199219 11.78125 87.445312 11.90625 C 87.804688 11.90625 88.179688 11.90625 88.539062 11.90625 C 88.59375 12.0625 88.648438 12.226562 88.695312 12.378906 C 89 12.625 89.5 12.625 89.789062 12.851562 C 90.152344 12.796875 90.179688 12.777344 90.414062 12.695312 C 90.1875 11.375 89.039062 11.84375 88.058594 11.28125 C 87.742188 10.867188 87.433594 10.449219 87.117188 10.023438 C 86.59375 9.871094 86.066406 9.707031 85.550781 9.554688 C 82.570312 6.574219 79.59375 3.59375 76.601562 0.605469 C 74.953125 0.949219 73.75 2.988281 72.519531 3.902344 C 71.957031 4.316406 71.324219 4.554688 70.789062 4.996094 C 68.054688 4.917969 67.773438 7.242188 67.019531 9.082031 C 66.496094 9.136719 65.96875 9.191406 65.453125 9.234375 C 65.019531 9.453125 64.785156 10.394531 64.511719 10.804688 C 63.6875 12.035156 61.859375 13.847656 61.371094 15.195312 C 61.261719 15.929688 61.160156 16.664062 61.050781 17.394531 C 58.960938 19.433594 56.867188 21.480469 54.777344 23.519531 C 54.195312 23.574219 53.625 23.628906 53.046875 23.671875 C 52.066406 24.132812 51.535156 25.691406 50.691406 26.34375 C 49.421875 27.324219 47.722656 28.246094 45.980469 28.699219 C 45.621094 30.375 45.011719 32.3125 44.097656 33.5625 C 43.78125 33.996094 43.164062 33.898438 42.683594 34.1875 C 42.070312 34.558594 41.5 35.300781 41.117188 35.917969 C 40.675781 35.816406 40.167969 35.691406 39.859375 35.445312 C 38.292969 35.636719 37.632812 37.828125 36.878906 38.898438 C 35.765625 40.480469 33.320312 44.132812 31.863281 45.175781 C 30.992188 45.796875 29.644531 45.863281 28.882812 46.585938 C 28.675781 46.929688 28.863281 47.484375 28.726562 48 C 28.421875 49.167969 27.425781 50.535156 26.527344 51.140625 C 24.714844 52.375 22.414062 52.671875 20.875 54.121094 C 18.992188 56.007812 17.109375 57.890625 15.226562 59.773438 C 10.152344 65.839844 5.082031 71.910156 0 77.976562 C 3.503906 77.617188 7.011719 77.246094 10.515625 76.882812 C 13.257812 76.285156 17.769531 77.117188 20.242188 77.199219 C 20.242188 77.253906 20.242188 77.308594 20.242188 77.351562 C 17.550781 77.941406 14.652344 78.511719 13.023438 80.179688 C 12.96875 80.179688 12.914062 80.179688 12.871094 80.179688 C 12.871094 80.234375 12.871094 80.289062 12.871094 80.332031 C 14.699219 79.917969 16.527344 79.5 18.359375 79.074219 C 21.011719 78.402344 23.800781 78.394531 26.363281 77.816406 C 27.199219 77.816406 28.039062 77.816406 28.875 77.816406 C 32.097656 77.816406 34.5625 78.375 37.503906 78.441406 C 37.242188 78.613281 31.398438 79.796875 30.910156 79.851562 C 31.636719 80.289062 33.574219 79.761719 34.679688 79.699219 C 35.574219 79.644531 37.269531 79.570312 38.128906 79.382812 C 40.257812 78.929688 42.949219 79.636719 44.875 79.226562 C 45.917969 79.226562 46.96875 79.226562 48.019531 79.226562 C 50.644531 79.226562 53.707031 79.054688 55.863281 79.542969 C 61.777344 80.222656 67.683594 80.902344 73.597656 81.582031 C 72.746094 80.914062 71.277344 81.011719 70.144531 80.640625 C 68.242188 80.023438 66.105469 79.410156 64.023438 78.910156 C 62.546875 78.558594 59.8125 78.9375 58.6875 78.285156 C 58.632812 78.285156 58.578125 78.285156 58.535156 78.285156 C 59.710938 77.453125 62.621094 77.34375 64.1875 76.871094 C 66.304688 76.238281 68.761719 75.523438 70.933594 74.988281 C 73.179688 74.4375 75.988281 75.214844 77.527344 75.613281 C 80.949219 76.511719 84.429688 76.828125 87.726562 77.652344 C 89.5625 78.113281 91.066406 78.277344 93.214844 78.277344 C 94.183594 78.277344 96.003906 78.023438 96.664062 78.429688 C 96.871094 78.429688 97.082031 78.429688 97.289062 78.429688 C 97.289062 78.375 97.289062 78.320312 97.289062 78.277344 C 94.542969 77.695312 91.628906 77.769531 88.8125 77.019531 C 87.625 76.699219 86.382812 76.074219 85.042969 75.921875 C 85.042969 75.867188 85.042969 75.8125 85.042969 75.769531 C 89.335938 74.507812 93.621094 73.257812 97.914062 72 C 98.429688 71.9375 99.363281 72.355469 99.796875 72.472656 C 101.878906 73.015625 104.019531 73.195312 105.921875 73.730469 C 110.957031 75.125 116.433594 75.832031 122.710938 75.769531 C 122.277344 75.46875 121.761719 75.625 121.144531 75.449219 C 119.34375 74.953125 117.152344 74.527344 115.339844 74.039062 C 114.296875 73.757812 113.136719 73.929688 112.359375 73.414062 C 112.25 73.414062 112.152344 73.414062 112.042969 73.414062 C 112.042969 73.359375 112.042969 73.304688 112.042969 73.257812 C 117.847656 73.105469 123.652344 72.941406 129.460938 72.789062 C 128.808594 72.34375 122.566406 71.511719 121.296875 71.53125 C 122.71875 70.625 126.042969 71.394531 128.046875 71.210938 C 133.007812 70.757812 138.535156 71.183594 143.578125 71.210938 C 143.070312 70.839844 142.390625 70.949219 141.695312 70.742188 C 139.492188 70.117188 137.300781 69.484375 135.101562 68.859375 C 134.992188 68.859375 134.894531 68.859375 134.785156 68.859375 C 134.785156 68.804688 134.785156 68.75 134.785156 68.703125 C 139.800781 68.59375 144.828125 68.496094 149.847656 68.386719 C 149.910156 68.0625 149.882812 68.085938 150 67.914062 C 149.699219 66.675781 147.71875 66.085938 146.75 65.40625 Z M 48.34375 30.882812 C 48.554688 30.800781 48.960938 30.691406 49.132812 30.566406 C 49.34375 30.566406 49.550781 30.566406 49.757812 30.566406 C 49.558594 30.890625 49.421875 30.925781 49.289062 31.351562 C 49.105469 31.777344 49.40625 31.824219 49.605469 32.296875 C 48.300781 33.554688 47.601562 35.429688 46.308594 36.6875 C 46.308594 36.742188 46.308594 36.796875 46.308594 36.839844 C 46.253906 36.839844 46.199219 36.839844 46.152344 36.839844 C 46.832031 35.445312 47.746094 33.527344 48.824219 32.449219 C 48.734375 31.816406 48.554688 31.390625 48.34375 30.882812 Z M 47.097656 42.492188 C 47.882812 41.894531 49.351562 40.882812 49.921875 40.136719 C 51.371094 38.246094 52.457031 35.890625 53.6875 33.863281 C 54.132812 33.128906 54.234375 32.269531 54.785156 31.660156 C 54.785156 31.550781 54.785156 31.453125 54.785156 31.34375 C 53.6875 32.105469 51.75 34.714844 51.015625 35.890625 C 50.964844 35.890625 50.910156 35.890625 50.863281 35.890625 C 51.742188 33.808594 52.585938 31.308594 53.84375 29.460938 C 54.484375 28.519531 55.527344 27.722656 56.199219 26.789062 C 56.660156 26.144531 56.921875 25.332031 57.457031 24.75 C 57.457031 24.640625 57.457031 24.542969 57.457031 24.433594 C 57.03125 24.496094 54.3125 25.332031 54.007812 25.53125 C 53.582031 25.808594 53.289062 26.582031 52.910156 26.941406 C 52.910156 26.996094 52.910156 27.050781 52.910156 27.097656 C 52.855469 27.097656 52.800781 27.097656 52.757812 27.097656 C 52.910156 26.363281 53.074219 25.628906 53.226562 24.894531 C 55.882812 24.695312 56.40625 22.992188 57.9375 21.753906 C 59.75 20.285156 61.132812 18.265625 62.953125 16.890625 C 63.5625 16.425781 64.222656 16.074219 64.683594 15.476562 C 64.738281 15.476562 64.792969 15.476562 64.839844 15.476562 C 64.085938 16.972656 62.871094 19.234375 61.542969 20.1875 C 61.542969 20.292969 61.542969 20.394531 61.542969 20.503906 C 62.773438 19.769531 64.648438 18.375 65.464844 17.207031 C 65.515625 17.207031 65.570312 17.207031 65.617188 17.207031 C 64.820312 18.539062 63.667969 19.589844 62.792969 20.820312 C 62.230469 21.609375 61.847656 22.613281 61.0625 23.175781 C 61.0625 23.230469 61.0625 23.285156 61.0625 23.328125 C 61.984375 23.003906 66.289062 18.871094 66.867188 17.996094 C 66.921875 17.996094 66.976562 17.996094 67.019531 17.996094 C 66.460938 19.199219 66.242188 21.019531 65.453125 22.078125 C 65.453125 22.234375 65.453125 22.394531 65.453125 22.550781 C 65.507812 22.550781 65.5625 22.550781 65.609375 22.550781 C 66.160156 21.410156 68.40625 17.25 69.222656 16.589844 C 69.222656 16.480469 69.222656 16.382812 69.222656 16.273438 C 69.277344 16.273438 69.332031 16.273438 69.375 16.273438 C 69.359375 16.671875 69.359375 16.851562 69.222656 17.0625 C 69.222656 17.378906 69.222656 17.6875 69.222656 18.003906 C 69.277344 17.949219 69.332031 17.894531 69.375 17.847656 C 70.6875 16.816406 71.921875 12.640625 73.144531 11.101562 C 73.144531 11.046875 73.144531 10.992188 73.144531 10.949219 C 71.875 11.402344 68.144531 14.488281 67.183594 15.496094 C 67.128906 15.496094 67.074219 15.496094 67.03125 15.496094 C 68.878906 12.722656 71.738281 10.738281 73.460938 7.804688 C 74.5 9.191406 73.550781 11.066406 73.777344 12.667969 C 73.914062 13.65625 73.503906 15.214844 73.625 15.8125 C 73.6875 16.148438 74.167969 16.773438 74.25 17.070312 C 74.519531 18.058594 73.742188 18.292969 73.625 18.800781 C 73.515625 19.261719 73.886719 19.371094 73.941406 19.589844 C 74.285156 21.019531 72.300781 21.898438 73.625 23.039062 C 73.441406 23.953125 70.941406 28.191406 70.328125 28.84375 C 70.328125 28.898438 70.328125 28.953125 70.328125 29 C 70.273438 29 70.21875 29 70.171875 29 C 71.113281 26.019531 72.054688 23.039062 73 20.050781 C 73 18.953125 73 17.847656 73 16.753906 C 72.945312 16.753906 72.890625 16.753906 72.84375 16.753906 C 72.601562 17.632812 69.992188 22.070312 69.394531 22.558594 C 69.394531 22.667969 69.394531 22.765625 69.394531 22.875 C 70.074219 22.539062 70.980469 22.042969 71.429688 21.464844 C 71.484375 21.464844 71.539062 21.464844 71.585938 21.464844 C 71.015625 23.492188 69.332031 25.285156 68.289062 26.953125 C 67.871094 27.628906 67.664062 28.546875 67.03125 28.988281 C 65.527344 30.050781 63.28125 30.699219 62.167969 32.132812 C 62.113281 32.132812 62.058594 32.132812 62.011719 32.132812 C 62.554688 31.0625 64.53125 27.441406 65.308594 26.796875 C 65.308594 26.6875 65.308594 26.589844 65.308594 26.480469 C 64.203125 27.222656 63.289062 28.554688 62.484375 29.625 C 62.011719 30.039062 61.542969 30.457031 61.070312 30.882812 C 60.625 31.460938 60.128906 32.414062 59.503906 32.765625 C 59.097656 33 58.625 32.839844 58.246094 33.082031 C 57.828125 33.554688 57.410156 34.023438 56.984375 34.496094 C 56.179688 35.101562 55.355469 35.683594 54.632812 36.378906 C 53.980469 37.011719 53.941406 38.335938 53.21875 38.886719 C 50.472656 41 47.964844 43.433594 45.210938 45.480469 C 43.960938 46.414062 42.1875 47.355469 41.289062 48.625 C 41.179688 48.625 41.082031 48.625 40.972656 48.625 C 43.011719 46.570312 45.058594 44.53125 47.097656 42.492188 Z M 61.53125 44.375 C 60.4375 45.109375 58.898438 45.71875 58.082031 46.730469 C 57.972656 46.730469 57.875 46.730469 57.765625 46.730469 C 57.765625 46.675781 57.765625 46.621094 57.765625 46.578125 C 59.648438 45.90625 60.945312 43.488281 62.472656 42.339844 C 65.417969 40.121094 67.5 37.476562 69.691406 34.496094 C 70.445312 33.472656 71.503906 32.621094 72.203125 31.515625 C 72.308594 31.515625 72.410156 31.515625 72.519531 31.515625 C 72.574219 32.277344 72.773438 33.226562 73.144531 33.71875 C 73.117188 35.21875 72.082031 36.6875 71.257812 37.484375 C 71.738281 37.875 72.871094 38.054688 73.613281 38.109375 C 73.332031 38.671875 69.394531 40.707031 68.597656 40.933594 C 68.605469 42.847656 67.953125 42.503906 67.183594 43.445312 C 66.539062 44.230469 66.25 45.347656 65.453125 45.953125 C 64.230469 46.875 62.492188 47.128906 61.371094 48.152344 C 61.316406 48.152344 61.261719 48.152344 61.214844 48.152344 C 62.3125 46.332031 64.058594 44.964844 65.300781 43.289062 C 65.980469 42.367188 66.566406 41.132812 67.5 40.464844 C 67.5 40.355469 67.5 40.257812 67.5 40.148438 C 65.453125 41.453125 63.523438 43.046875 61.53125 44.375 Z M 63.722656 36.996094 C 62.574219 37.800781 60.597656 38.808594 59.332031 39.351562 C 58.886719 39.539062 58.453125 39.414062 58.074219 39.667969 C 55.890625 41.082031 54.234375 44.902344 51.949219 46.414062 C 51.949219 46.46875 51.949219 46.523438 51.949219 46.570312 C 51.894531 46.570312 51.839844 46.570312 51.796875 46.570312 C 53.011719 44.550781 54.683594 42.800781 56.035156 40.917969 C 56.6875 40.011719 57.15625 38.886719 58.074219 38.246094 C 58.289062 38.109375 59.628906 38.300781 60.109375 38.398438 C 60.761719 37.703125 61.632812 37.195312 62.3125 36.515625 C 63.605469 35.21875 64.773438 33.542969 66.394531 32.59375 C 66.566406 32.394531 67.257812 32.984375 67.808594 33.066406 C 69.011719 32.121094 70.21875 31.179688 71.421875 30.238281 C 71.53125 30.238281 71.628906 30.238281 71.738281 30.238281 C 71.738281 30.347656 71.738281 30.449219 71.738281 30.554688 C 70.171875 32.175781 68.597656 33.796875 67.03125 35.417969 C 66.921875 35.417969 66.820312 35.417969 66.714844 35.417969 C 66.578125 35.085938 66.449219 34.59375 66.242188 34.324219 C 66.242188 34.269531 66.242188 34.214844 66.242188 34.167969 C 64.984375 34.640625 64.738281 36.296875 63.722656 36.996094 Z M 37.675781 42.175781 C 38.113281 41.171875 38.390625 39.296875 39.242188 38.726562 C 40.375 37.964844 42.125 38.136719 43.164062 37.3125 C 43.273438 37.3125 43.375 37.3125 43.480469 37.3125 C 43.265625 38.589844 40.222656 44.132812 39.398438 45 C 39.398438 45.109375 39.398438 45.210938 39.398438 45.320312 C 39.34375 45.320312 39.289062 45.320312 39.242188 45.320312 C 39.386719 44.1875 39.949219 40.945312 40.503906 40.136719 C 40.503906 39.929688 40.503906 39.722656 40.503906 39.511719 C 40.449219 39.511719 40.394531 39.511719 40.347656 39.511719 C 39.597656 42.210938 37.0625 45.972656 35.640625 48.296875 C 34.941406 49.449219 34.660156 50.824219 33.753906 51.75 C 33.753906 51.859375 33.753906 51.957031 33.753906 52.066406 C 33.699219 52.066406 33.644531 52.066406 33.601562 52.066406 C 34.417969 48.667969 36.335938 45.265625 37.675781 42.175781 Z M 39.714844 62.890625 C 38.601562 62.519531 37.648438 62.554688 36.570312 62.101562 C 34.34375 61.160156 32.304688 59.128906 30.296875 57.863281 C 29.226562 57.191406 27.769531 56.785156 27 55.824219 C 26.890625 55.824219 26.789062 55.824219 26.679688 55.824219 C 27 56.777344 27.75 57.417969 28.25 58.179688 C 29.898438 60.660156 31.84375 62.472656 33.582031 64.773438 C 34.824219 66.414062 36.824219 67.570312 37.976562 69.320312 C 35.277344 67.914062 33.15625 65.289062 30.757812 63.515625 C 29.707031 62.734375 28.355469 62.074219 27.613281 61.003906 C 26.855469 61.140625 26.382812 61.710938 26.046875 62.265625 C 25.992188 62.265625 25.9375 62.265625 25.894531 62.265625 C 25.929688 61.730469 25.964844 61.46875 26.210938 61.167969 C 26.230469 60.335938 26.210938 60.082031 25.738281 59.753906 C 25.632812 59.65625 22.796875 61.148438 22.289062 61.484375 C 20.449219 62.699219 18.902344 64.582031 17.109375 65.878906 C 15.996094 66.683594 14.445312 67.425781 13.65625 68.550781 C 13.601562 68.550781 13.550781 68.550781 13.503906 68.550781 C 16.691406 65.363281 19.890625 62.164062 23.078125 58.976562 C 23.078125 58.921875 23.078125 58.867188 23.078125 58.824219 C 22.007812 59.03125 16.910156 62.039062 16.328125 62.746094 C 16.273438 62.746094 16.222656 62.746094 16.175781 62.746094 C 16.800781 61.820312 17.941406 61.214844 18.847656 60.542969 C 20.632812 59.210938 22.234375 57.472656 24.027344 56.152344 C 24.96875 55.453125 26.136719 54.863281 26.855469 53.949219 C 28.539062 54.449219 29.90625 55.996094 31.246094 56.929688 C 32.703125 57.953125 34.179688 58.730469 35.640625 59.753906 C 36.265625 60.199219 36.871094 60.914062 37.523438 61.324219 C 38.519531 61.945312 39.707031 62.09375 40.820312 62.582031 C 41.925781 63.0625 42.964844 63.867188 44.269531 64.148438 C 43.335938 64.59375 40.703125 63.214844 39.714844 62.890625 Z M 88.367188 60.851562 C 86.304688 60.28125 79.863281 58.996094 78.640625 57.871094 C 78.488281 57.871094 78.324219 57.871094 78.167969 57.871094 C 78.570312 58.675781 79.175781 59.71875 79.898438 60.226562 C 79.898438 60.28125 79.898438 60.335938 79.898438 60.378906 C 77.835938 59.621094 76.1875 56.710938 74.09375 55.988281 C 74.09375 55.933594 74.09375 55.878906 74.09375 55.832031 C 73.152344 55.832031 72.210938 55.832031 71.269531 55.832031 C 71.566406 56.867188 74.457031 59.964844 75.351562 60.542969 C 75.351562 60.597656 75.351562 60.652344 75.351562 60.699219 C 74.355469 60.34375 73.777344 59.394531 73 58.8125 C 71.558594 57.746094 69.476562 56.65625 68.453125 55.199219 C 68.34375 55.199219 68.242188 55.199219 68.136719 55.199219 C 68.144531 55.804688 68.179688 56.820312 68.453125 57.238281 C 68.453125 57.5 68.453125 57.761719 68.453125 58.027344 C 67.164062 57.175781 66.070312 55.941406 64.839844 55.046875 C 63.46875 54.039062 61.550781 53.152344 60.597656 51.75 C 60.492188 51.75 60.390625 51.75 60.28125 51.75 C 60.890625 55.527344 66.902344 59.527344 68.914062 62.582031 C 66.914062 61.257812 65.316406 59.292969 63.425781 57.871094 C 62.347656 57.066406 60.90625 56.296875 60.128906 55.199219 C 59.601562 55.96875 59.539062 58.234375 59.503906 59.285156 C 59.449219 59.285156 59.394531 59.285156 59.351562 59.285156 C 58.597656 57.507812 57.265625 54.636719 57.148438 52.535156 C 56.804688 53.035156 55.980469 58.8125 55.890625 59.753906 C 55.835938 59.753906 55.78125 59.753906 55.734375 59.753906 C 55.734375 57.871094 55.734375 55.988281 55.734375 54.105469 C 55.683594 54.105469 55.628906 54.105469 55.582031 54.105469 C 54.648438 55.988281 52.558594 57.851562 51.96875 59.753906 C 51.695312 59.855469 51.8125 59.78125 51.652344 59.910156 C 51.597656 59.910156 51.542969 59.910156 51.496094 59.910156 C 51.878906 57.679688 54.015625 54.648438 55.109375 52.84375 C 55.671875 51.921875 55.816406 50.78125 56.523438 50.019531 C 56.523438 49.910156 56.523438 49.8125 56.523438 49.703125 C 54.792969 50.769531 54.160156 52.988281 51.191406 52.375 C 50.554688 53.769531 49.949219 56.550781 49.152344 57.707031 C 47.214844 59.011719 45.285156 60.324219 43.347656 61.628906 C 43.238281 61.628906 43.136719 61.628906 43.027344 61.628906 C 44.125 59.691406 45.230469 57.761719 46.324219 55.824219 C 46.324219 55.714844 46.324219 55.617188 46.324219 55.507812 C 44.324219 56.359375 42.394531 57.402344 40.519531 58.332031 C 39.777344 58.703125 39.042969 58.757812 38.484375 59.277344 C 38.375 59.277344 38.273438 59.277344 38.164062 59.277344 C 39.359375 57.574219 42.558594 56.195312 44.289062 54.882812 C 45.65625 53.839844 46.097656 51.949219 47.738281 51.113281 C 47.894531 51.023438 51.707031 51.765625 52.132812 52.058594 C 53.101562 51.9375 56.34375 49.1875 56.839844 48.445312 C 57.574219 48.445312 58.308594 48.445312 59.042969 48.445312 C 60.851562 51.242188 63.796875 52.21875 67.046875 53.625 C 67.3125 53.308594 67.574219 53 67.835938 52.683594 C 69.558594 52.9375 70.960938 54.039062 72.382812 54.566406 C 73.324219 54.910156 74.003906 53.96875 74.582031 54.09375 C 75.644531 54.332031 78.40625 56.59375 79.445312 57.238281 C 80.707031 58.015625 82.398438 58.050781 83.839844 58.652344 C 85.757812 59.449219 89.402344 61.085938 91.527344 61.320312 C 90.976562 61.585938 89.21875 61.085938 88.367188 60.851562 Z M 101.390625 56.457031 C 100.035156 56.007812 98.785156 54.964844 97.625 54.257812 C 95.222656 52.800781 92.734375 51.59375 90.40625 50.171875 C 88.429688 48.96875 85.660156 48.40625 83.976562 46.875 C 83.820312 46.875 83.660156 46.875 83.503906 46.875 C 85.1875 49.058594 88.53125 49.917969 90.097656 52.210938 C 87.953125 50.953125 85.53125 49.890625 83.351562 48.761719 C 82.5 48.316406 81.511719 48.117188 80.839844 47.5 C 79.691406 48.082031 79.347656 50.472656 78.488281 51.421875 C 78.488281 51.53125 78.488281 51.632812 78.488281 51.738281 C 78.433594 51.738281 78.378906 51.738281 78.332031 51.738281 C 78.757812 50.089844 79.519531 47.402344 80.6875 46.40625 C 80.6875 46.351562 80.6875 46.296875 80.6875 46.25 C 79.328125 46.632812 78.042969 47.609375 76.921875 48.289062 C 75.5625 49.113281 73.824219 49.441406 72.679688 50.492188 C 72.574219 50.492188 72.472656 50.492188 72.363281 50.492188 C 72.363281 50.4375 72.363281 50.382812 72.363281 50.335938 C 74.527344 49.214844 76.359375 47.320312 78.324219 45.945312 C 79.246094 45.300781 80.460938 44.929688 81.148438 44.058594 C 82.996094 44.257812 84.15625 45.707031 85.695312 46.261719 C 87.398438 46.867188 88.894531 46.6875 90.242188 47.519531 C 93.476562 49.503906 96.285156 52.3125 99.34375 54.585938 C 100.058594 55.117188 100.53125 55.878906 101.382812 56.3125 C 101.390625 56.359375 101.390625 56.40625 101.390625 56.457031 Z M 101.390625 56.457031 " fill-opacity="1" fill-rule="evenodd"/></g><path fill="#ffffff" d="M 72.828125 15.65625 C 72.707031 15.085938 72.84375 15.222656 72.355469 15.03125 C 72.011719 16.082031 71.214844 17.742188 70.472656 18.484375 C 70.472656 18.59375 70.472656 18.691406 70.472656 18.800781 C 70.527344 18.800781 70.582031 18.800781 70.625 18.800781 C 71.367188 17.75 72.101562 16.699219 72.828125 15.65625 Z M 72.828125 15.65625 " fill-opacity="1" fill-rule="evenodd"/><path fill="#ffffff" d="M 65.300781 22.558594 C 65.300781 22.667969 65.300781 22.765625 65.300781 22.875 C 65.355469 22.875 65.410156 22.875 65.453125 22.875 C 65.355469 22.605469 65.425781 22.722656 65.300781 22.558594 Z M 65.300781 22.558594 " fill-opacity="1" fill-rule="evenodd"/><path fill="#ffffff" d="M 88.367188 26.488281 C 88.113281 25.511719 87.207031 23.246094 86.332031 22.875 C 86.382812 23.402344 86.4375 23.925781 86.484375 24.441406 C 87.007812 25.121094 87.535156 25.800781 88.050781 26.480469 C 88.160156 26.488281 88.257812 26.488281 88.367188 26.488281 Z M 88.367188 26.488281 " fill-opacity="1" fill-rule="evenodd"/><path fill="#ffffff" d="M 92.136719 24.441406 C 92.035156 24.171875 92.109375 24.289062 91.980469 24.125 C 91.980469 24.234375 91.980469 24.335938 91.980469 24.441406 C 92.027344 24.441406 92.082031 24.441406 92.136719 24.441406 Z M 92.136719 24.441406 " fill-opacity="1" fill-rule="evenodd"/><path fill="#ffffff" d="M 98.410156 25.703125 C 98.3125 25.429688 98.386719 25.546875 98.257812 25.382812 C 98.257812 25.492188 98.257812 25.59375 98.257812 25.703125 C 98.304688 25.703125 98.359375 25.703125 98.410156 25.703125 Z M 98.410156 25.703125 " fill-opacity="1" fill-rule="evenodd"/><path fill="#ffffff" d="M 103.746094 36.0625 C 103.945312 37.8125 109.40625 40.28125 110.8125 41.714844 C 110.863281 41.714844 110.917969 41.714844 110.964844 41.714844 C 110.367188 39.695312 108.738281 38 107.667969 36.378906 C 106.734375 34.976562 106.082031 33.535156 105.160156 32.140625 C 104.605469 31.316406 103.753906 30.511719 103.429688 29.46875 C 102.757812 29.585938 102.730469 29.742188 102.488281 30.257812 C 101.582031 30.058594 101.410156 29.542969 100.285156 29.46875 C 100.730469 30.78125 100.964844 32.222656 101.855469 33.082031 C 102.496094 33.699219 103.71875 33.734375 104.363281 34.34375 C 104.460938 34.476562 104.570312 34.832031 104.679688 34.964844 C 104.507812 35.417969 104.082031 35.765625 103.746094 36.0625 Z M 103.746094 36.0625 " fill-opacity="1" fill-rule="evenodd"/><path fill="#ffffff" d="M 30.613281 79.996094 C 30.773438 80.125 30.648438 80.050781 30.929688 80.152344 C 30.929688 80.097656 30.929688 80.042969 30.929688 79.996094 C 30.820312 79.996094 30.722656 79.996094 30.613281 79.996094 Z M 30.613281 79.996094 " fill-opacity="1" fill-rule="evenodd"/><g clip-path="url(#4584070faa)"><path fill="#ffffff" d="M 76.15625 15.445312 C 75.28125 11.511719 75.707031 12.316406 73.96875 9.125 C 72.804688 7 72.242188 5.289062 70.734375 4.191406 C 71.066406 7.800781 70.523438 9.375 71.085938 12.777344 C 71.957031 18.011719 70.648438 17.308594 68.613281 20.289062 C 70.371094 19.433594 71.339844 21.28125 72.964844 21.613281 C 72.0625 23.484375 72.042969 23.195312 70.75 24.90625 C 68.605469 27.710938 69.386719 28.246094 70.363281 29.328125 C 71.183594 30.234375 71.875 31.820312 73.839844 32.378906 C 75.164062 30.195312 77.359375 29.183594 78.894531 26.507812 C 79.65625 25.175781 79.84375 23.664062 81.109375 22.933594 C 82.441406 22.144531 83.320312 22.582031 84.8125 21.3125 C 84.292969 19.6875 84.859375 20.996094 83.957031 20.003906 C 80.375 16.078125 81.492188 15.964844 76.179688 15.453125 M 57.050781 49.753906 C 58.394531 52.363281 61.925781 51.554688 65.410156 57.457031 C 65.683594 57.914062 66.675781 58.777344 67.835938 60.03125 L 65.964844 55.746094 C 67.785156 57.175781 68.195312 57.011719 69.792969 59.640625 C 70.699219 61.128906 72.292969 61.851562 73.820312 63.601562 C 74.921875 64.863281 75.835938 67.496094 77.152344 67.507812 L 75.152344 62.027344 L 72.863281 57.675781 C 74.683594 59.105469 75.09375 58.9375 76.695312 61.566406 C 78.503906 64.542969 79.613281 67.105469 82.03125 67.230469 L 85.386719 69.128906 C 86.078125 69.710938 87.582031 70.734375 88.4375 70.539062 C 88.964844 70.503906 90.917969 71.863281 91.597656 71.894531 L 92.03125 72.035156 C 89.0625 68.667969 79.832031 59.6875 78.8125 58.003906 C 77.308594 55.523438 76.652344 54.773438 73.5625 53.601562 C 71.230469 52.722656 71.199219 51.390625 69.382812 48.171875 C 68.238281 46.148438 65.988281 45.851562 64.722656 43.316406 C 64.382812 42.738281 64.089844 40.320312 64.277344 37.890625 C 64.363281 36.730469 63.132812 33.78125 60.628906 30.785156 C 61.4375 34.753906 61.742188 38.269531 59.890625 39.613281 C 57.933594 41.039062 56.199219 40.992188 57.40625 42.773438 C 57.4375 42.824219 57.5 42.914062 57.539062 42.988281 C 58.058594 43.261719 58.523438 43.605469 58.933594 44.027344 C 59.707031 44.785156 59.328125 44.753906 60.199219 45.402344 C 58.964844 46.367188 57.984375 45.925781 57.074219 45.257812 C 49.0625 39.316406 55.011719 45.757812 57.050781 49.753906 Z M 58.613281 72.273438 C 56.28125 74.058594 53.433594 71.8125 47.761719 75.652344 C 47.316406 75.96875 46.050781 76.304688 44.464844 76.941406 L 47.992188 73.867188 C 45.734375 74.382812 45.433594 74.054688 42.863281 75.746094 C 41.40625 76.695312 39.660156 76.664062 37.527344 77.601562 C 35.988281 78.273438 34.050781 80.257812 32.84375 79.703125 L 36.996094 75.609375 L 40.929688 72.660156 C 38.671875 73.171875 38.371094 72.847656 35.796875 74.539062 C 32.886719 76.433594 30.785156 78.289062 28.546875 77.367188 L 24.703125 77.652344 C 23.828125 77.882812 16.691406 80.394531 16 79.863281 C 22.214844 76.449219 30.09375 73.929688 35.398438 70.425781 C 37.816406 68.832031 38.730469 68.429688 42.035156 68.699219 C 44.515625 68.898438 45.117188 67.710938 48.132812 65.582031 C 50.03125 64.242188 53.945312 66.066406 56.175781 64.316406 C 56.242188 64.273438 58.847656 64 58.933594 63.898438 L 64.9375 61.890625 C 66.03125 63.589844 62.953125 64.84375 61.273438 65.835938 C 61.21875 65.867188 61.125 65.921875 61.054688 65.972656 C 60.46875 65.996094 59.902344 66.109375 59.355469 66.3125 C 58.328125 66.667969 58.683594 66.800781 57.621094 67.011719 C 58.316406 68.417969 59.402344 68.4375 60.503906 68.21875 C 70.300781 66.265625 62.167969 69.535156 58.613281 72.273438 Z M 53.253906 39.789062 C 52.0625 43.765625 49.808594 46.148438 47.976562 49.742188 C 46.210938 53.175781 41.558594 52.113281 36.980469 59.875 C 36.625 60.480469 35.316406 61.613281 33.792969 63.265625 L 36.25 57.625 C 33.859375 59.519531 33.316406 59.289062 31.195312 62.75 C 30.003906 64.707031 27.90625 65.644531 25.898438 67.957031 C 24.449219 69.628906 23.25 73.085938 21.515625 73.101562 L 24.164062 65.890625 L 27.171875 60.167969 C 24.78125 62.0625 24.242188 61.828125 22.117188 65.289062 C 19.738281 69.203125 18.277344 72.558594 15.097656 72.742188 L 10.671875 75.246094 C 9.765625 76.015625 7.785156 77.359375 6.65625 77.101562 C 5.964844 77.058594 3.398438 78.847656 2.484375 78.894531 L 1.9375 79.078125 C 5.847656 74.652344 17.992188 62.832031 19.324219 60.617188 C 21.308594 57.359375 22.167969 56.367188 26.238281 54.828125 C 29.308594 53.667969 29.34375 51.921875 31.738281 47.6875 C 33.238281 45.023438 36.199219 44.628906 37.867188 41.300781 C 40.160156 37.390625 40.472656 34.613281 42.609375 32.425781 C 50.511719 24.359375 48.226562 24.871094 50.070312 19.574219 C 50.570312 18.117188 51.875 17.21875 53.140625 16.066406 C 57.882812 11.746094 56.691406 15.519531 60.410156 16.414062 C 61.3125 15.371094 63.386719 10.554688 64.140625 9.035156 C 65.425781 6.410156 66.730469 4.261719 68.15625 1.761719 C 69.214844 0.601562 73.011719 2.621094 73.808594 3.875 C 74.9375 5.664062 76.164062 8.769531 77.066406 10.851562 C 77.933594 12.851562 77.589844 12.5625 79.417969 13.0625 C 81.246094 13.5625 81.175781 13.535156 82.351562 14.957031 C 83.527344 16.378906 85.425781 19.019531 87.273438 19.765625 L 89.003906 18.003906 C 92.289062 19.457031 97.398438 26.449219 100.488281 29.699219 L 104.789062 32.039062 C 108.621094 32.140625 110.535156 40.078125 113.085938 44.425781 C 114.753906 47.757812 117.714844 48.152344 119.21875 50.8125 C 121.609375 55.046875 121.648438 56.796875 124.714844 57.957031 C 126.910156 58.785156 129.191406 66.21875 133.601562 67.867188 C 140.621094 70.5 145.441406 76.695312 148.058594 79.660156 C 147.046875 79.347656 140.867188 76 140.15625 76.046875 C 139.027344 76.300781 137.527344 74.375 136.621094 73.605469 L 133.730469 73.921875 C 130.550781 73.757812 131.199219 72.34375 128.828125 68.4375 C 126.722656 64.960938 126.179688 65.191406 123.789062 63.308594 C 125.496094 66.433594 125.566406 69.058594 127.644531 72.105469 C 128.410156 73.226562 129.195312 75.1875 130.804688 76.136719 C 126.675781 76.097656 121.804688 69.261719 119.742188 65.886719 C 118.195312 63.34375 118.148438 62.09375 116.933594 61.234375 C 116.203125 60.71875 115.898438 61.664062 116.101562 63.132812 C 116.472656 65.746094 117.839844 66.585938 118.210938 70.179688 C 117.554688 69.894531 117.261719 68.105469 116.75 67.410156 C 115.300781 65.378906 114.242188 63.472656 113.976562 63.023438 C 112.539062 60.644531 110.5 60.90625 109.90625 59.976562 C 109.113281 58.710938 106.679688 56.347656 106.527344 54.773438 C 106.371094 53.199219 108.515625 52.359375 109.707031 51.234375 C 110.269531 50.800781 110.605469 50.230469 110.71875 49.53125 C 110.839844 48.898438 110.660156 47.523438 110.6875 47.242188 C 110.808594 45.976562 110.660156 46.714844 110.191406 44.945312 C 109.257812 41.632812 107.574219 38.757812 105.136719 36.328125 C 104.863281 36.265625 103.296875 34.570312 102.980469 34.503906 C 102.117188 34.3125 102.105469 34.367188 101.503906 34.042969 C 100.902344 33.714844 100.6875 33.390625 99.957031 32.84375 L 98.28125 30.472656 C 97.589844 28.828125 92.226562 24.132812 90.417969 22.796875 C 90.1875 24.359375 89.945312 24.5 89.496094 25.976562 C 88.847656 28.101562 89.257812 28.28125 87.816406 29.328125 C 86.308594 30.421875 84.339844 32.945312 84.195312 35.304688 C 84.996094 34.675781 84.765625 35.015625 85.460938 34.082031 C 85.519531 33.976562 85.601562 33.847656 85.652344 33.765625 L 86.769531 33.660156 C 90.75 34.378906 84.515625 36.066406 88.066406 41.855469 C 88.539062 42.628906 89.199219 43.070312 88.382812 43.882812 L 88.273438 45.71875 C 90.117188 49.445312 92.589844 50.566406 93.300781 51.09375 C 95.59375 52.789062 95.15625 53.984375 97.582031 55.644531 C 106.847656 64.285156 100.800781 58.371094 107.378906 68.742188 C 108.777344 70.953125 110.183594 72.101562 111.363281 74.824219 C 103.710938 69.5625 103.894531 65.554688 100.234375 62.746094 C 96.839844 60.128906 93.746094 56.488281 93.253906 56.226562 C 89.082031 54.015625 88.792969 51.117188 86.125 48.296875 C 84.625 46.714844 79.894531 43.277344 79.386719 41.394531 L 79.148438 40.882812 L 77.378906 38.765625 C 77.09375 38.402344 76.53125 38.15625 76.316406 37.738281 C 75.789062 37.316406 75.226562 37.898438 74.738281 37.632812 C 74.050781 36.191406 71.808594 36.367188 70.992188 35.613281 C 70.328125 35.011719 71.175781 33.453125 69.992188 32.851562 C 66.730469 31.183594 66.277344 30.523438 64.722656 28.257812 L 60.210938 23.902344 C 59.648438 22.953125 57.46875 20.46875 56.503906 19.476562 C 55.675781 18.640625 56.082031 19.078125 55.367188 20.605469 C 54.757812 21.910156 55.011719 23.839844 53.960938 24.988281 L 53.140625 26.003906 C 54.359375 25.355469 54.148438 26.894531 55.289062 26.488281 C 54.816406 31.792969 54.695312 27.753906 51.8125 33.210938 C 47.910156 40.636719 51.21875 35.058594 47.484375 40.582031 C 47.4375 40.648438 47.355469 40.769531 47.300781 40.867188 C 46.617188 41.222656 46.007812 41.679688 45.46875 42.226562 C 44.449219 43.230469 44.949219 43.175781 43.808594 44.039062 C 45.425781 45.304688 46.726562 44.726562 47.917969 43.847656 C 48.945312 43.085938 52.273438 39.992188 53.253906 39.789062 Z M 53.253906 39.789062 " fill-opacity="1" fill-rule="evenodd"/></g></svg>