<svg xmlns="http://www.w3.org/2000/svg" xmlns:xlink="http://www.w3.org/1999/xlink" width="200" zoomAndPan="magnify" viewBox="0 0 150 80.999996" height="108" preserveAspectRatio="xMidYMid meet" version="1.0"><defs><clipPath id="cf3a2dc7bf"><path d="M 0 0 L 150 0 L 150 79.5 L 0 79.5 Z M 0 0 " clip-rule="nonzero"/></clipPath><clipPath id="a8ad92020d"><path d="M 0 9.9375 L 150 9.9375 L 150 71.4375 L 0 71.4375 Z M 0 9.9375 " clip-rule="nonzero"/></clipPath></defs><g clip-path="url(#cf3a2dc7bf)"><path fill="#ffffff" d="M 144.605469 72.476562 C 143.125 70.519531 141.265625 68.824219 139.535156 67.105469 C 139.023438 66.644531 138.507812 66.183594 138.003906 65.722656 C 136.691406 63.988281 135.070312 62.640625 133.554688 61.117188 C 132.945312 60.453125 132.324219 59.785156 131.710938 59.121094 C 129.964844 57.828125 128.210938 56.527344 126.492188 55.285156 C 125.714844 54.726562 124.773438 54.335938 124.1875 53.59375 C 123.523438 53.59375 122.859375 53.59375 122.195312 53.59375 C 121.769531 53.328125 121.015625 51.632812 120.664062 51.136719 C 119.617188 49.648438 118.332031 48.167969 117.285156 46.691406 C 116.691406 45.847656 116.3125 44.945312 115.59375 44.234375 C 114.75 43.660156 113.371094 44.332031 112.21875 43.925781 C 110.632812 42.542969 109.046875 41.160156 107.457031 39.777344 C 106.589844 38.210938 107.191406 35.71875 106.226562 34.25 C 106.050781 33.167969 105.171875 33.007812 104.535156 32.40625 C 103.257812 31.199219 101.9375 29.773438 100.539062 28.71875 C 100.007812 28.320312 99.015625 27.902344 98.695312 27.335938 C 98.589844 26.824219 98.492188 26.308594 98.386719 25.804688 C 97.464844 24.9375 96.542969 24.066406 95.621094 23.191406 C 94.957031 22.222656 94.699219 21.125 94.085938 20.113281 C 93.164062 18.617188 92.058594 17.03125 91.171875 15.507812 C 90.3125 14.027344 89.957031 11.09375 89.019531 9.828125 C 88.496094 9.117188 87.28125 8.523438 86.5625 7.984375 C 84.445312 6.398438 82.683594 4.199219 80.574219 2.613281 C 79.554688 1.84375 78.214844 1.070312 77.5 0 C 76.453125 0.496094 75.71875 1.859375 75.042969 2.765625 C 73.6875 4.574219 71.976562 6.148438 70.597656 7.984375 C 69.773438 9.074219 68.503906 9.960938 67.679688 11.058594 C 67.121094 11.792969 66.554688 12.957031 65.835938 13.511719 C 64.898438 14.238281 63.613281 14.371094 62.613281 15.046875 C 62.140625 15.367188 61.726562 15.898438 61.230469 16.277344 C 58.773438 18.128906 57.066406 21.160156 54.476562 22.878906 C 54.476562 23.953125 54.476562 25.03125 54.476562 26.105469 C 53.40625 28.667969 52.324219 31.226562 51.25 33.777344 C 50.515625 33.929688 49.230469 34 48.636719 34.390625 C 47.238281 34.566406 46.695312 36.359375 46.023438 37.304688 C 44.960938 38.820312 43.570312 40.257812 42.488281 41.753906 C 42.203125 42.144531 42.070312 42.828125 41.71875 43.136719 C 40.945312 43.394531 40.183594 43.652344 39.414062 43.90625 C 38.640625 43.765625 38.21875 43.082031 37.878906 42.523438 C 36.800781 42.480469 34.699219 42.429688 33.882812 41.914062 C 32.402344 41.976562 32.367188 42.753906 31.730469 43.605469 C 30.535156 45.210938 28.496094 46.714844 27.582031 48.515625 C 27.328125 49.746094 27.070312 50.96875 26.8125 52.203125 C 26.464844 52.679688 25.605469 53.0625 25.121094 53.433594 C 23.765625 54.453125 22.640625 55.949219 21.28125 56.96875 C 20.75 57.367188 19.988281 57.679688 19.589844 58.199219 C 17.480469 60.972656 15.328125 63.722656 13.300781 66.496094 C 12.554688 67.503906 11.863281 68.773438 11.03125 69.808594 L 0.0429688 79.804688 L 14.175781 78.015625 C 59.171875 78.015625 104.1875 78.015625 149.1875 78.015625 C 149.445312 78.015625 149.699219 78.015625 149.957031 78.015625 C 149.371094 76.3125 145.773438 74.027344 144.605469 72.476562 Z M 110.824219 45.300781 C 110.824219 45.351562 110.824219 45.40625 110.824219 45.449219 C 109.773438 45.226562 107.175781 45.042969 106.378906 44.527344 C 105.667969 44.34375 102.46875 39.167969 102.230469 38.238281 C 105.09375 40.59375 107.964844 42.949219 110.824219 45.300781 Z M 103.914062 33.9375 C 103.914062 33.992188 103.914062 34.046875 103.914062 34.089844 C 103.265625 33.9375 102.53125 33.691406 102.070312 33.320312 C 101.21875 33.40625 101.414062 33.636719 101 34.089844 C 100.945312 34.140625 100.894531 34.195312 100.847656 34.238281 C 100.511719 33.523438 100.085938 32.226562 99.464844 31.785156 C 98.347656 30.996094 96.160156 30.492188 95.46875 29.332031 C 95.113281 28.726562 94.964844 28.054688 94.699219 27.488281 C 98.882812 28.152344 100.554688 32.273438 103.914062 33.9375 Z M 101 41.3125 C 101 41.417969 101 41.515625 101 41.621094 C 99.839844 40.867188 96.71875 37.988281 96.242188 36.710938 C 95.914062 35.835938 95.929688 34.753906 95.78125 33.949219 C 96.710938 34.601562 97.117188 35.921875 97.773438 36.863281 C 98.421875 37.777344 99.316406 38.671875 99.925781 39.628906 C 100.324219 40.257812 100.441406 40.851562 101 41.3125 Z M 97.3125 49.445312 C 97.976562 49.949219 98.6875 50.277344 99.15625 50.980469 C 98.277344 50.589844 95.273438 49.855469 94.707031 49.285156 C 94.484375 49.066406 92.820312 45.839844 92.714844 45.449219 C 94.460938 46.503906 95.726562 48.25 97.3125 49.445312 Z M 83.648438 7.53125 C 84.800781 8.402344 86.539062 9.417969 87.335938 10.605469 C 88.292969 12.035156 88.476562 14.070312 89.179688 15.675781 C 90.257812 18.164062 92.011719 20.355469 93.175781 22.890625 C 92.429688 22.375 91.515625 21.195312 91.019531 20.433594 C 90.488281 20.621094 90.367188 20.921875 89.949219 21.203125 C 89.894531 21.257812 89.84375 21.3125 89.796875 21.355469 C 89.796875 21.300781 89.796875 21.25 89.796875 21.203125 C 89.1875 20.929688 88.175781 19.875 87.957031 19.210938 C 87.414062 19.15625 87.34375 19.230469 86.722656 19.363281 C 85.988281 18.238281 83.738281 15.160156 82.726562 14.453125 C 82.726562 14.347656 82.726562 14.25 82.726562 14.144531 C 82.675781 14.144531 82.621094 14.144531 82.578125 14.144531 C 82.636719 15.410156 83.339844 21.230469 83.808594 21.976562 C 84.207031 22.976562 85.695312 23.402344 86.421875 24.128906 C 86.511719 24.253906 84.828125 28.3125 84.429688 28.738281 C 84.515625 29.613281 85.21875 30.351562 85.8125 30.730469 C 85.8125 30.835938 85.8125 30.933594 85.8125 31.042969 C 83.507812 29.101562 81.203125 27.152344 78.898438 25.210938 C 79.164062 24.464844 80.238281 23.738281 80.894531 23.367188 C 81.203125 20.292969 81.503906 17.226562 81.8125 14.152344 C 81.085938 11.484375 80.050781 8.390625 79.050781 5.707031 C 78.675781 4.695312 78.121094 3.519531 77.976562 2.332031 C 80.085938 3.695312 81.644531 6.015625 83.648438 7.53125 Z M 64.453125 71.253906 C 63.996094 71.996094 63.871094 72.859375 63.222656 73.40625 C 63.222656 73.511719 63.222656 73.609375 63.222656 73.71875 C 63.171875 73.71875 63.117188 73.71875 63.074219 73.71875 C 64.808594 68.550781 66.554688 63.375 68.292969 58.210938 C 68.292969 58.101562 68.292969 58.007812 68.292969 57.898438 C 66.953125 58.582031 65.820312 59.59375 64.605469 60.355469 C 63.019531 61.355469 61.140625 62.136719 59.847656 63.429688 C 59.792969 63.429688 59.742188 63.429688 59.695312 63.429688 C 60.050781 62.3125 60.777344 60.566406 61.539062 59.742188 C 61.539062 59.691406 61.539062 59.636719 61.539062 59.59375 C 60.449219 59.957031 59.660156 60.851562 58.773438 61.433594 C 56.800781 62.746094 54.859375 63.996094 52.945312 65.273438 C 51.6875 66.113281 49.886719 66.714844 48.949219 67.886719 C 48.894531 67.886719 48.839844 67.886719 48.796875 67.886719 C 50.011719 66.050781 52.261719 64.296875 54.015625 62.976562 C 55.601562 61.390625 57.1875 59.804688 58.773438 58.21875 C 59.8125 57.429688 60.539062 56.367188 61.539062 55.605469 C 62.78125 54.664062 64.304688 53.46875 65.226562 52.226562 C 67.398438 49.3125 69.710938 46.523438 71.828125 43.632812 C 72.765625 42.355469 73.601562 40.53125 74.902344 39.636719 C 74.902344 39.53125 74.902344 39.433594 74.902344 39.328125 C 74.035156 38.972656 73.164062 38.609375 72.289062 38.253906 C 71.722656 39.105469 70.863281 39.558594 70.136719 40.246094 C 68.398438 41.984375 66.652344 43.730469 64.914062 45.46875 C 63.425781 46.59375 61.503906 48.054688 60.46875 49.613281 C 60.414062 49.613281 60.359375 49.613281 60.316406 49.613281 C 60.308594 48.523438 60.441406 43.703125 60.777344 43.164062 C 60.777344 42.851562 60.777344 42.550781 60.777344 42.242188 C 60.722656 42.242188 60.671875 42.242188 60.628906 42.242188 C 59.695312 44.03125 57.960938 45.289062 56.789062 46.847656 C 56.167969 47.671875 55.628906 48.710938 54.796875 49.304688 C 54.789062 50.429688 54.664062 55.675781 55.105469 56.367188 C 55.105469 56.417969 55.105469 56.472656 55.105469 56.515625 C 53.722656 56.515625 52.339844 56.515625 50.960938 56.515625 C 50.605469 56.871094 50.242188 57.234375 49.886719 57.589844 C 48 59 46.351562 60.664062 44.515625 62.039062 C 40.980469 64.6875 37.878906 67.859375 34.378906 70.484375 C 32.660156 71.765625 30.25 73.195312 29.011719 74.929688 C 28.957031 74.929688 28.902344 74.929688 28.859375 74.929688 C 29.640625 73.449219 31.109375 72.386719 32.085938 71.09375 C 34.824219 67.441406 38.136719 64.261719 40.839844 60.65625 C 42.097656 58.980469 43.605469 57.527344 44.835938 55.898438 C 45.535156 54.957031 46.164062 53.796875 47.140625 53.132812 C 47.140625 53.027344 47.140625 52.929688 47.140625 52.820312 C 45.128906 53.496094 42.167969 56.332031 40.386719 57.582031 C 35.425781 61.054688 30.550781 64.582031 25.652344 68.019531 C 23.402344 69.605469 21.238281 71.210938 19.050781 72.777344 C 18.21875 73.371094 17.1875 73.796875 16.59375 74.621094 C 16.542969 74.621094 16.488281 74.621094 16.445312 74.621094 C 18.429688 71.589844 21.621094 69.382812 23.816406 66.484375 C 24.382812 65.972656 24.941406 65.457031 25.507812 64.953125 C 26.9375 63.066406 28.867188 61.585938 30.269531 59.734375 C 31.039062 58.714844 31.871094 57.4375 32.882812 56.660156 C 32.882812 56.605469 32.882812 56.550781 32.882812 56.507812 C 30.046875 57.332031 27.601562 59.847656 25.359375 61.417969 C 22.390625 63.507812 19.632812 65.757812 16.761719 67.867188 C 15.257812 68.976562 13.589844 69.914062 12.316406 71.246094 C 12.261719 71.246094 12.207031 71.246094 12.164062 71.246094 C 12.980469 69.898438 14.175781 68.800781 15.078125 67.558594 C 17.011719 64.925781 18.828125 62.355469 20.761719 59.726562 C 21.203125 59.113281 22.019531 58.828125 22.453125 58.191406 C 22.558594 58.191406 22.65625 58.191406 22.761719 58.191406 C 22.503906 58.964844 22.25 59.726562 21.992188 60.496094 C 21.992188 60.550781 21.992188 60.601562 21.992188 60.648438 C 22.984375 60.292969 23.515625 59.238281 24.296875 58.652344 C 25.847656 57.484375 27.980469 56.128906 29.054688 54.503906 C 29.109375 54.503906 29.160156 54.503906 29.203125 54.503906 C 28.9375 55.425781 27.28125 58.113281 26.589844 58.652344 C 26.589844 58.757812 26.589844 58.855469 26.589844 58.964844 C 30.117188 56.96875 33.652344 54.964844 37.1875 52.972656 C 37.1875 52.289062 37.1875 50.996094 36.878906 50.519531 C 36.878906 50.261719 36.878906 50.003906 36.878906 49.746094 C 35.976562 50.21875 35.195312 51.261719 34.265625 51.589844 C 33.164062 51.972656 32.015625 51.5 31.191406 52.050781 C 31.136719 52.050781 31.082031 52.050781 31.039062 52.050781 C 31.3125 51.269531 32.085938 50.800781 32.570312 50.207031 C 32.625 50.15625 32.679688 50.101562 32.722656 50.058594 C 32.667969 50.058594 32.617188 50.058594 32.570312 50.058594 C 32.394531 49.625 32.554688 49.765625 32.113281 49.597656 C 31.917969 49.492188 30.90625 49.925781 30.578125 50.207031 C 30.523438 50.207031 30.472656 50.207031 30.429688 50.207031 C 30.429688 46.601562 32.484375 45.964844 33.804688 43.757812 C 35.914062 43.765625 37.730469 44.316406 38.253906 45.910156 C 44.667969 45.433594 45.652344 39.484375 49.152344 36.082031 C 50.003906 35.5 51.339844 35.949219 52.378906 35.472656 C 52.785156 35.0625 53.191406 34.65625 53.609375 34.238281 C 55.203125 33.0625 56.65625 31.707031 58.214844 30.554688 C 59.03125 29.949219 60.398438 29.382812 60.980469 28.558594 C 62.363281 26.601562 63.074219 23.492188 64.667969 21.808594 C 64.667969 21.703125 64.667969 21.605469 64.667969 21.496094 C 63.390625 22.125 62.203125 22.878906 60.980469 23.652344 C 60.707031 23.820312 60.378906 24.304688 60.058594 24.421875 C 59.511719 24.617188 58.527344 24.359375 58.367188 24.421875 C 57.738281 24.667969 57.296875 25.546875 56.984375 26.113281 C 56.683594 25.671875 56.808594 24.742188 56.523438 24.269531 C 56.585938 22.550781 58.367188 21.816406 59.289062 20.894531 C 60.671875 19.511719 62.054688 18.128906 63.4375 16.746094 C 64.375 16.074219 65.527344 15.878906 66.511719 15.214844 C 67.28125 14.292969 68.042969 13.371094 68.816406 12.449219 C 68.816406 12.398438 68.816406 12.34375 68.816406 12.300781 C 68.867188 12.300781 68.921875 12.300781 68.964844 12.300781 C 68.914062 13.574219 68.859375 14.859375 68.816406 16.136719 C 69.585938 14.035156 70.347656 11.9375 71.117188 9.84375 C 71.632812 9.332031 72.148438 8.816406 72.652344 8.3125 C 73.589844 7.054688 74.476562 5.894531 75.417969 4.625 C 75.949219 3.917969 76.800781 3.410156 77.109375 2.472656 C 77.214844 2.472656 77.3125 2.472656 77.417969 2.472656 C 77.527344 4.625 77.621094 6.769531 77.730469 8.921875 C 77.269531 10.4375 76.207031 12.085938 75.574219 13.53125 C 75.140625 14.542969 75.035156 15.703125 74.34375 16.445312 C 74.34375 16.554688 74.34375 16.648438 74.34375 16.757812 C 75.425781 16.039062 78.082031 12.992188 78.792969 11.847656 C 78.847656 11.847656 78.898438 11.847656 78.941406 11.847656 C 78.605469 15.851562 76.878906 17.570312 75.257812 20.140625 C 74.40625 21.488281 73.804688 22.792969 72.953125 24.128906 C 72.28125 25.191406 71.199219 26.210938 70.800781 27.503906 C 70.082031 27.515625 69.238281 27.496094 68.804688 27.195312 C 67.183594 27.300781 65.679688 30.402344 64.507812 31.34375 C 64.152344 31.511719 63.726562 31.21875 63.4375 30.882812 C 61.789062 32.582031 61.496094 35.570312 59.898438 37.332031 C 59.898438 37.4375 59.898438 37.535156 59.898438 37.644531 C 61.203125 36.78125 62.214844 35.488281 63.4375 34.566406 C 64.304688 33.914062 65.421875 33.300781 66.050781 32.414062 C 66.101562 32.414062 66.15625 32.414062 66.199219 32.414062 C 65.492188 33.875 64.417969 35.082031 63.585938 36.410156 C 63.097656 37.191406 62.894531 38.148438 62.203125 38.714844 C 62.203125 38.820312 62.203125 38.917969 62.203125 39.023438 C 62.832031 38.609375 63.132812 38.09375 63.585938 37.492188 C 64.613281 36.464844 65.632812 35.445312 66.660156 34.417969 C 67.769531 34.648438 68.390625 35.730469 69.277344 36.261719 C 69.277344 36.3125 69.277344 36.367188 69.277344 36.410156 C 70.808594 34.515625 72.351562 32.628906 73.882812 30.730469 C 74.0625 30.605469 76.921875 32.289062 77.257812 32.726562 C 77.367188 32.726562 77.464844 32.726562 77.570312 32.726562 C 77.054688 31.644531 76.515625 30.199219 75.726562 29.347656 C 75.976562 27.929688 77.164062 27.398438 77.570312 26.125 C 79.164062 26.886719 80.105469 28.84375 81.566406 29.808594 C 81.40625 31.050781 80.929688 34.746094 80.335938 35.640625 C 80.335938 35.746094 80.335938 35.84375 80.335938 35.949219 C 80.386719 35.949219 80.441406 35.949219 80.484375 35.949219 C 81.078125 34.726562 81.851562 33.050781 82.789062 32.113281 C 82.84375 32.058594 82.894531 32.007812 82.941406 31.960938 C 84.472656 35.117188 86.210938 38.371094 88.007812 41.328125 C 89.019531 42.996094 89.488281 45.15625 90.773438 46.546875 C 90.773438 46.65625 90.773438 46.753906 90.773438 46.859375 C 90.003906 46.449219 89.238281 46.042969 88.46875 45.625 C 87.035156 48.550781 85.085938 51.21875 83.402344 53.921875 C 82.320312 55.667969 81.582031 57.863281 80.175781 59.289062 C 80.175781 59.34375 80.175781 59.398438 80.175781 59.441406 C 80.121094 59.441406 80.070312 59.441406 80.023438 59.441406 C 80.636719 56.164062 81.257812 52.894531 81.867188 49.613281 C 82.160156 48.425781 81.902344 46.867188 82.480469 45.929688 C 82.480469 45.617188 82.480469 45.316406 82.480469 45.007812 C 81.363281 45.757812 80.699219 47.167969 79.863281 48.230469 C 79.351562 48.886719 77.898438 48.65625 77.410156 49.304688 C 76.355469 50.6875 75.867188 52.421875 74.957031 53.910156 C 72.511719 57.898438 70.054688 62.074219 67.582031 66.042969 C 66.449219 67.769531 65.492188 69.570312 64.453125 71.253906 Z M 107.601562 69.5625 C 105.855469 68.816406 103.054688 67.070312 101 66.945312 C 100.9375 67.515625 100.8125 68.25 100.539062 68.640625 C 100.441406 68.808594 98.429688 67.257812 98.082031 66.945312 C 96.710938 65.734375 95.273438 64.679688 93.785156 63.570312 C 93.226562 63.15625 92.722656 62.355469 92.09375 62.039062 C 91.375 61.929688 90.65625 61.835938 89.941406 61.726562 C 89.1875 63.171875 87.9375 64.289062 87.023438 65.566406 C 84.738281 68.738281 82.160156 71.765625 80.113281 75.082031 C 80.058594 75.082031 80.007812 75.082031 79.960938 75.082031 C 81.238281 72.449219 82.347656 69.488281 83.496094 66.789062 C 84.011719 65.574219 84.214844 63.898438 85.03125 62.949219 C 85.03125 62.84375 85.03125 62.746094 85.03125 62.640625 C 83.171875 63.605469 81.894531 65.414062 80.273438 66.636719 C 77.597656 68.648438 74.734375 70.820312 72.4375 73.238281 C 72.386719 73.238281 72.332031 73.238281 72.289062 73.238281 C 74.957031 68.773438 78.234375 64.5625 81.195312 60.34375 C 83.089844 57.632812 84.535156 54.65625 86.5625 52.050781 C 87.601562 50.730469 90.25 50.75 91.472656 49.597656 C 93.5625 49.855469 97.207031 53.078125 99.304688 54.046875 C 99.617188 55.347656 100.777344 59.28125 101.460938 60.1875 C 101.921875 60.992188 103.753906 60.902344 104.535156 61.417969 C 105.863281 62.125 105.800781 64.667969 106.988281 65.566406 C 110.082031 67.886719 113.652344 69.960938 116.816406 72.167969 C 118.109375 73.070312 119.988281 73.707031 120.964844 74.929688 C 116.621094 72.902344 112.066406 71.476562 107.601562 69.5625 Z M 133.246094 75.550781 C 132.164062 75.195312 131.234375 74.40625 130.328125 73.859375 C 128.230469 72.582031 126.050781 71.554688 124.039062 70.324219 C 121.273438 68.640625 118.429688 67.195312 115.746094 65.566406 C 114.679688 64.910156 113.511719 64.609375 112.519531 63.871094 C 111.871094 63.394531 111.472656 62.382812 110.984375 61.71875 C 109.886719 60.230469 108.40625 58.902344 107.300781 57.421875 C 106.589844 56.464844 105.96875 55.179688 104.996094 54.503906 C 104.996094 54.453125 104.996094 54.398438 104.996094 54.355469 C 106.101562 54.542969 111.988281 56.828125 112.667969 57.429688 C 113.394531 56.695312 114.265625 54.65625 114.511719 53.59375 C 115.621094 53.769531 118.863281 55.089844 119.582031 55.746094 C 119.6875 55.746094 119.785156 55.746094 119.890625 55.746094 C 119.4375 54.167969 118.226562 52.894531 117.4375 51.597656 C 116.65625 50.324219 116.222656 49.039062 115.441406 47.761719 C 115.054688 47.132812 114.503906 46.679688 114.371094 45.769531 C 115.328125 46.503906 115.816406 47.832031 116.523438 48.84375 C 118.058594 51.03125 119.882812 53.125 121.28125 55.445312 C 126.039062 55.480469 126.980469 59.210938 130.339844 60.355469 C 130.125 60.949219 129.726562 61.117188 129.417969 61.585938 C 128.175781 61.398438 123.824219 59.636719 122.964844 58.972656 C 122.496094 59.246094 122.363281 60.273438 122.355469 60.964844 C 121.308594 60.683594 119.714844 59.972656 118.980469 59.273438 C 118.925781 59.273438 118.871094 59.273438 118.828125 59.273438 C 119.191406 60.292969 120.226562 60.929688 120.820312 61.726562 C 121.9375 63.214844 123.152344 65.261719 124.660156 66.335938 C 124.660156 66.390625 124.660156 66.441406 124.660156 66.484375 C 123.789062 66.59375 122.921875 66.691406 122.042969 66.796875 C 122.867188 67.976562 124.5625 68.71875 125.730469 69.5625 C 128.210938 71.351562 130.472656 74 133.253906 75.390625 C 133.246094 75.445312 133.246094 75.5 133.246094 75.550781 Z M 133.246094 75.550781 " fill-opacity="1" fill-rule="evenodd"/></g><path fill="#ffffff" d="M 11.332031 62.738281 L 9.300781 67.292969 C 9.476562 67.253906 9.652344 67.210938 9.832031 67.171875 L 16.691406 55.308594 L 15.78125 58.59375 C 15.589844 60.445312 15.332031 63.046875 15.4375 62.851562 C 15.546875 62.65625 18.8125 57.003906 21.015625 53.195312 L 18.183594 64.847656 L 23.171875 52.019531 L 23.628906 57.699219 L 30.796875 45.054688 L 29.628906 52.550781 L 32.609375 44.972656 L 36.230469 46.664062 L 34.070312 62.730469 L 38.445312 46.738281 C 40.894531 45.683594 46.851562 43.039062 49.105469 41.246094 L 51.898438 32.625 L 48.570312 54.03125 C 48.570312 54.03125 50.101562 44.515625 51.648438 41.046875 C 52.746094 38.585938 54.53125 32.375 55.476562 28.980469 L 52.644531 49.34375 L 57.792969 27.121094 C 59.152344 27.613281 61.03125 28.621094 62.238281 30.640625 C 62.238281 30.640625 66.527344 26.480469 66.945312 25.984375 C 67.269531 25.597656 65.660156 41.148438 64.925781 48.085938 L 73.566406 23.519531 L 70.871094 35.859375 C 72.125 35.515625 73.707031 36 74.839844 36.757812 L 70.527344 54.695312 L 77.898438 32.886719 L 80.742188 27.65625 L 78.707031 40.222656 L 82.90625 27.097656 L 89.570312 32.257812 C 89.007812 31.230469 88.421875 30.164062 87.820312 29.089844 C 85.335938 25.476562 82.484375 21.453125 81.210938 19.816406 C 81.15625 22.191406 80.925781 24.554688 80.496094 26.875 C 80.734375 24.222656 80.726562 21.558594 80.488281 18.929688 C 80.214844 18.601562 79.871094 18.1875 79.476562 17.714844 C 78.417969 16.753906 77.605469 15.878906 76.988281 15.105469 L 78.027344 19.335938 L 76.011719 13.738281 C 75.855469 13.492188 75.722656 13.261719 75.609375 13.050781 C 75.441406 12.847656 75.277344 12.648438 75.125 12.464844 L 76.445312 23.707031 L 74.40625 12.558594 C 72.597656 14.601562 69.660156 17.933594 68.503906 19.300781 L 68.644531 27.304688 L 67.859375 20.078125 C 67.199219 20.882812 66.402344 21.882812 65.632812 22.855469 C 63.578125 26.117188 61.769531 27.8125 61.769531 27.8125 C 61.769531 27.8125 61.765625 27.8125 61.765625 27.808594 L 61.761719 27.816406 L 60.660156 26.355469 C 59.875 25.316406 58.621094 24.308594 57.53125 23.523438 L 57.953125 25.691406 L 56.707031 23.101562 L 56.164062 31.445312 L 55.992188 22.917969 C 53.484375 25.699219 47.339844 32.539062 45.570312 34.816406 C 45.519531 34.882812 45.457031 34.960938 45.402344 35.03125 L 45.089844 39.332031 L 44.722656 35.914062 C 42.332031 39.019531 38.449219 44.15625 38.40625 44.214844 L 37.6875 45.160156 L 36.640625 44.609375 C 35.394531 43.957031 34.019531 42.953125 32.867188 42.039062 L 34.738281 44.890625 L 31.824219 41.644531 C 31.96875 42.828125 31.980469 44.019531 31.84375 45.179688 C 31.792969 43.777344 31.527344 42.398438 31.085938 41.097656 C 29.5625 42.628906 26.808594 45.386719 23.980469 48.167969 L 24.539062 54.933594 L 23.359375 48.78125 C 21.035156 51.054688 18.730469 53.28125 17.09375 54.777344 C 13.988281 57.613281 8.917969 63.226562 4.5 68.339844 C 4.441406 68.425781 4.386719 68.511719 4.332031 68.59375 C 4.332031 68.59375 6.054688 68.085938 8.519531 67.480469 L 11.332031 62.738281 " fill-opacity="1" fill-rule="nonzero"/><path fill="#ffffff" d="M 95.292969 39.546875 L 94.339844 44.113281 L 94.65625 38.871094 C 93.605469 37.726562 92.625 36.535156 92.097656 35.566406 C 92.019531 35.425781 91.902344 35.230469 91.757812 34.996094 C 92.035156 36.375 92.671875 40.355469 91.71875 43.945312 C 90.539062 48.371094 88.742188 55.328125 88.742188 55.328125 C 89.824219 53.65625 91.265625 52.1875 92.675781 50.980469 L 89.480469 66.90625 L 94.921875 49.234375 C 96.039062 48.449219 96.960938 47.898438 97.417969 47.636719 L 96.988281 57.4375 L 98.457031 50.816406 L 99.859375 57.390625 L 101.796875 52.914062 L 105.230469 64.902344 L 104.890625 54.386719 L 103.898438 43.640625 L 106.832031 51.753906 L 106.449219 47.257812 L 109.484375 49.316406 L 112.816406 40.625 L 111.441406 50.644531 L 117.238281 54.574219 L 114.628906 66.808594 L 119.796875 50.605469 L 118.53125 59.957031 L 121.773438 48.625 L 132.367188 67.742188 L 126.210938 51.601562 C 126.210938 51.601562 132.957031 58.097656 137.289062 61.265625 C 141.621094 64.4375 146.417969 69.464844 146.417969 69.464844 C 146.417969 69.464844 146.238281 69.214844 145.921875 68.773438 C 140.292969 62.097656 128.539062 48.1875 126.207031 45.691406 L 125.820312 50.597656 L 125.574219 45.03125 C 122.90625 42.285156 117.054688 36.703125 114.015625 33.820312 L 116.398438 39.007812 L 113.933594 34.878906 C 115.117188 39.378906 116.117188 43.921875 116.90625 48.496094 C 115.773438 43.386719 114.382812 38.34375 112.761719 33.382812 C 111.695312 34.328125 109.339844 36.347656 107.207031 37.683594 C 106.296875 38.429688 105.449219 39.121094 104.75 39.671875 L 109.242188 43.652344 L 104.171875 40.125 C 103.773438 40.4375 103.449219 40.675781 103.253906 40.804688 C 102.265625 41.457031 100.410156 42.792969 100.390625 42.804688 L 100.164062 42.96875 L 101.730469 45.78125 L 100.148438 44.0625 L 102.242188 50.699219 L 99.066406 43.046875 L 98.71875 42.777344 C 98.210938 42.382812 96.753906 41.066406 95.292969 39.546875 " fill-opacity="1" fill-rule="nonzero"/><g clip-path="url(#a8ad92020d)"><path fill="#373737" d="M 98.71875 42.777344 L 99.066406 43.046875 L 102.242188 50.699219 L 100.148438 44.0625 L 101.730469 45.78125 L 100.164062 42.96875 L 100.390625 42.804688 C 100.410156 42.792969 102.265625 41.457031 103.253906 40.804688 C 103.449219 40.675781 103.773438 40.4375 104.171875 40.125 L 109.242188 43.652344 L 104.75 39.671875 C 105.449219 39.121094 106.296875 38.429688 107.207031 37.683594 C 109.339844 36.347656 111.695312 34.328125 112.761719 33.382812 C 114.382812 38.34375 115.773438 43.386719 116.90625 48.496094 C 116.117188 43.921875 115.117188 39.378906 113.933594 34.878906 L 116.398438 39.007812 L 114.015625 33.820312 C 117.054688 36.703125 122.90625 42.285156 125.574219 45.03125 L 125.820312 50.597656 L 126.207031 45.691406 C 128.539062 48.1875 140.292969 62.097656 145.921875 68.773438 C 146.238281 69.214844 146.417969 69.464844 146.417969 69.464844 C 146.417969 69.464844 141.621094 64.4375 137.289062 61.265625 C 132.957031 58.097656 126.210938 51.601562 126.210938 51.601562 L 132.367188 67.742188 L 121.773438 48.625 L 118.53125 59.957031 L 119.796875 50.605469 L 114.628906 66.808594 L 117.238281 54.574219 L 111.441406 50.644531 L 112.816406 40.625 L 109.484375 49.316406 L 106.449219 47.257812 L 106.832031 51.753906 L 103.898438 43.640625 L 104.890625 54.386719 L 105.230469 64.902344 L 101.796875 52.914062 L 99.859375 57.390625 L 98.457031 50.816406 L 96.988281 57.4375 L 97.417969 47.636719 C 96.960938 47.898438 96.039062 48.449219 94.921875 49.234375 L 89.480469 66.90625 L 92.675781 50.980469 C 91.265625 52.1875 89.824219 53.65625 88.742188 55.328125 C 88.742188 55.328125 90.539062 48.371094 91.71875 43.945312 C 92.671875 40.355469 92.035156 36.375 91.757812 34.996094 C 91.902344 35.230469 92.019531 35.425781 92.097656 35.566406 C 92.625 36.535156 93.605469 37.726562 94.65625 38.871094 L 94.339844 44.113281 L 95.292969 39.546875 C 96.753906 41.066406 98.210938 42.382812 98.71875 42.777344 Z M 4.5 68.339844 C 8.917969 63.226562 13.988281 57.613281 17.09375 54.777344 C 18.730469 53.28125 21.035156 51.054688 23.359375 48.78125 L 24.539062 54.933594 L 23.980469 48.167969 C 26.808594 45.386719 29.5625 42.628906 31.085938 41.097656 C 31.527344 42.398438 31.792969 43.777344 31.84375 45.179688 C 31.980469 44.019531 31.96875 42.828125 31.824219 41.644531 L 34.738281 44.890625 L 32.867188 42.039062 C 34.019531 42.953125 35.394531 43.957031 36.640625 44.609375 L 37.6875 45.160156 L 38.40625 44.214844 C 38.449219 44.15625 42.332031 39.019531 44.722656 35.914062 L 45.089844 39.332031 L 45.402344 35.03125 C 45.457031 34.960938 45.519531 34.882812 45.570312 34.816406 C 47.339844 32.539062 53.484375 25.699219 55.992188 22.917969 L 56.164062 31.445312 L 56.707031 23.101562 L 57.953125 25.691406 L 57.53125 23.523438 C 58.621094 24.308594 59.875 25.316406 60.660156 26.355469 L 61.761719 27.816406 L 61.765625 27.808594 C 61.765625 27.8125 61.769531 27.8125 61.769531 27.8125 C 61.769531 27.8125 63.578125 26.117188 65.632812 22.855469 C 66.402344 21.882812 67.199219 20.882812 67.859375 20.078125 L 68.644531 27.304688 L 68.503906 19.300781 C 69.660156 17.933594 72.597656 14.601562 74.40625 12.558594 L 76.445312 23.707031 L 75.125 12.464844 C 75.277344 12.648438 75.441406 12.847656 75.609375 13.050781 C 75.722656 13.261719 75.855469 13.492188 76.011719 13.738281 L 78.027344 19.335938 L 76.988281 15.105469 C 77.605469 15.878906 78.417969 16.753906 79.476562 17.714844 C 79.871094 18.1875 80.214844 18.601562 80.488281 18.929688 C 80.726562 21.558594 80.734375 24.222656 80.496094 26.875 C 80.925781 24.554688 81.15625 22.191406 81.210938 19.816406 C 82.484375 21.453125 85.335938 25.476562 87.820312 29.089844 C 88.421875 30.164062 89.007812 31.230469 89.570312 32.257812 L 82.90625 27.097656 L 78.707031 40.222656 L 80.742188 27.65625 L 77.898438 32.886719 L 70.527344 54.695312 L 74.839844 36.757812 C 73.707031 36 72.125 35.515625 70.871094 35.859375 L 73.566406 23.519531 L 64.925781 48.085938 C 65.660156 41.148438 67.269531 25.597656 66.945312 25.984375 C 66.527344 26.480469 62.238281 30.640625 62.238281 30.640625 C 61.03125 28.621094 59.152344 27.613281 57.792969 27.121094 L 52.644531 49.34375 L 55.476562 28.980469 C 54.53125 32.375 52.746094 38.585938 51.648438 41.046875 C 50.101562 44.515625 48.570312 54.03125 48.570312 54.03125 L 51.898438 32.625 L 49.105469 41.246094 C 46.851562 43.039062 40.894531 45.683594 38.445312 46.738281 L 34.070312 62.730469 L 36.230469 46.664062 L 32.609375 44.972656 L 29.628906 52.550781 L 30.796875 45.054688 L 23.628906 57.699219 L 23.171875 52.019531 L 18.183594 64.847656 L 21.015625 53.195312 C 18.8125 57.003906 15.546875 62.65625 15.4375 62.851562 C 15.332031 63.046875 15.589844 60.445312 15.78125 58.59375 L 16.691406 55.308594 L 9.832031 67.171875 C 9.652344 67.210938 9.476562 67.253906 9.300781 67.292969 L 11.332031 62.738281 L 8.519531 67.480469 C 6.054688 68.085938 4.332031 68.59375 4.332031 68.59375 C 4.386719 68.511719 4.441406 68.425781 4.5 68.339844 Z M 135.785156 54.621094 C 135.132812 53.855469 134.492188 53.101562 133.871094 52.375 C 132.320312 50.558594 130.898438 48.898438 129.742188 47.566406 C 128.585938 46.234375 127.695312 45.226562 127.210938 44.707031 C 125.578125 42.964844 121.742188 39.253906 118.476562 36.128906 C 115.535156 33.3125 113.050781 30.972656 113.050781 30.972656 C 113.050781 30.972656 111.769531 32.054688 110.089844 33.460938 C 109.953125 33.578125 109.808594 33.695312 109.664062 33.816406 C 109.375 34.058594 109.078125 34.308594 108.773438 34.558594 C 108.46875 34.8125 108.160156 35.070312 107.851562 35.328125 C 107.234375 35.839844 106.613281 36.351562 106.019531 36.839844 C 104.390625 38.171875 102.988281 39.296875 102.488281 39.625 C 101.464844 40.300781 99.574219 41.660156 99.574219 41.660156 C 98.609375 40.910156 94.527344 37.082031 93.324219 34.886719 C 92.125 32.695312 83.675781 20.550781 81.921875 18.457031 C 81.921875 18.453125 81.917969 18.453125 81.917969 18.449219 C 81.597656 18.070312 80.996094 17.34375 80.273438 16.472656 C 78.105469 13.863281 74.855469 9.9375 74.855469 9.9375 C 74.855469 9.9375 73.40625 11.566406 71.75 13.445312 C 71.429688 13.804688 71.105469 14.175781 70.78125 14.542969 C 70.472656 14.898438 70.160156 15.25 69.859375 15.59375 C 69.65625 15.828125 69.453125 16.058594 69.257812 16.28125 C 68.480469 17.171875 67.804688 17.953125 67.382812 18.449219 C 66.804688 19.136719 66.011719 20.121094 65.199219 21.140625 C 64.953125 21.453125 64.703125 21.765625 64.460938 22.078125 C 64.394531 22.15625 64.332031 22.238281 64.269531 22.316406 C 62.933594 24.011719 61.777344 25.503906 61.777344 25.503906 C 61.425781 25.039062 61.003906 24.589844 60.546875 24.160156 C 59.941406 23.589844 59.277344 23.058594 58.652344 22.597656 C 58.023438 22.132812 57.433594 21.734375 56.972656 21.429688 C 56.398438 21.050781 56.03125 20.8125 56.046875 20.761719 C 56.046875 20.761719 46.753906 31.003906 44.464844 33.949219 C 42.28125 36.761719 37.289062 43.359375 37.289062 43.359375 C 34.691406 41.996094 31.3125 38.875 31.3125 38.875 C 31.3125 38.875 20.933594 49.367188 16.152344 53.734375 C 11.839844 57.167969 4.726562 65.828125 0.0078125 71.4375 L 150 71.4375 C 150 71.4375 142.308594 62.289062 135.785156 54.621094 " fill-opacity="1" fill-rule="nonzero"/></g></svg>