<svg xmlns="http://www.w3.org/2000/svg" xmlns:xlink="http://www.w3.org/1999/xlink" width="200" zoomAndPan="magnify" viewBox="0 0 150 80.999996" height="108" preserveAspectRatio="xMidYMid meet" version="1.0"><defs><clipPath id="4d5ff036e4"><path d="M 0 0.59375 L 150 0.59375 L 150 80.09375 L 0 80.09375 Z M 0 0.59375 " clip-rule="nonzero"/></clipPath></defs><g clip-path="url(#4d5ff036e4)"><path fill="#ffffff" d="M 144.605469 73.070312 C 143.125 71.113281 141.265625 69.417969 139.535156 67.699219 C 139.023438 67.238281 138.507812 66.777344 138.003906 66.316406 C 136.691406 64.582031 135.070312 63.234375 133.554688 61.710938 C 132.945312 61.046875 132.324219 60.378906 131.710938 59.714844 C 129.964844 58.421875 128.210938 57.121094 126.492188 55.878906 C 125.714844 55.320312 124.773438 54.929688 124.1875 54.1875 C 123.523438 54.1875 122.859375 54.1875 122.195312 54.1875 C 121.769531 53.921875 121.015625 52.226562 120.664062 51.730469 C 119.617188 50.242188 118.332031 48.761719 117.285156 47.285156 C 116.691406 46.441406 116.3125 45.539062 115.59375 44.828125 C 114.75 44.253906 113.371094 44.925781 112.21875 44.519531 C 110.632812 43.136719 109.046875 41.753906 107.457031 40.371094 C 106.589844 38.804688 107.191406 36.3125 106.226562 34.84375 C 106.050781 33.761719 105.171875 33.601562 104.535156 33 C 103.257812 31.792969 101.9375 30.367188 100.539062 29.3125 C 100.007812 28.914062 99.015625 28.496094 98.695312 27.929688 C 98.589844 27.417969 98.492188 26.902344 98.386719 26.398438 C 97.464844 25.53125 96.542969 24.660156 95.621094 23.785156 C 94.957031 22.816406 94.699219 21.71875 94.085938 20.707031 C 93.164062 19.210938 92.058594 17.625 91.171875 16.101562 C 90.3125 14.621094 89.957031 11.6875 89.019531 10.421875 C 88.496094 9.710938 87.28125 9.117188 86.5625 8.578125 C 84.445312 6.992188 82.683594 4.792969 80.574219 3.207031 C 79.554688 2.4375 78.214844 1.664062 77.5 0.59375 C 76.453125 1.089844 75.71875 2.453125 75.042969 3.359375 C 73.6875 5.167969 71.976562 6.742188 70.597656 8.578125 C 69.773438 9.667969 68.503906 10.554688 67.679688 11.652344 C 67.121094 12.386719 66.554688 13.550781 65.835938 14.105469 C 64.898438 14.832031 63.613281 14.964844 62.613281 15.640625 C 62.140625 15.960938 61.726562 16.492188 61.230469 16.871094 C 58.773438 18.722656 57.066406 21.753906 54.476562 23.472656 C 54.476562 24.546875 54.476562 25.625 54.476562 26.699219 C 53.40625 29.261719 52.324219 31.820312 51.25 34.371094 C 50.515625 34.523438 49.230469 34.59375 48.636719 34.984375 C 47.238281 35.160156 46.695312 36.953125 46.023438 37.898438 C 44.960938 39.414062 43.570312 40.851562 42.488281 42.347656 C 42.203125 42.738281 42.070312 43.421875 41.71875 43.730469 C 40.945312 43.988281 40.183594 44.246094 39.414062 44.5 C 38.640625 44.359375 38.21875 43.675781 37.878906 43.117188 C 36.800781 43.074219 34.699219 43.023438 33.882812 42.507812 C 32.402344 42.570312 32.367188 43.347656 31.730469 44.199219 C 30.535156 45.804688 28.496094 47.308594 27.582031 49.109375 C 27.328125 50.339844 27.070312 51.5625 26.8125 52.796875 C 26.464844 53.273438 25.605469 53.65625 25.121094 54.027344 C 23.765625 55.046875 22.640625 56.542969 21.28125 57.5625 C 20.75 57.960938 19.988281 58.273438 19.589844 58.792969 C 17.480469 61.566406 15.328125 64.316406 13.300781 67.089844 C 12.554688 68.097656 11.863281 69.367188 11.03125 70.402344 L 0.0429688 80.398438 L 14.175781 78.609375 C 59.171875 78.609375 104.1875 78.609375 149.1875 78.609375 C 149.445312 78.609375 149.699219 78.609375 149.957031 78.609375 C 149.371094 76.90625 145.773438 74.621094 144.605469 73.070312 Z M 110.824219 45.894531 C 110.824219 45.945312 110.824219 46 110.824219 46.042969 C 109.773438 45.820312 107.175781 45.636719 106.378906 45.121094 C 105.667969 44.9375 102.46875 39.761719 102.230469 38.832031 C 105.09375 41.1875 107.964844 43.542969 110.824219 45.894531 Z M 103.914062 34.53125 C 103.914062 34.585938 103.914062 34.640625 103.914062 34.683594 C 103.265625 34.53125 102.53125 34.285156 102.070312 33.914062 C 101.21875 34 101.414062 34.230469 101 34.683594 C 100.945312 34.734375 100.894531 34.789062 100.847656 34.832031 C 100.511719 34.117188 100.085938 32.820312 99.464844 32.378906 C 98.347656 31.589844 96.160156 31.085938 95.46875 29.925781 C 95.113281 29.320312 94.964844 28.648438 94.699219 28.082031 C 98.882812 28.746094 100.554688 32.867188 103.914062 34.53125 Z M 101 41.90625 C 101 42.011719 101 42.109375 101 42.214844 C 99.839844 41.460938 96.71875 38.582031 96.242188 37.304688 C 95.914062 36.429688 95.929688 35.347656 95.78125 34.542969 C 96.710938 35.195312 97.117188 36.515625 97.773438 37.457031 C 98.421875 38.371094 99.316406 39.265625 99.925781 40.222656 C 100.324219 40.851562 100.441406 41.445312 101 41.90625 Z M 97.3125 50.039062 C 97.976562 50.542969 98.6875 50.871094 99.15625 51.574219 C 98.277344 51.183594 95.273438 50.449219 94.707031 49.878906 C 94.484375 49.660156 92.820312 46.433594 92.714844 46.042969 C 94.460938 47.097656 95.726562 48.84375 97.3125 50.039062 Z M 83.648438 8.125 C 84.800781 8.996094 86.539062 10.011719 87.335938 11.199219 C 88.292969 12.628906 88.476562 14.664062 89.179688 16.269531 C 90.257812 18.757812 92.011719 20.949219 93.175781 23.484375 C 92.429688 22.96875 91.515625 21.789062 91.019531 21.027344 C 90.488281 21.214844 90.367188 21.515625 89.949219 21.796875 C 89.894531 21.851562 89.84375 21.90625 89.796875 21.949219 C 89.796875 21.894531 89.796875 21.84375 89.796875 21.796875 C 89.1875 21.523438 88.175781 20.46875 87.957031 19.804688 C 87.414062 19.75 87.34375 19.824219 86.722656 19.957031 C 85.988281 18.832031 83.738281 15.753906 82.726562 15.046875 C 82.726562 14.941406 82.726562 14.84375 82.726562 14.738281 C 82.675781 14.738281 82.621094 14.738281 82.578125 14.738281 C 82.636719 16.003906 83.339844 21.824219 83.808594 22.570312 C 84.207031 23.570312 85.695312 23.996094 86.421875 24.722656 C 86.511719 24.847656 84.828125 28.90625 84.429688 29.332031 C 84.515625 30.207031 85.21875 30.945312 85.8125 31.324219 C 85.8125 31.429688 85.8125 31.527344 85.8125 31.636719 C 83.507812 29.695312 81.203125 27.746094 78.898438 25.804688 C 79.164062 25.058594 80.238281 24.332031 80.894531 23.960938 C 81.203125 20.886719 81.503906 17.820312 81.8125 14.746094 C 81.085938 12.078125 80.050781 8.984375 79.050781 6.300781 C 78.675781 5.289062 78.121094 4.113281 77.976562 2.925781 C 80.085938 4.289062 81.644531 6.609375 83.648438 8.125 Z M 64.453125 71.847656 C 63.996094 72.589844 63.871094 73.453125 63.222656 74 C 63.222656 74.105469 63.222656 74.203125 63.222656 74.3125 C 63.171875 74.3125 63.117188 74.3125 63.074219 74.3125 C 64.808594 69.144531 66.554688 63.96875 68.292969 58.804688 C 68.292969 58.695312 68.292969 58.601562 68.292969 58.492188 C 66.953125 59.175781 65.820312 60.1875 64.605469 60.949219 C 63.019531 61.949219 61.140625 62.730469 59.847656 64.023438 C 59.792969 64.023438 59.742188 64.023438 59.695312 64.023438 C 60.050781 62.90625 60.777344 61.160156 61.539062 60.335938 C 61.539062 60.285156 61.539062 60.230469 61.539062 60.1875 C 60.449219 60.550781 59.660156 61.445312 58.773438 62.027344 C 56.800781 63.339844 54.859375 64.589844 52.945312 65.867188 C 51.6875 66.707031 49.886719 67.308594 48.949219 68.480469 C 48.894531 68.480469 48.839844 68.480469 48.796875 68.480469 C 50.011719 66.644531 52.261719 64.890625 54.015625 63.570312 C 55.601562 61.984375 57.1875 60.398438 58.773438 58.8125 C 59.8125 58.023438 60.539062 56.960938 61.539062 56.199219 C 62.78125 55.257812 64.304688 54.0625 65.226562 52.820312 C 67.398438 49.90625 69.710938 47.117188 71.828125 44.226562 C 72.765625 42.949219 73.601562 41.125 74.902344 40.230469 C 74.902344 40.125 74.902344 40.027344 74.902344 39.921875 C 74.035156 39.566406 73.164062 39.203125 72.289062 38.847656 C 71.722656 39.699219 70.863281 40.152344 70.136719 40.839844 C 68.398438 42.578125 66.652344 44.324219 64.914062 46.0625 C 63.425781 47.1875 61.503906 48.648438 60.46875 50.207031 C 60.414062 50.207031 60.359375 50.207031 60.316406 50.207031 C 60.308594 49.117188 60.441406 44.296875 60.777344 43.757812 C 60.777344 43.445312 60.777344 43.144531 60.777344 42.835938 C 60.722656 42.835938 60.671875 42.835938 60.628906 42.835938 C 59.695312 44.625 57.960938 45.882812 56.789062 47.441406 C 56.167969 48.265625 55.628906 49.304688 54.796875 49.898438 C 54.789062 51.023438 54.664062 56.269531 55.105469 56.960938 C 55.105469 57.011719 55.105469 57.066406 55.105469 57.109375 C 53.722656 57.109375 52.339844 57.109375 50.960938 57.109375 C 50.605469 57.464844 50.242188 57.828125 49.886719 58.183594 C 48 59.59375 46.351562 61.257812 44.515625 62.632812 C 40.980469 65.28125 37.878906 68.453125 34.378906 71.078125 C 32.660156 72.359375 30.25 73.789062 29.011719 75.523438 C 28.957031 75.523438 28.902344 75.523438 28.859375 75.523438 C 29.640625 74.042969 31.109375 72.980469 32.085938 71.6875 C 34.824219 68.035156 38.136719 64.855469 40.839844 61.25 C 42.097656 59.574219 43.605469 58.121094 44.835938 56.492188 C 45.535156 55.550781 46.164062 54.390625 47.140625 53.726562 C 47.140625 53.621094 47.140625 53.523438 47.140625 53.414062 C 45.128906 54.089844 42.167969 56.925781 40.386719 58.175781 C 35.425781 61.648438 30.550781 65.175781 25.652344 68.613281 C 23.402344 70.199219 21.238281 71.804688 19.050781 73.371094 C 18.21875 73.964844 17.1875 74.390625 16.59375 75.214844 C 16.542969 75.214844 16.488281 75.214844 16.445312 75.214844 C 18.429688 72.183594 21.621094 69.976562 23.816406 67.078125 C 24.382812 66.566406 24.941406 66.050781 25.507812 65.546875 C 26.9375 63.660156 28.867188 62.179688 30.269531 60.328125 C 31.039062 59.308594 31.871094 58.03125 32.882812 57.253906 C 32.882812 57.199219 32.882812 57.144531 32.882812 57.101562 C 30.046875 57.925781 27.601562 60.441406 25.359375 62.011719 C 22.390625 64.101562 19.632812 66.351562 16.761719 68.460938 C 15.257812 69.570312 13.589844 70.507812 12.316406 71.839844 C 12.261719 71.839844 12.207031 71.839844 12.164062 71.839844 C 12.980469 70.492188 14.175781 69.394531 15.078125 68.152344 C 17.011719 65.519531 18.828125 62.949219 20.761719 60.320312 C 21.203125 59.707031 22.019531 59.421875 22.453125 58.785156 C 22.558594 58.785156 22.65625 58.785156 22.761719 58.785156 C 22.503906 59.558594 22.25 60.320312 21.992188 61.089844 C 21.992188 61.144531 21.992188 61.195312 21.992188 61.242188 C 22.984375 60.886719 23.515625 59.832031 24.296875 59.246094 C 25.847656 58.078125 27.980469 56.722656 29.054688 55.097656 C 29.109375 55.097656 29.160156 55.097656 29.203125 55.097656 C 28.9375 56.019531 27.28125 58.707031 26.589844 59.246094 C 26.589844 59.351562 26.589844 59.449219 26.589844 59.558594 C 30.117188 57.5625 33.652344 55.558594 37.1875 53.566406 C 37.1875 52.882812 37.1875 51.589844 36.878906 51.113281 C 36.878906 50.855469 36.878906 50.597656 36.878906 50.339844 C 35.976562 50.8125 35.195312 51.855469 34.265625 52.183594 C 33.164062 52.566406 32.015625 52.09375 31.191406 52.644531 C 31.136719 52.644531 31.082031 52.644531 31.039062 52.644531 C 31.3125 51.863281 32.085938 51.394531 32.570312 50.800781 C 32.625 50.75 32.679688 50.695312 32.722656 50.652344 C 32.667969 50.652344 32.617188 50.652344 32.570312 50.652344 C 32.394531 50.21875 32.554688 50.359375 32.113281 50.191406 C 31.917969 50.085938 30.90625 50.519531 30.578125 50.800781 C 30.523438 50.800781 30.472656 50.800781 30.429688 50.800781 C 30.429688 47.195312 32.484375 46.558594 33.804688 44.351562 C 35.914062 44.359375 37.730469 44.910156 38.253906 46.503906 C 44.667969 46.027344 45.652344 40.078125 49.152344 36.675781 C 50.003906 36.09375 51.339844 36.542969 52.378906 36.066406 C 52.785156 35.65625 53.191406 35.25 53.609375 34.832031 C 55.203125 33.65625 56.65625 32.300781 58.214844 31.148438 C 59.03125 30.542969 60.398438 29.976562 60.980469 29.152344 C 62.363281 27.195312 63.074219 24.085938 64.667969 22.402344 C 64.667969 22.296875 64.667969 22.199219 64.667969 22.089844 C 63.390625 22.71875 62.203125 23.472656 60.980469 24.246094 C 60.707031 24.414062 60.378906 24.898438 60.058594 25.015625 C 59.511719 25.210938 58.527344 24.953125 58.367188 25.015625 C 57.738281 25.261719 57.296875 26.140625 56.984375 26.707031 C 56.683594 26.265625 56.808594 25.335938 56.523438 24.863281 C 56.585938 23.144531 58.367188 22.410156 59.289062 21.488281 C 60.671875 20.105469 62.054688 18.722656 63.4375 17.339844 C 64.375 16.667969 65.527344 16.472656 66.511719 15.808594 C 67.28125 14.886719 68.042969 13.964844 68.816406 13.042969 C 68.816406 12.992188 68.816406 12.9375 68.816406 12.894531 C 68.867188 12.894531 68.921875 12.894531 68.964844 12.894531 C 68.914062 14.167969 68.859375 15.453125 68.816406 16.730469 C 69.585938 14.628906 70.347656 12.53125 71.117188 10.4375 C 71.632812 9.925781 72.148438 9.410156 72.652344 8.90625 C 73.589844 7.648438 74.476562 6.488281 75.417969 5.21875 C 75.949219 4.511719 76.800781 4.003906 77.109375 3.066406 C 77.214844 3.066406 77.3125 3.066406 77.417969 3.066406 C 77.527344 5.21875 77.621094 7.363281 77.730469 9.515625 C 77.269531 11.03125 76.207031 12.679688 75.574219 14.125 C 75.140625 15.136719 75.035156 16.296875 74.34375 17.039062 C 74.34375 17.148438 74.34375 17.242188 74.34375 17.351562 C 75.425781 16.632812 78.082031 13.585938 78.792969 12.441406 C 78.847656 12.441406 78.898438 12.441406 78.941406 12.441406 C 78.605469 16.445312 76.878906 18.164062 75.257812 20.734375 C 74.40625 22.082031 73.804688 23.386719 72.953125 24.722656 C 72.28125 25.785156 71.199219 26.804688 70.800781 28.097656 C 70.082031 28.109375 69.238281 28.089844 68.804688 27.789062 C 67.183594 27.894531 65.679688 30.996094 64.507812 31.9375 C 64.152344 32.105469 63.726562 31.8125 63.4375 31.476562 C 61.789062 33.175781 61.496094 36.164062 59.898438 37.925781 C 59.898438 38.03125 59.898438 38.128906 59.898438 38.238281 C 61.203125 37.375 62.214844 36.082031 63.4375 35.160156 C 64.304688 34.507812 65.421875 33.894531 66.050781 33.007812 C 66.101562 33.007812 66.15625 33.007812 66.199219 33.007812 C 65.492188 34.46875 64.417969 35.675781 63.585938 37.003906 C 63.097656 37.785156 62.894531 38.742188 62.203125 39.308594 C 62.203125 39.414062 62.203125 39.511719 62.203125 39.617188 C 62.832031 39.203125 63.132812 38.6875 63.585938 38.085938 C 64.613281 37.058594 65.632812 36.039062 66.660156 35.011719 C 67.769531 35.242188 68.390625 36.324219 69.277344 36.855469 C 69.277344 36.90625 69.277344 36.960938 69.277344 37.003906 C 70.808594 35.109375 72.351562 33.222656 73.882812 31.324219 C 74.0625 31.199219 76.921875 32.882812 77.257812 33.320312 C 77.367188 33.320312 77.464844 33.320312 77.570312 33.320312 C 77.054688 32.238281 76.515625 30.792969 75.726562 29.941406 C 75.976562 28.523438 77.164062 27.992188 77.570312 26.71875 C 79.164062 27.480469 80.105469 29.4375 81.566406 30.402344 C 81.40625 31.644531 80.929688 35.339844 80.335938 36.234375 C 80.335938 36.339844 80.335938 36.4375 80.335938 36.542969 C 80.386719 36.542969 80.441406 36.542969 80.484375 36.542969 C 81.078125 35.320312 81.851562 33.644531 82.789062 32.707031 C 82.84375 32.652344 82.894531 32.601562 82.941406 32.554688 C 84.472656 35.710938 86.210938 38.964844 88.007812 41.921875 C 89.019531 43.589844 89.488281 45.75 90.773438 47.140625 C 90.773438 47.25 90.773438 47.347656 90.773438 47.453125 C 90.003906 47.042969 89.238281 46.636719 88.46875 46.21875 C 87.035156 49.144531 85.085938 51.8125 83.402344 54.515625 C 82.320312 56.261719 81.582031 58.457031 80.175781 59.882812 C 80.175781 59.9375 80.175781 59.992188 80.175781 60.035156 C 80.121094 60.035156 80.070312 60.035156 80.023438 60.035156 C 80.636719 56.757812 81.257812 53.488281 81.867188 50.207031 C 82.160156 49.019531 81.902344 47.460938 82.480469 46.523438 C 82.480469 46.210938 82.480469 45.910156 82.480469 45.601562 C 81.363281 46.351562 80.699219 47.761719 79.863281 48.824219 C 79.351562 49.480469 77.898438 49.25 77.410156 49.898438 C 76.355469 51.28125 75.867188 53.015625 74.957031 54.503906 C 72.511719 58.492188 70.054688 62.667969 67.582031 66.636719 C 66.449219 68.363281 65.492188 70.164062 64.453125 71.847656 Z M 107.601562 70.15625 C 105.855469 69.410156 103.054688 67.664062 101 67.539062 C 100.9375 68.109375 100.8125 68.84375 100.539062 69.234375 C 100.441406 69.402344 98.429688 67.851562 98.082031 67.539062 C 96.710938 66.328125 95.273438 65.273438 93.785156 64.164062 C 93.226562 63.75 92.722656 62.949219 92.09375 62.632812 C 91.375 62.523438 90.65625 62.429688 89.941406 62.320312 C 89.1875 63.765625 87.9375 64.882812 87.023438 66.160156 C 84.738281 69.332031 82.160156 72.359375 80.113281 75.675781 C 80.058594 75.675781 80.007812 75.675781 79.960938 75.675781 C 81.238281 73.042969 82.347656 70.082031 83.496094 67.382812 C 84.011719 66.167969 84.214844 64.492188 85.03125 63.542969 C 85.03125 63.4375 85.03125 63.339844 85.03125 63.234375 C 83.171875 64.199219 81.894531 66.007812 80.273438 67.230469 C 77.597656 69.242188 74.734375 71.414062 72.4375 73.832031 C 72.386719 73.832031 72.332031 73.832031 72.289062 73.832031 C 74.957031 69.367188 78.234375 65.15625 81.195312 60.9375 C 83.089844 58.226562 84.535156 55.25 86.5625 52.644531 C 87.601562 51.324219 90.25 51.34375 91.472656 50.191406 C 93.5625 50.449219 97.207031 53.671875 99.304688 54.640625 C 99.617188 55.941406 100.777344 59.875 101.460938 60.78125 C 101.921875 61.585938 103.753906 61.496094 104.535156 62.011719 C 105.863281 62.71875 105.800781 65.261719 106.988281 66.160156 C 110.082031 68.480469 113.652344 70.554688 116.816406 72.761719 C 118.109375 73.664062 119.988281 74.300781 120.964844 75.523438 C 116.621094 73.496094 112.066406 72.070312 107.601562 70.15625 Z M 133.246094 76.144531 C 132.164062 75.789062 131.234375 75 130.328125 74.453125 C 128.230469 73.175781 126.050781 72.148438 124.039062 70.917969 C 121.273438 69.234375 118.429688 67.789062 115.746094 66.160156 C 114.679688 65.503906 113.511719 65.203125 112.519531 64.464844 C 111.871094 63.988281 111.472656 62.976562 110.984375 62.3125 C 109.886719 60.824219 108.40625 59.496094 107.300781 58.015625 C 106.589844 57.058594 105.96875 55.773438 104.996094 55.097656 C 104.996094 55.046875 104.996094 54.992188 104.996094 54.949219 C 106.101562 55.136719 111.988281 57.421875 112.667969 58.023438 C 113.394531 57.289062 114.265625 55.25 114.511719 54.1875 C 115.621094 54.363281 118.863281 55.683594 119.582031 56.339844 C 119.6875 56.339844 119.785156 56.339844 119.890625 56.339844 C 119.4375 54.761719 118.226562 53.488281 117.4375 52.191406 C 116.65625 50.917969 116.222656 49.632812 115.441406 48.355469 C 115.054688 47.726562 114.503906 47.273438 114.371094 46.363281 C 115.328125 47.097656 115.816406 48.425781 116.523438 49.4375 C 118.058594 51.625 119.882812 53.71875 121.28125 56.039062 C 126.039062 56.074219 126.980469 59.804688 130.339844 60.949219 C 130.125 61.542969 129.726562 61.710938 129.417969 62.179688 C 128.175781 61.992188 123.824219 60.230469 122.964844 59.566406 C 122.496094 59.839844 122.363281 60.867188 122.355469 61.558594 C 121.308594 61.277344 119.714844 60.566406 118.980469 59.867188 C 118.925781 59.867188 118.871094 59.867188 118.828125 59.867188 C 119.191406 60.886719 120.226562 61.523438 120.820312 62.320312 C 121.9375 63.808594 123.152344 65.855469 124.660156 66.929688 C 124.660156 66.984375 124.660156 67.035156 124.660156 67.078125 C 123.789062 67.1875 122.921875 67.285156 122.042969 67.390625 C 122.867188 68.570312 124.5625 69.3125 125.730469 70.15625 C 128.210938 71.945312 130.472656 74.59375 133.253906 75.984375 C 133.246094 76.039062 133.246094 76.09375 133.246094 76.144531 Z M 133.246094 76.144531 " fill-opacity="1" fill-rule="evenodd"/></g></svg>